<svg width="40" height="40" viewBox="0 0 40 40" fill="none" xmlns="http://www.w3.org/2000/svg">
<g clip-path="url(#clip0_7983_2785)">
<mask id="mask0_7983_2785" style="mask-type:luminance" maskUnits="userSpaceOnUse" x="0" y="2" width="40" height="38">
<path d="M0.0424805 2.51855H39.9576V39.0741H0.0424805V2.51855Z" fill="white"/>
</mask>
<g mask="url(#mask0_7983_2785)">
<path d="M36.6832 33.6888C36.6832 34.8645 35.7193 35.8279 34.543 35.8279H12.5442C11.3679 35.8279 10.4005 34.8645 10.4005 33.6888V32.5555H26.5663C29.3798 32.5555 32.19 30.3742 32.9059 27.5622L36.6408 13.634V33.6888H36.6832ZM4.60666 29.2833C4.26986 29.2833 3.85184 29.1984 3.6003 28.862C3.34856 28.568 3.30612 28.1076 3.4726 27.5622L7.75693 11.5341H33.8696L29.798 26.7229C29.4224 28.0651 27.9518 29.2833 26.6053 29.2833H4.60666ZM34.543 2.55664H32.7782L32.2751 4.40174C31.8144 6.08017 30.2197 7.3375 28.5364 7.3375C27.6152 7.3375 26.7328 6.96212 26.2297 6.24665C25.684 5.53484 25.5173 4.56802 25.7654 3.6473L26.0596 2.55664H20.3509L19.8476 4.40174C19.3869 6.08017 17.7888 7.3375 16.0702 7.3375C15.1452 7.3375 14.3054 6.96212 13.7596 6.24665C13.2139 5.53484 13.0474 4.56802 13.299 3.6473L13.5932 2.55664H11.7434C8.93324 2.55664 6.11978 4.73816 5.40392 7.54989L0.240921 26.7229C-0.180761 28.2351 0.0707822 29.7438 0.953112 30.8344C1.793 31.9253 3.09354 32.5555 4.56403 32.5555H7.12614V33.6888C7.12614 36.6672 9.56056 39.1 12.5407 39.1H34.543C37.5231 39.1 39.9576 36.6672 39.9576 33.6888V7.96791C39.9576 4.98951 37.5231 2.55664 34.543 2.55664Z" fill="#19473E"/>
</g>
<path d="M16.1127 5.82866C17.119 5.82866 18.1254 5.03178 18.3771 4.02252L18.9653 1.80204C19.2168 0.792776 18.6287 -0.00390625 17.6648 -0.00390625C16.6584 -0.00390625 15.6485 0.792776 15.3968 1.80204L14.8087 4.02252C14.5571 4.98934 15.1453 5.82866 16.1127 5.82866Z" fill="#19473E"/>
<path d="M28.5362 5.82866C29.5463 5.82866 30.5526 5.03178 30.8042 4.02252L31.3925 1.80204C31.6441 0.792776 31.0557 -0.00390625 30.092 -0.00390625C29.0856 -0.00390625 28.0756 0.792776 27.8241 1.80204L27.1933 4.02252C26.9417 4.98934 27.5299 5.82866 28.5362 5.82866Z" fill="#19473E"/>
<path d="M21.6547 16.7788L16.9914 20.4725L16.1515 19.3394C15.6057 18.6239 14.5994 18.4574 13.8446 19.0029C13.1289 19.5483 12.9622 20.5541 13.5079 21.3118L15.3542 23.7873C15.6057 24.1627 16.0274 24.375 16.4456 24.4566H16.6582C17.0338 24.4566 17.3704 24.3326 17.6646 24.1237L23.6675 19.3818C24.3833 18.8365 24.5074 17.7882 23.919 17.0728C23.3733 16.3185 22.3669 16.191 21.6547 16.7788Z" fill="#19473E"/>
<mask id="mask1_7983_2785" style="mask-type:luminance" maskUnits="userSpaceOnUse" x="10" y="14" width="17" height="12">
<path d="M10.7388 14.793H26.5721V25.5337H10.7388V14.793Z" fill="white"/>
</mask>
<g mask="url(#mask1_7983_2785)">
<path d="M36.6832 33.6888C36.6832 34.8645 35.7193 35.8279 34.543 35.8279H12.5442C11.3679 35.8279 10.4005 34.8645 10.4005 33.6888V32.5555H26.5663C29.3798 32.5555 32.19 30.3742 32.9059 27.5622L36.6408 13.634V33.6888H36.6832ZM4.60666 29.2833C4.26986 29.2833 3.85184 29.1984 3.6003 28.862C3.34856 28.568 3.30612 28.1076 3.4726 27.5622L7.75693 11.5341H33.8696L29.798 26.7229C29.4224 28.0651 27.9518 29.2833 26.6053 29.2833H4.60666ZM34.543 2.55664H32.7782L32.2751 4.40174C31.8144 6.08017 30.2197 7.3375 28.5364 7.3375C27.6152 7.3375 26.7328 6.96212 26.2297 6.24665C25.684 5.53484 25.5173 4.56802 25.7654 3.6473L26.0596 2.55664H20.3509L19.8476 4.40174C19.3869 6.08017 17.7888 7.3375 16.0702 7.3375C15.1452 7.3375 14.3054 6.96212 13.7596 6.24665C13.2139 5.53484 13.0474 4.56802 13.299 3.6473L13.5932 2.55664H11.7434C8.93324 2.55664 6.11978 4.73816 5.40392 7.54989L0.240921 26.7229C-0.180761 28.2351 0.0707822 29.7438 0.953112 30.8344C1.793 31.9253 3.09354 32.5555 4.56403 32.5555H7.12614V33.6888C7.12614 36.6672 9.56056 39.1 12.5407 39.1H34.543C37.5231 39.1 39.9576 36.6672 39.9576 33.6888V7.96791C39.9576 4.98951 37.5231 2.55664 34.543 2.55664Z" fill="#E09F00"/>
</g>
<path d="M21.6547 16.7788L16.9914 20.4725L16.1515 19.3394C15.6057 18.6239 14.5994 18.4574 13.8446 19.0029C13.1289 19.5483 12.9622 20.5541 13.5079 21.3118L15.3542 23.7873C15.6057 24.1627 16.0274 24.375 16.4456 24.4566H16.6582C17.0338 24.4566 17.3704 24.3326 17.6646 24.1237L23.6675 19.3818C24.3833 18.8365 24.5074 17.7882 23.919 17.0728C23.3733 16.3185 22.3669 16.191 21.6547 16.7788Z" fill="#E09F00"/>
</g>
<defs>
<clipPath id="clip0_7983_2785">
<rect width="40" height="40" fill="white"/>
</clipPath>
</defs>
</svg>
