<svg width="97" height="55" viewBox="0 0 97 55" fill="none" xmlns="http://www.w3.org/2000/svg">
<path d="M1.24891 45.6711C0.951897 45.8589 0.638227 46.0843 0.373356 46.2856C0.134093 46.4675 0 46.7534 0 47.0539V54C0 54.5523 0.447715 55 1 55H95.0377C95.59 55 96.0377 54.5542 96.0377 54.0019V20.2415C96.0377 20.0779 96.0805 19.9215 96.1538 19.7752C98.5961 14.9059 95.2046 12.1138 92.8898 11.1822C92.6661 11.0921 92.4736 10.938 92.352 10.7298L91.2641 8.86751C90.8754 8.20203 89.9158 8.21018 89.5559 8.89164C89.2393 9.49089 88.9128 10.1347 88.6726 10.6661C88.5615 10.9118 88.36 11.1095 88.1134 11.2183C82.5963 13.6527 83.6661 17.7133 85.0708 19.7222C85.1998 19.9066 85.2772 20.1224 85.2772 20.3473V39.4207C85.2772 39.7407 85.1084 40 84.7885 40C84.5026 40 84.1683 39.7845 84.1221 39.5024C79.8917 13.6527 59.217 5.26447 49.0236 4.24159C48.8035 4.2195 48.6031 4.12923 48.4403 3.97936L44.789 0.61759C44.4089 0.267673 43.8255 0.264474 43.4405 0.60901C42.2263 1.69576 40.4355 3.27705 39.4706 4.05565C39.343 4.15858 39.1857 4.2263 39.0244 4.25545C6.01648 10.2205 2.51517 38.2234 2.18419 44.2784C2.15405 44.8299 1.71571 45.3759 1.24891 45.6711Z" fill="#009788"/>
</svg>
