<svg width="48" height="34" viewBox="0 0 48 34" fill="none" xmlns="http://www.w3.org/2000/svg">
<path fill-rule="evenodd" clip-rule="evenodd" d="M40.3132 0.376954L24 0L7.68677 0.376954C4.39021 0.443821 1.59549 2.81587 0.999468 6.05288C-0.333156 13.2903 -0.333156 20.7097 0.999468 27.9471C1.59549 31.1841 4.3902 33.5562 7.68676 33.623L24 34L40.3132 33.623C43.6098 33.5562 46.4045 31.1841 47.0005 27.9471C48.3332 20.7097 48.3332 13.2903 47.0005 6.05288C46.4045 2.81587 43.6098 0.443821 40.3132 0.376954ZM44.4367 14.7333C44.4367 15.9852 43.42 16.9999 42.1659 16.9999H5.83402C4.57993 16.9999 3.56328 15.9852 3.56328 14.7333C3.56328 13.4815 4.57993 12.4667 5.83403 12.4667H42.1659C43.42 12.4667 44.4367 13.4815 44.4367 14.7333Z" fill="white"/>
</svg>
