<svg width="30" height="32" viewBox="0 0 30 32" fill="none" xmlns="http://www.w3.org/2000/svg">
<path fill-rule="evenodd" clip-rule="evenodd" d="M23.6074 31.0972C22.4268 30.6405 21.4201 30.0493 20.6272 29.495C18.8881 30.2135 16.9879 30.6088 15 30.6088C6.71573 30.6088 0 23.7567 0 15.3044C0 6.85201 6.71573 0 15 0C23.2842 0 30 6.85201 30 15.3044C30 18.4749 29.0536 21.4238 27.4335 23.868C27.3307 25.889 28.371 27.7151 29.4507 29.331C30.3964 30.7461 30.1591 31.8865 28.3958 31.9885C27.6055 32.0341 25.8959 31.9825 23.6074 31.0972ZM2.72727 15.3044C2.72727 8.3888 8.22196 2.78261 15 2.78261C21.7781 2.78261 27.2727 8.3888 27.2727 15.3044C27.2727 18.0178 26.4284 20.5261 24.9927 22.5756C24.3575 23.4828 24.6843 25.1824 24.9022 26.1581C25.1137 27.1052 25.5725 28.1115 26.0258 28.9563C25.5919 28.8496 25.106 28.701 24.5744 28.4954C23.3508 28.0219 22.3396 27.3564 21.6265 26.798C21.2217 26.481 20.6775 26.4212 20.2159 26.6427C18.6346 27.4014 16.8678 27.8261 15 27.8261C8.22196 27.8261 2.72727 22.22 2.72727 15.3044ZM8.18182 11.1305C7.42871 11.1305 6.81818 11.7534 6.81818 12.5218C6.81818 13.2902 7.42871 13.9131 8.18182 13.9131H21.8182C22.5713 13.9131 23.1818 13.2902 23.1818 12.5218C23.1818 11.7534 22.5713 11.1305 21.8182 11.1305H8.18182ZM8.18182 16.6957C7.42871 16.6957 6.81818 17.3186 6.81818 18.087C6.81818 18.8554 7.42871 19.4783 8.18182 19.4783H21.8182C22.5713 19.4783 23.1818 18.8554 23.1818 18.087C23.1818 17.3186 22.5713 16.6957 21.8182 16.6957H8.18182Z" fill="#979797"/>
</svg>
