<svg width="24" height="23" viewBox="0 0 24 23" fill="none" xmlns="http://www.w3.org/2000/svg">
<path d="M7.06234 20.5192C6.83143 20.5181 6.60258 20.5624 6.38887 20.6496L6.36631 20.6584L2.91292 21.904L2.88861 21.9128L2.86479 21.9228C2.81336 21.9444 2.75874 21.9575 2.70311 21.9615C2.62449 21.9569 2.55035 21.9236 2.49501 21.868C2.438 21.8107 2.40537 21.7343 2.40306 21.6544C2.4049 21.6147 2.41158 21.5753 2.42295 21.5371L2.4257 21.5278L2.42827 21.5186L3.37087 18.1146C3.52127 17.6065 3.32655 17.1824 3.2191 16.9934L3.21166 16.9799L3.19986 16.9585L3.18703 16.9377C3.17602 16.9198 3.16652 16.9057 3.16365 16.9014L3.16364 16.9014L3.15283 16.8855L3.13851 16.865L3.12005 16.8388C3.10809 16.8215 3.09561 16.8041 3.09003 16.7963L3.0822 16.7853L3.08018 16.7824L3.07992 16.7821L3.07952 16.7815L3.07961 16.7814L3.0715 16.7699L3.07059 16.7686C1.98976 15.128 1.41391 13.2074 1.41412 11.2438L1.41411 11.2406C1.40572 8.55868 2.45448 6.02429 4.3797 4.09411C6.37375 2.09982 9.03949 1 11.9051 1L11.9056 1C14.3315 0.998805 16.6853 1.82243 18.5794 3.3349C20.4285 4.82101 21.7087 6.88853 22.1905 9.15305L22.1911 9.1557C22.3396 9.8443 22.4143 10.5467 22.4141 11.251V11.2514C22.4141 14.0103 21.3543 16.5938 19.4301 18.5368L19.4297 18.5372C17.4909 20.497 14.8885 21.5751 12.0889 21.5751C11.1329 21.5751 9.84924 21.3228 9.2401 21.1512L9.23784 21.1506C8.54695 20.9577 7.88579 20.7095 7.71362 20.6449C7.70205 20.6406 7.6927 20.6371 7.68568 20.6344C7.48648 20.559 7.27534 20.52 7.06234 20.5192ZM7.06234 20.5192C7.06294 20.5192 7.06353 20.5192 7.06413 20.5192L7.05807 21.5192L7.06056 20.5192C7.06115 20.5192 7.06175 20.5192 7.06234 20.5192Z" stroke="#979797" stroke-width="2"/>
</svg>
