<svg width="50" height="50" viewBox="0 0 50 50" fill="none" xmlns="http://www.w3.org/2000/svg">
<path d="M43.6075 28.355C44.175 27.2775 44.5 26.0525 44.5 24.75C44.5 21.4395 42.4205 18.6215 39.4995 17.511C39.4995 17.5075 39.5 17.504 39.5 17.5C39.5 11.701 34.799 7 29 7C24.108 7 20.0095 10.3505 18.8435 14.8785C18.1055 14.636 17.319 14.5 16.5 14.5C12.654 14.5 9.4885 17.3965 9.055 21.126C6.453 21.6765 4.5 23.9845 4.5 26.75C4.5 29.9255 7.0745 32.5 10.25 32.5C10.3385 32.5 10.426 32.494 10.513 32.489C10.511 32.5765 10.5 32.662 10.5 32.75C10.5 38.411 15.089 43 20.75 43C23.9685 43 26.8375 41.514 28.717 39.193C29.806 40.3055 31.32 41 33 41C35.325 41 37.337 39.675 38.333 37.741C38.859 37.9085 39.4185 38 40 38C43.0375 38 45.5 35.5375 45.5 32.5C45.5 30.8445 44.765 29.3635 43.6075 28.355Z" fill="#C7EDE6"/>
<path d="M33.5625 23.75C33.5625 23.75 31.7425 23.75 30.5 23.75C29.2575 23.75 28.25 22.7425 28.25 21.5C28.25 20.3335 29.141 19.3855 30.2775 19.2725C30.2665 19.182 30.25 19.0935 30.25 19C30.25 17.7575 31.2575 16.75 32.5 16.75C33.219 16.75 33.8515 17.093 34.2635 17.618C34.3335 16.3 35.4145 15.25 36.75 15.25C38.1305 15.25 39.25 16.3695 39.25 17.75C39.25 17.973 39.2115 18.185 39.1565 18.391C39.4775 18.0025 39.9565 17.75 40.5 17.75C41.3905 17.75 42.117 18.4175 42.2275 19.2775C42.318 19.2665 42.4065 19.25 42.5 19.25C43.7425 19.25 44.75 20.2575 44.75 21.5C44.75 22.7425 43.7425 23.75 42.5 23.75C41.2575 23.75 37.75 23.75 37.75 23.75H35.0625V24H33.5625V23.75Z" fill="#FDFCEF"/>
<path d="M36.75 15C38.2665 15 39.5 16.2335 39.5 17.75C39.5 17.758 39.5 17.7655 39.5 17.7735C39.801 17.596 40.145 17.5 40.5 17.5C41.4155 17.5 42.2055 18.1305 42.429 19.0025C42.4525 19.001 42.476 19 42.5 19C43.8785 19 45 20.1215 45 21.5C45 22.8785 43.8785 24 42.5 24H35.0625C34.9245 24 34.8125 23.888 34.8125 23.75C34.8125 23.612 34.9245 23.5 35.0625 23.5H42.5C43.603 23.5 44.5 22.603 44.5 21.5C44.5 20.397 43.603 19.5 42.5 19.5C42.4415 19.5 42.385 19.5085 42.3285 19.516L42.258 19.5255C42.2475 19.527 42.2375 19.5275 42.227 19.5275C42.104 19.5275 41.996 19.435 41.9795 19.309C41.884 18.5625 41.248 18 40.5 18C40.0575 18 39.6385 18.2005 39.3495 18.55C39.3005 18.609 39.229 18.641 39.1565 18.641C39.1175 18.641 39.0785 18.632 39.0425 18.613C38.938 18.5595 38.8855 18.44 38.9155 18.3265C38.973 18.109 39 17.926 39 17.75C39 16.5095 37.9905 15.5 36.75 15.5C35.5595 15.5 34.5765 16.436 34.513 17.6315C34.5075 17.7355 34.438 17.825 34.3385 17.8565C34.3135 17.8645 34.288 17.8685 34.2625 17.8685C34.1875 17.8685 34.1145 17.834 34.0665 17.7725C33.681 17.2815 33.1105 17 32.5 17C31.397 17 30.5 17.897 30.5 19C30.5 19.0585 30.5085 19.115 30.516 19.1715L30.5255 19.242C30.5335 19.309 30.5145 19.376 30.4725 19.4285C30.4305 19.481 30.369 19.5145 30.3025 19.521C29.2745 19.6235 28.5 20.4745 28.5 21.5C28.5 22.603 29.397 23.5 30.5 23.5H33.5625C33.7005 23.5 33.8125 23.612 33.8125 23.75C33.8125 23.888 33.7005 24 33.5625 24H30.5C29.1215 24 28 22.8785 28 21.5C28 20.3015 28.8445 19.2935 30.0015 19.0615C30.0005 19.041 30 19.0205 30 19C30 17.6215 31.1215 16.5 32.5 16.5C33.088 16.5 33.6465 16.708 34.0915 17.082C34.3905 15.88 35.4725 15 36.75 15Z" fill="#472B29"/>
<path d="M37.4998 18.5C38.2013 18.5 38.8043 18.9995 38.9563 19.6705C39.1398 19.5595 39.3493 19.5 39.5623 19.5C40.1633 19.5 40.6613 19.9485 40.7388 20.534C40.8403 20.511 40.9368 20.5 41.0313 20.5C41.7958 20.5 42.4368 21.1 42.4903 21.866C42.4948 21.935 42.4428 21.995 42.3743 22C42.3713 22 42.3683 22 42.3653 22C42.3003 22 42.2453 21.9495 42.2408 21.884C42.1963 21.2485 41.6653 20.75 41.0313 20.75C40.9168 20.75 40.7963 20.771 40.6623 20.8135C40.6513 20.817 40.6398 20.8185 40.6288 20.8185C40.6013 20.8185 40.5738 20.8085 40.5508 20.7915C40.5188 20.7685 40.4998 20.7275 40.4998 20.6875C40.4998 20.1705 40.0793 19.75 39.5623 19.75C39.3388 19.75 39.1198 19.834 38.9468 19.9865C38.9233 20.007 38.8938 20.018 38.8643 20.018C38.8483 20.018 38.8328 20.015 38.8178 20.0085C38.7738 19.991 38.7438 19.95 38.7403 19.9025C38.6883 19.256 38.1438 18.75 37.4998 18.75C37.3958 18.75 37.2873 18.767 37.1588 18.8035C37.1473 18.807 37.1353 18.8085 37.1238 18.8085C37.0693 18.8085 37.0203 18.772 37.0043 18.7175C36.9853 18.651 37.0238 18.582 37.0903 18.563C37.2413 18.52 37.3718 18.5 37.4998 18.5ZM30.5583 19.25C31.2213 19.25 31.8123 19.6985 31.9953 20.341C32.0143 20.4075 31.9758 20.4765 31.9093 20.4955C31.8973 20.4985 31.8858 20.5 31.8748 20.5C31.8203 20.5 31.7703 20.464 31.7548 20.409C31.6023 19.874 31.1103 19.5 30.5583 19.5C30.4998 19.5 30.4433 19.507 30.3873 19.5145C30.3813 19.5155 30.3758 19.516 30.3698 19.516C30.3093 19.516 30.2553 19.47 30.2468 19.4075C30.2373 19.339 30.2853 19.276 30.3538 19.267C30.4208 19.258 30.4888 19.25 30.5583 19.25Z" fill="#472B29"/>
<path d="M7.7025 25.5H2.75C2.612 25.5 2.5 25.388 2.5 25.25C2.5 25.112 2.612 25 2.75 25H7.7025C7.8405 25 7.9525 25.112 7.9525 25.25C7.9525 25.388 7.841 25.5 7.7025 25.5ZM9.25 25.5H8.75C8.612 25.5 8.5 25.388 8.5 25.25C8.5 25.112 8.612 25 8.75 25H9.25C9.388 25 9.5 25.112 9.5 25.25C9.5 25.388 9.3885 25.5 9.25 25.5ZM11.7455 26.5H7.25C7.112 26.5 7 26.388 7 26.25C7 26.112 7.112 26 7.25 26H11.7455C11.8835 26 11.9955 26.112 11.9955 26.25C11.9955 26.388 11.8835 26.5 11.7455 26.5ZM6.25 26.5H5.75C5.612 26.5 5.5 26.388 5.5 26.25C5.5 26.112 5.612 26 5.75 26H6.25C6.388 26 6.5 26.112 6.5 26.25C6.5 26.388 6.3885 26.5 6.25 26.5ZM4.75 26.5H3.75C3.612 26.5 3.5 26.388 3.5 26.25C3.5 26.112 3.612 26 3.75 26H4.75C4.888 26 5 26.112 5 26.25C5 26.388 4.8885 26.5 4.75 26.5ZM7.75 27.5H6.75C6.612 27.5 6.5 27.388 6.5 27.25C6.5 27.112 6.612 27 6.75 27H7.75C7.888 27 8 27.112 8 27.25C8 27.388 7.888 27.5 7.75 27.5ZM9.25 23C9.1615 23 8.8385 23 8.75 23C8.612 23 8.5 23.112 8.5 23.25C8.5 23.388 8.612 23.5 8.75 23.5C8.8385 23.5 9.1615 23.5 9.25 23.5C9.388 23.5 9.5 23.388 9.5 23.25C9.5 23.112 9.388 23 9.25 23ZM9.25 24C9.1615 24 6.8385 24 6.75 24C6.612 24 6.5 24.112 6.5 24.25C6.5 24.388 6.612 24.5 6.75 24.5C6.8385 24.5 9.1615 24.5 9.25 24.5C9.388 24.5 9.5 24.388 9.5 24.25C9.5 24.112 9.388 24 9.25 24ZM11.75 25C11.6615 25 10.3385 25 10.25 25C10.112 25 10 25.112 10 25.25C10 25.388 10.112 25.5 10.25 25.5C10.3385 25.5 11.6615 25.5 11.75 25.5C11.888 25.5 12 25.388 12 25.25C12 25.112 11.888 25 11.75 25ZM35.25 11H30.25C30.112 11 30 10.888 30 10.75C30 10.612 30.112 10.5 30.25 10.5H35.25C35.388 10.5 35.5 10.612 35.5 10.75C35.5 10.888 35.388 11 35.25 11ZM37.25 11H36.25C36.112 11 36 10.888 36 10.75C36 10.612 36.112 10.5 36.25 10.5H37.25C37.388 10.5 37.5 10.612 37.5 10.75C37.5 10.888 37.388 11 37.25 11ZM39.75 12H34.75C34.612 12 34.5 11.888 34.5 11.75C34.5 11.612 34.612 11.5 34.75 11.5H39.75C39.888 11.5 40 11.612 40 11.75C40 11.888 39.8885 12 39.75 12ZM33.75 12H33.25C33.112 12 33 11.888 33 11.75C33 11.612 33.112 11.5 33.25 11.5H33.75C33.888 11.5 34 11.612 34 11.75C34 11.888 33.888 12 33.75 12ZM32.1875 12H31.25C31.112 12 31 11.888 31 11.75C31 11.612 31.112 11.5 31.25 11.5H32.1875C32.3255 11.5 32.4375 11.612 32.4375 11.75C32.4375 11.888 32.3255 12 32.1875 12ZM36.75 10H34.25C34.112 10 34 9.888 34 9.75C34 9.612 34.112 9.5 34.25 9.5H36.75C36.888 9.5 37 9.612 37 9.75C37 9.888 36.8885 10 36.75 10ZM35.25 13H34.25C34.112 13 34 12.888 34 12.75C34 12.612 34.112 12.5 34.25 12.5H35.25C35.388 12.5 35.5 12.612 35.5 12.75C35.5 12.888 35.388 13 35.25 13Z" fill="white"/>
<path d="M19.0766 37.1496C17.8486 37.1496 16.8501 36.1661 16.8501 34.9571V17.0421C16.8501 15.8331 17.8491 14.8496 19.0766 14.8496H28.3816L34.1501 20.5411V34.9571C34.1501 36.1661 33.1511 37.1496 31.9236 37.1496H19.0766Z" fill="#FEFDEF"/>
<path d="M28.2385 15.2L30.316 17.2495L33.8 20.6875V34.9575C33.8 35.9735 32.958 36.7995 31.9235 36.7995H19.0765C18.0415 36.7995 17.2 35.973 17.2 34.9575V17.042C17.2 16.026 18.042 15.2 19.0765 15.2H19.4505H20.2865H22.973H28.2385ZM28.5255 14.5H22.9735H20.287H19.451H19.077C17.6595 14.5 16.5 15.644 16.5 17.042V34.9575C16.5 36.356 17.6595 37.5 19.0765 37.5H31.923C33.3405 37.5 34.4995 36.356 34.4995 34.958V20.395C32.176 18.1025 30.849 16.7925 28.5255 14.5Z" fill="#472B29"/>
<path d="M28.25 15.0625V17.8725C28.25 19.1805 29.2455 20.25 30.462 20.25H33.5625" fill="#FEF6AA"/>
<path d="M33.5625 20.5H30.462C29.1045 20.5 28 19.3215 28 17.872V15.0625H28.5V17.872C28.5 19.0455 29.38 20 30.462 20H33.5625V20.5ZM31.55 36H19.4585C18.654 36 18 35.3575 18 34.568V17.674C18 16.889 18.6505 16.25 19.45 16.25H20.25C20.388 16.25 20.5 16.362 20.5 16.5C20.5 16.638 20.388 16.75 20.25 16.75H19.45C18.926 16.75 18.5 17.1645 18.5 17.674V34.568C18.5 35.082 18.93 35.5 19.4585 35.5H31.55C32.074 35.5 32.5 35.0855 32.5 34.576V27.6445C32.5 27.5065 32.612 27.3945 32.75 27.3945C32.888 27.3945 33 27.5065 33 27.6445V34.576C33 35.3615 32.3495 36 31.55 36ZM32.75 26.5C32.612 26.5 32.5 26.388 32.5 26.25V24.25C32.5 24.112 32.612 24 32.75 24C32.888 24 33 24.112 33 24.25V26.25C33 26.388 32.888 26.5 32.75 26.5ZM32.75 23.5C32.612 23.5 32.5 23.388 32.5 23.25V21.75C32.5 21.612 32.612 21.5 32.75 21.5C32.888 21.5 33 21.612 33 21.75V23.25C33 23.388 32.888 23.5 32.75 23.5Z" fill="#472B29"/>
<path d="M25.25 22.875H20.25C20.181 22.875 20.125 22.819 20.125 22.75C20.125 22.681 20.181 22.625 20.25 22.625H25.25C25.319 22.625 25.375 22.681 25.375 22.75C25.375 22.819 25.319 22.875 25.25 22.875ZM25.25 24.875H20.25C20.181 24.875 20.125 24.819 20.125 24.75C20.125 24.681 20.181 24.625 20.25 24.625H25.25C25.319 24.625 25.375 24.681 25.375 24.75C25.375 24.819 25.319 24.875 25.25 24.875ZM25.25 26.875H20.25C20.181 26.875 20.125 26.819 20.125 26.75C20.125 26.681 20.181 26.625 20.25 26.625H25.25C25.319 26.625 25.375 26.681 25.375 26.75C25.375 26.819 25.319 26.875 25.25 26.875ZM23.75 28.875H20.25C20.181 28.875 20.125 28.819 20.125 28.75C20.125 28.681 20.181 28.625 20.25 28.625H23.75C23.819 28.625 23.875 28.681 23.875 28.75C23.875 28.819 23.819 28.875 23.75 28.875ZM25.25 30.875H20.25C20.181 30.875 20.125 30.819 20.125 30.75C20.125 30.681 20.181 30.625 20.25 30.625H25.25C25.319 30.625 25.375 30.681 25.375 30.75C25.375 30.819 25.319 30.875 25.25 30.875ZM25.75 32.875H20.25C20.181 32.875 20.125 32.819 20.125 32.75C20.125 32.681 20.181 32.625 20.25 32.625H25.75C25.819 32.625 25.875 32.681 25.875 32.75C25.875 32.819 25.819 32.875 25.75 32.875ZM30.75 32.875H26.75C26.681 32.875 26.625 32.819 26.625 32.75C26.625 32.681 26.681 32.625 26.75 32.625H30.75C30.819 32.625 30.875 32.681 30.875 32.75C30.875 32.819 30.819 32.875 30.75 32.875ZM30.75 28.875H24.75C24.681 28.875 24.625 28.819 24.625 28.75C24.625 28.681 24.681 28.625 24.75 28.625H30.75C30.819 28.625 30.875 28.681 30.875 28.75C30.875 28.819 30.819 28.875 30.75 28.875ZM30.75 30.875H28.75C28.681 30.875 28.625 30.819 28.625 30.75C28.625 30.681 28.681 30.625 28.75 30.625H30.75C30.819 30.625 30.875 30.681 30.875 30.75C30.875 30.819 30.819 30.875 30.75 30.875ZM27.75 30.875H25.75C25.681 30.875 25.625 30.819 25.625 30.75C25.625 30.681 25.681 30.625 25.75 30.625H27.75C27.819 30.625 27.875 30.681 27.875 30.75C27.875 30.819 27.819 30.875 27.75 30.875Z" fill="#472B29"/>
<path d="M26.25 27.5V22.75H30.75V27.25H28" fill="#FEF6AA"/>
<path d="M26.375 27.5H26.125V22.625H30.875V27.375H28V27.125H30.625V22.875H26.375V27.5Z" fill="#472B29"/>
<path d="M18.75 39.25C18.75 39.25 19.5335 39.25 20.5 39.25C21.4665 39.25 22.25 38.4665 22.25 37.5C22.25 36.6095 21.5825 35.883 20.7225 35.7725C20.7365 35.683 20.75 35.5935 20.75 35.5C20.75 34.5335 19.9665 33.75 19 33.75C18.484 33.75 18.025 33.9775 17.705 34.3325C17.513 33.4285 16.7115 32.75 15.75 32.75C14.6455 32.75 13.75 33.6455 13.75 34.75C13.75 34.8455 13.765 34.937 13.778 35.029C13.564 34.857 13.296 34.75 13 34.75C12.386 34.75 11.8775 35.1935 11.7725 35.7775C11.683 35.7635 11.5935 35.75 11.5 35.75C10.5335 35.75 9.75 36.5335 9.75 37.5C9.75 38.4665 10.5335 39.25 11.5 39.25C12.4665 39.25 15.25 39.25 15.25 39.25V39.5H18.75V39.25Z" fill="#FDFCEF"/>
<path d="M19.625 36.9996C19.556 36.9996 19.5 36.9436 19.5 36.8746C19.5 36.2631 19.9975 35.7656 20.609 35.7656C20.626 35.7701 20.9775 35.7651 21.231 35.8336C21.2975 35.8516 21.337 35.9201 21.319 35.9866C21.301 36.0536 21.2325 36.0931 21.166 36.0746C20.944 36.0146 20.616 36.0146 20.6095 36.0156C20.1355 36.0156 19.75 36.4011 19.75 36.8746C19.75 36.9436 19.694 36.9996 19.625 36.9996Z" fill="#472B29"/>
<path d="M16.25 39C16.1837 39 16.1201 39.0263 16.0732 39.0732C16.0263 39.1201 16 39.1837 16 39.25C16 39.3163 16.0263 39.3799 16.0732 39.4268C16.1201 39.4737 16.1837 39.5 16.25 39.5C16.3163 39.5 16.3799 39.4737 16.4268 39.4268C16.4737 39.3799 16.5 39.3163 16.5 39.25C16.5 39.1837 16.4737 39.1201 16.4268 39.0732C16.3799 39.0263 16.3163 39 16.25 39Z" fill="#472B29"/>
<path d="M20.5 39.5H18.75C18.612 39.5 18.5 39.388 18.5 39.25C18.5 39.112 18.612 39 18.75 39H20.5C21.327 39 22 38.327 22 37.5C22 36.752 21.4375 36.116 20.691 36.0205C20.624 36.0115 20.5635 35.9765 20.523 35.9225C20.4825 35.8685 20.4655 35.8005 20.476 35.734C20.4875 35.657 20.5 35.58 20.5 35.5C20.5 34.673 19.827 34 19 34C18.575 34 18.181 34.1775 17.8905 34.5C17.828 34.5695 17.73 34.599 17.6405 34.574C17.5495 34.5495 17.48 34.4765 17.4605 34.3845C17.29 33.5825 16.5705 33 15.75 33C14.785 33 14 33.785 14 34.75C14 34.8215 14.0105 34.89 14.0205 34.959C14.035 35.0605 13.989 35.178 13.8995 35.229C13.81 35.28 13.7015 35.288 13.6215 35.224C13.439 35.0775 13.2245 35 13 35C12.517 35 12.104 35.3455 12.0185 35.822C11.9945 35.9555 11.8705 36.045 11.734 36.0245C11.657 36.0125 11.58 36 11.5 36C10.673 36 10 36.673 10 37.5C10 38.327 10.673 39 11.5 39H15.25C15.388 39 15.5 39.112 15.5 39.25C15.5 39.388 15.388 39.5 15.25 39.5H11.5C10.397 39.5 9.5 38.603 9.5 37.5C9.5 36.397 10.397 35.5 11.5 35.5C11.5295 35.5 11.558 35.501 11.587 35.503C11.794 34.91 12.3555 34.5 13 34.5C13.1745 34.5 13.3445 34.5305 13.5055 34.59C13.588 33.4235 14.563 32.5 15.75 32.5C16.6655 32.5 17.483 33.0635 17.8265 33.887C18.1665 33.638 18.5775 33.5 19 33.5C20.103 33.5 21 34.397 21 35.5C21 35.524 20.9995 35.5475 20.998 35.571C21.8695 35.795 22.5 36.5845 22.5 37.5C22.5 38.603 21.603 39.5 20.5 39.5Z" fill="#472B29"/>
<path d="M17.75 39C17.6705 39 17.3295 39 17.25 39C17.112 39 17 39.112 17 39.25C17 39.388 17.112 39.5 17.25 39.5C17.3295 39.5 17.6705 39.5 17.75 39.5C17.888 39.5 18 39.388 18 39.25C18 39.112 17.888 39 17.75 39Z" fill="#472B29"/>
</svg>
