<svg width="26" height="25" viewBox="0 0 26 25" fill="none" xmlns="http://www.w3.org/2000/svg">
<path fill-rule="evenodd" clip-rule="evenodd" d="M10.2025 0C7.11253 0 4.60759 2.49711 4.60759 5.57744C4.60759 8.65778 7.11253 11.1549 10.2025 11.1549C13.2925 11.1549 15.7975 8.65778 15.7975 5.57744C15.7975 2.49711 13.2925 0 10.2025 0ZM6.58228 5.57744C6.58228 3.58428 8.20312 1.96851 10.2025 1.96851C12.2019 1.96851 13.8228 3.58428 13.8228 5.57744C13.8228 7.5706 12.2019 9.18637 10.2025 9.18637C8.20312 9.18637 6.58228 7.5706 6.58228 5.57744Z" fill="#979797"/>
<path d="M1.97468 18.0447C1.97468 16.4139 3.30083 15.0919 4.93671 15.0919H5.38545C5.42014 15.0919 5.45462 15.0974 5.48761 15.1081L6.62702 15.479C7.52159 15.7702 8.443 15.9493 9.37059 16.0162C9.56579 16.0303 9.7371 15.8936 9.78121 15.7035C9.8807 15.2748 10.0103 14.8575 10.1677 14.4541C10.2371 14.276 10.1066 14.0791 9.91499 14.0734C9.01113 14.0462 8.11021 13.891 7.23996 13.6077L6.10055 13.2368C5.86967 13.1617 5.62832 13.1234 5.38545 13.1234H4.93671C2.21024 13.1234 0 15.3267 0 18.0447V19.6041C0 20.5926 0.718632 21.4354 1.69727 21.5947C4.53837 22.0571 7.40793 22.2863 10.2772 22.2822C10.4775 22.2819 10.6032 22.0663 10.5136 21.8878C10.3203 21.5028 10.1533 21.1022 10.0151 20.6887C9.94111 20.4675 9.73766 20.3122 9.50378 20.309C6.99888 20.2746 4.4959 20.0556 2.01545 19.6519C1.99195 19.6481 1.97468 19.6278 1.97468 19.6041V18.0447Z" fill="#979797"/>
<path d="M19.7468 15.8136C19.7468 15.27 19.3048 14.8294 18.7595 14.8294C18.2142 14.8294 17.7722 15.27 17.7722 15.8136V18.14C17.7722 18.4549 17.9233 18.7508 18.1788 18.936L19.4952 19.8905C19.9362 20.2102 20.5537 20.113 20.8744 19.6734C21.1952 19.2338 21.0977 18.6182 20.6567 18.2985L19.7468 17.6388V15.8136Z" fill="#979797"/>
<path fill-rule="evenodd" clip-rule="evenodd" d="M18.7595 25C22.7583 25 26 21.7685 26 17.7821C26 13.7958 22.7583 10.5643 18.7595 10.5643C14.7607 10.5643 11.519 13.7958 11.519 17.7821C11.519 21.7685 14.7607 25 18.7595 25ZM18.7595 23.0315C21.6677 23.0315 24.0253 20.6813 24.0253 17.7821C24.0253 14.883 21.6677 12.5328 18.7595 12.5328C15.8513 12.5328 13.4937 14.883 13.4937 17.7821C13.4937 20.6813 15.8513 23.0315 18.7595 23.0315Z" fill="#979797"/>
</svg>
