<svg width="20" height="20" viewBox="0 0 20 20" fill="none" xmlns="http://www.w3.org/2000/svg">
<g clip-path="url(#clip0_58_559)">
<path d="M19.1667 14.1666C19.1667 16.925 16.925 19.1666 14.1667 19.1666V17.9166C16.2333 17.9166 17.9167 16.2333 17.9167 14.1666H19.1667ZM0.833333 5.83331C0.833333 3.07498 3.075 0.833313 5.83333 0.833313V2.08331C3.76667 2.08331 2.08333 3.76665 2.08333 5.83331H0.833333ZM6.675 3.59998L2.84167 7.43331C0.158333 10.1166 0.158333 14.475 2.84167 17.1583C5.525 19.8416 9.88333 19.8416 12.5667 17.1583L18.4583 11.2666C18.8667 10.8583 18.8667 10.2 18.4583 9.79165C18.3616 9.69464 18.2466 9.61767 18.1201 9.56516C17.9935 9.51265 17.8578 9.48562 17.7208 9.48562C17.5838 9.48562 17.4481 9.51265 17.3216 9.56516C17.195 9.61767 17.0801 9.69464 16.9833 9.79165L13.3 13.475L12.7083 12.8833L18.1583 7.43331C18.5667 7.02498 18.5667 6.36665 18.1583 5.95831C17.75 5.54998 17.0917 5.54998 16.6833 5.95831L11.825 10.8166L11.2333 10.225L16.975 4.48331C17.3833 4.07498 17.3833 3.41665 16.975 3.00831C16.5667 2.59998 15.9083 2.59998 15.5 3.00831L9.75833 8.74998L9.18333 8.16665L13.75 3.59998C14.1583 3.19165 14.1583 2.53331 13.75 2.12498C13.3417 1.71665 12.6833 1.71665 12.275 2.12498L5.925 8.47498C6.42272 9.11613 6.6694 9.91685 6.61877 10.7269C6.56814 11.537 6.22368 12.3008 5.65 12.875L5.05833 12.2833C5.5265 11.8146 5.78947 11.1791 5.78947 10.5166C5.78947 9.85414 5.5265 9.21873 5.05833 8.74998L4.76667 8.45831L8.15833 5.06665C8.56667 4.65831 8.56667 3.99998 8.15833 3.59165C7.95934 3.39834 7.69239 3.2909 7.41496 3.29246C7.13754 3.29401 6.87181 3.40445 6.675 3.59998Z" fill="#006557"/>
</g>
<defs>
<clipPath id="clip0_58_559">
<rect width="20" height="20" fill="white"/>
</clipPath>
</defs>
</svg>
