<svg width="31" height="25" viewBox="0 0 31 25" fill="none" xmlns="http://www.w3.org/2000/svg">
<path d="M11 2C8.06042 2 5.67742 4.3433 5.67742 7.23392C5.67742 10.1245 8.06042 12.4678 11 12.4678C13.9396 12.4678 16.3226 10.1245 16.3226 7.23392C16.3226 4.3433 13.9396 2 11 2Z" fill="#19473E"/>
<path d="M5.32258 15.2593C2.383 15.2593 0 17.6026 0 20.4932V22.1517C0 23.203 0.774803 24.0993 1.82993 24.2687C7.90311 25.2438 14.0969 25.2438 20.1701 24.2687C21.2252 24.0993 22 23.203 22 22.1517V20.4932C22 17.6026 19.617 15.2593 16.6774 15.2593H16.1936C15.9317 15.2593 15.6715 15.3 15.4226 15.3799L14.1941 15.7744C12.1186 16.4408 9.88136 16.4408 7.80586 15.7744L6.57739 15.3799C6.32847 15.3 6.06825 15.2593 5.80639 15.2593H5.32258Z" fill="#19473E"/>
<path fill-rule="evenodd" clip-rule="evenodd" d="M19.9683 7.88844C18.4337 4.12148 21.2049 0 25.2725 0H25.4987C28.537 0 31 2.46302 31 5.5013C31 8.89507 28.2488 11.6463 24.855 11.6463H19.3519C19.2026 11.6463 19.0695 11.552 19.02 11.4112C18.9704 11.2704 19.0151 11.1136 19.1316 11.0201L20.5189 9.90593C20.6402 9.8085 20.6831 9.64294 20.6244 9.49884L19.9683 7.88844ZM25.2205 3.99253C25.5481 3.99253 25.8137 3.72694 25.8137 3.39932C25.8137 3.07169 25.5481 2.8061 25.2205 2.8061C24.8929 2.8061 24.6273 3.07169 24.6273 3.39932C24.6273 3.72694 24.8929 3.99253 25.2205 3.99253ZM25.6654 5.47556C25.6654 5.22984 25.4662 5.03065 25.2205 5.03065C24.9748 5.03065 24.7756 5.22984 24.7756 5.47556V8.44162C24.7756 8.68734 24.9748 8.88653 25.2205 8.88653C25.4662 8.88653 25.6654 8.68734 25.6654 8.44162V5.47556Z" fill="#E7B900"/>
</svg>
