<svg width="25" height="20" viewBox="0 0 25 20" fill="none" xmlns="http://www.w3.org/2000/svg">
<path d="M1.66667 12.8333H4.5C5.27917 12.8333 5.91667 12.1958 5.91667 11.4167V8.58333C5.91667 7.80417 5.27917 7.16667 4.5 7.16667H1.66667C0.8875 7.16667 0.25 7.80417 0.25 8.58333V11.4167C0.25 12.1958 0.8875 12.8333 1.66667 12.8333ZM1.66667 19.9167H4.5C5.27917 19.9167 5.91667 19.2792 5.91667 18.5V15.6667C5.91667 14.8875 5.27917 14.25 4.5 14.25H1.66667C0.8875 14.25 0.25 14.8875 0.25 15.6667V18.5C0.25 19.2792 0.8875 19.9167 1.66667 19.9167ZM1.66667 5.75H4.5C5.27917 5.75 5.91667 5.1125 5.91667 4.33333V1.5C5.91667 0.720833 5.27917 0.083333 4.5 0.083333H1.66667C0.8875 0.083333 0.25 0.720833 0.25 1.5V4.33333C0.25 5.1125 0.8875 5.75 1.66667 5.75ZM8.75 12.8333H22.9167C23.6958 12.8333 24.3333 12.1958 24.3333 11.4167V8.58333C24.3333 7.80417 23.6958 7.16667 22.9167 7.16667H8.75C7.97083 7.16667 7.33333 7.80417 7.33333 8.58333V11.4167C7.33333 12.1958 7.97083 12.8333 8.75 12.8333ZM8.75 19.9167H22.9167C23.6958 19.9167 24.3333 19.2792 24.3333 18.5V15.6667C24.3333 14.8875 23.6958 14.25 22.9167 14.25H8.75C7.97083 14.25 7.33333 14.8875 7.33333 15.6667V18.5C7.33333 19.2792 7.97083 19.9167 8.75 19.9167ZM7.33333 1.5V4.33333C7.33333 5.1125 7.97083 5.75 8.75 5.75H22.9167C23.6958 5.75 24.3333 5.1125 24.3333 4.33333V1.5C24.3333 0.720833 23.6958 0.083333 22.9167 0.083333H8.75C7.97083 0.083333 7.33333 0.720833 7.33333 1.5Z" fill="#1E5B50"/>
</svg>
