<svg width="60" height="52" viewBox="0 0 60 52" fill="none" xmlns="http://www.w3.org/2000/svg">
<path d="M7.11172 0H52.8883C53.8147 0 54.5918 0.312 55.2196 0.936C55.8474 1.56 56.1602 2.33133 56.158 3.25C56.1559 4.16867 55.842 4.94108 55.2163 5.56725C54.5907 6.19341 53.8147 6.50433 52.8883 6.5H7.11172C6.18529 6.5 5.40926 6.188 4.78365 5.564C4.15804 4.94 3.84414 4.16867 3.84196 3.25C3.83978 2.33133 4.15368 1.56 4.78365 0.936C5.41362 0.312 6.18965 0 7.11172 0ZM7.11172 52C6.18529 52 5.40926 51.688 4.78365 51.064C4.15804 50.44 3.84414 49.6687 3.84196 48.75V32.5H3.26976C2.23433 32.5 1.38965 32.1067 0.735695 31.3202C0.081744 30.5337 -0.13624 29.627 0.0817438 28.6L3.3515 12.35C3.51499 11.5917 3.89646 10.9687 4.49591 10.4812C5.09537 9.99375 5.77657 9.75 6.53951 9.75H53.4605C54.2234 9.75 54.9046 9.99375 55.5041 10.4812C56.1035 10.9687 56.485 11.5917 56.6485 12.35L59.9183 28.6C60.1362 29.6292 59.9183 30.5359 59.2643 31.3202C58.6104 32.1046 57.7657 32.4978 56.7302 32.5H56.158V48.75C56.158 49.6708 55.8441 50.4432 55.2163 51.0672C54.5886 51.6912 53.8125 52.0022 52.8883 52C51.964 51.9978 51.188 51.6858 50.5602 51.064C49.9324 50.4422 49.6185 49.6708 49.6185 48.75V32.5H36.5395V48.75C36.5395 49.6708 36.2256 50.4432 35.5978 51.0672C34.97 51.6912 34.194 52.0022 33.2698 52H7.11172ZM10.3815 45.5H30V32.5H10.3815V45.5ZM7.27521 26H52.7248L50.7629 16.25H9.23706L7.27521 26Z" fill="white"/>
</svg>
