<svg width="40" height="32" viewBox="0 0 40 32" fill="none" xmlns="http://www.w3.org/2000/svg">
<mask id="mask0_6979_52511" style="mask-type:alpha" maskUnits="userSpaceOnUse" x="0" y="0" width="40" height="32">
<rect width="40" height="32" fill="#D9D9D9"/>
</mask>
<g mask="url(#mask0_6979_52511)">
<path d="M24.6364 14.7273V11.6364C25.6364 11.2121 26.6591 10.8939 27.7045 10.6818C28.75 10.4697 29.8485 10.3636 31 10.3636C31.7879 10.3636 32.5606 10.4242 33.3182 10.5455C34.0758 10.6667 34.8182 10.8182 35.5455 11V13.9091C34.8182 13.6364 34.0833 13.4318 33.3409 13.2955C32.5985 13.1591 31.8182 13.0909 31 13.0909C29.8485 13.0909 28.7424 13.2348 27.6818 13.5227C26.6212 13.8106 25.6061 14.2121 24.6364 14.7273ZM24.6364 24.7273V21.6364C25.6364 21.2121 26.6591 20.8939 27.7045 20.6818C28.75 20.4697 29.8485 20.3636 31 20.3636C31.7879 20.3636 32.5606 20.4242 33.3182 20.5455C34.0758 20.6667 34.8182 20.8182 35.5455 21V23.9091C34.8182 23.6364 34.0833 23.4318 33.3409 23.2955C32.5985 23.1591 31.8182 23.0909 31 23.0909C29.8485 23.0909 28.7424 23.2273 27.6818 23.5C26.6212 23.7727 25.6061 24.1818 24.6364 24.7273ZM24.6364 19.7273V16.6364C25.6364 16.2121 26.6591 15.8939 27.7045 15.6818C28.75 15.4697 29.8485 15.3636 31 15.3636C31.7879 15.3636 32.5606 15.4242 33.3182 15.5455C34.0758 15.6667 34.8182 15.8182 35.5455 16V18.9091C34.8182 18.6364 34.0833 18.4318 33.3409 18.2955C32.5985 18.1591 31.8182 18.0909 31 18.0909C29.8485 18.0909 28.7424 18.2348 27.6818 18.5227C26.6212 18.8106 25.6061 19.2121 24.6364 19.7273ZM11 25.8182C12.4242 25.8182 13.8106 25.9773 15.1591 26.2955C16.5076 26.6136 17.8485 27.0909 19.1818 27.7273V9.81818C17.9394 9.09091 16.6212 8.54545 15.2273 8.18182C13.8333 7.81818 12.4242 7.63636 11 7.63636C9.90909 7.63636 8.82576 7.74242 7.75 7.95455C6.67424 8.16667 5.63636 8.48485 4.63636 8.90909V26.9091C5.69697 26.5455 6.75 26.2727 7.79545 26.0909C8.84091 25.9091 9.90909 25.8182 11 25.8182ZM22.8182 27.7273C24.1515 27.0909 25.4924 26.6136 26.8409 26.2955C28.1894 25.9773 29.5758 25.8182 31 25.8182C32.0909 25.8182 33.1591 25.9091 34.2045 26.0909C35.25 26.2727 36.303 26.5455 37.3636 26.9091V8.90909C36.3636 8.48485 35.3258 8.16667 34.25 7.95455C33.1742 7.74242 32.0909 7.63636 31 7.63636C29.5758 7.63636 28.1667 7.81818 26.7727 8.18182C25.3788 8.54545 24.0606 9.09091 22.8182 9.81818V27.7273ZM21 33.0909C19.5455 31.9394 17.9697 31.0455 16.2727 30.4091C14.5758 29.7727 12.8182 29.4545 11 29.4545C9.72727 29.4545 8.47727 29.6212 7.25 29.9545C6.02273 30.2879 4.84848 30.7576 3.72727 31.3636C3.09091 31.697 2.47727 31.6818 1.88636 31.3182C1.29545 30.9545 1 30.4242 1 29.7273V7.81818C1 7.48485 1.08333 7.16667 1.25 6.86364C1.41667 6.56061 1.66667 6.33333 2 6.18182C3.39394 5.45455 4.84848 4.90909 6.36364 4.54545C7.87879 4.18182 9.42424 4 11 4C12.7576 4 14.4773 4.22727 16.1591 4.68182C17.8409 5.13636 19.4545 5.81818 21 6.72727C22.5455 5.81818 24.1591 5.13636 25.8409 4.68182C27.5227 4.22727 29.2424 4 31 4C32.5758 4 34.1212 4.18182 35.6364 4.54545C37.1515 4.90909 38.6061 5.45455 40 6.18182C40.3333 6.33333 40.5833 6.56061 40.75 6.86364C40.9167 7.16667 41 7.48485 41 7.81818V29.7273C41 30.4242 40.7045 30.9545 40.1136 31.3182C39.5227 31.6818 38.9091 31.697 38.2727 31.3636C37.1515 30.7576 35.9773 30.2879 34.75 29.9545C33.5227 29.6212 32.2727 29.4545 31 29.4545C29.1818 29.4545 27.4242 29.7727 25.7273 30.4091C24.0303 31.0455 22.4545 31.9394 21 33.0909Z" fill="#1E5B50"/>
</g>
</svg>
