<svg width="26" height="25" viewBox="0 0 26 25" fill="none" xmlns="http://www.w3.org/2000/svg">
<path d="M26 22.5835L25.7034 22.3265C24.8618 21.5901 24.1252 20.7455 23.5134 19.8158C22.8453 18.5326 22.4448 17.1313 22.3356 15.6941V11.461C22.3413 9.20361 21.5076 7.02183 19.991 5.3256C18.4744 3.62937 16.3793 2.53544 14.0993 2.24936V1.14396C14.0993 0.840562 13.9766 0.549592 13.7582 0.335058C13.5397 0.120524 13.2435 0 12.9346 0C12.6256 0 12.3294 0.120524 12.111 0.335058C11.8925 0.549592 11.7698 0.840562 11.7698 1.14396V2.2665C9.51029 2.5732 7.44051 3.67374 5.94382 5.36427C4.44712 7.0548 3.62493 9.22077 3.62953 11.461V15.6941C3.52026 17.1313 3.11981 18.5326 2.45168 19.8158C1.85043 20.7432 1.12567 21.5876 0.296644 22.3265L0 22.5835V25H26V22.5835Z" fill="#979797"/>
</svg>
