<svg width="21" height="27" viewBox="0 0 21 27" fill="none" xmlns="http://www.w3.org/2000/svg">
<path d="M12.6562 0H3.375C2.47989 0 1.62145 0.355579 0.988514 0.988515C0.355579 1.62145 0 2.47989 0 3.375V23.625C0 24.5201 0.355579 25.3785 0.988514 26.0115C1.62145 26.6444 2.47989 27 3.375 27H16.875C17.7701 27 18.6285 26.6444 19.2615 26.0115C19.8944 25.3785 20.25 24.5201 20.25 23.625V7.59375L12.6562 0ZM12.6562 1.6875V5.0625C12.6562 5.73383 12.9229 6.37766 13.3976 6.85236C13.8723 7.32707 14.5162 7.59375 15.1875 7.59375H18.5625V23.625C18.5625 24.0726 18.3847 24.5018 18.0682 24.8182C17.7518 25.1347 17.3226 25.3125 16.875 25.3125H3.375C2.92745 25.3125 2.49822 25.1347 2.18176 24.8182C1.86529 24.5018 1.6875 24.0726 1.6875 23.625V3.375C1.6875 2.92745 1.86529 2.49822 2.18176 2.18176C2.49822 1.86529 2.92745 1.6875 3.375 1.6875H12.6562Z" fill="#979797"/>
</svg>
