<svg width="40" height="40" viewBox="0 0 40 40" fill="none" xmlns="http://www.w3.org/2000/svg">
<g clip-path="url(#clip0_7264_6463)">
<path d="M8.81059 31.5392C9.29844 31.4603 9.74693 31.2859 10.1405 31.0388L8.37772 28.5791L7.9624 31.5766C8.2396 31.5972 8.52394 31.587 8.81059 31.5392Z" fill="#19473E"/>
<path d="M4.70016 28.5792C4.94611 30.0931 6.1068 31.2298 7.52713 31.5165L7.99221 28.1567L4.76035 27.1318C4.64403 27.5907 4.61914 28.0819 4.70016 28.5792Z" fill="#19473E"/>
<path d="M11.3072 29.1594C11.355 29.0348 11.3955 28.9071 11.4287 28.7763C11.5346 28.3568 11.5573 27.9094 11.4837 27.4546C11.2583 26.0707 10.1974 25.0323 8.90071 24.7707C8.76992 24.7437 8.63798 24.725 8.50314 24.7158C8.24986 24.6959 7.99022 24.7063 7.72748 24.7489C7.28227 24.8217 6.87216 24.9804 6.51298 25.2069C6.39878 25.2785 6.28979 25.3564 6.18698 25.4405C5.74562 25.8006 5.40515 26.27 5.19971 26.8004L7.73906 27.6062L8.08686 27.7163L8.37756 27.8087L8.46263 27.9281L8.7678 28.3537L10.3199 30.5184C10.761 30.1592 11.1017 29.6899 11.3072 29.1594Z" fill="#19473E"/>
<mask id="mask0_7264_6463" style="mask-type:luminance" maskUnits="userSpaceOnUse" x="0" y="3" width="26" height="34">
<path d="M0 3.5752H25.8765V36.427H0V3.5752Z" fill="white"/>
</mask>
<g mask="url(#mask0_7264_6463)">
<path d="M24.0582 28.161C23.781 27.9762 23.5161 27.7696 23.2671 27.5443V33.8433H2.58962V6.16061H23.2671V17.4328C23.5161 17.2075 23.781 17.0009 24.0582 16.8151C24.4266 16.568 24.8211 16.3572 25.2293 16.188C25.4338 16.1027 25.6434 16.0281 25.8552 15.9637V5.54487C25.8552 4.45575 24.9718 3.57227 23.8826 3.57227H1.97504C0.88611 3.57227 0.00146484 4.45575 0.00146484 5.54487V34.46C0.00146484 35.5472 0.88611 36.4307 1.97504 36.4307H23.8826C24.9718 36.4307 25.8552 35.5472 25.8552 34.46V29.0134C25.6434 28.948 25.4338 28.8732 25.2293 28.7891C24.8201 28.6189 24.4266 28.4081 24.0582 28.161Z" fill="#19473E"/>
</g>
<path d="M20.3663 8.29688H5.49011C5.02715 8.29688 4.65234 8.67168 4.65234 9.13368C4.65234 9.59684 5.02715 9.97164 5.49011 9.97164H20.3663C20.8292 9.97164 21.204 9.59684 21.204 9.13368C21.204 8.67168 20.8292 8.29688 20.3663 8.29688Z" fill="#E09F00"/>
<path d="M20.3663 12.0869H5.49011C5.02715 12.0869 4.65234 12.4617 4.65234 12.9249C4.65234 13.3869 5.02715 13.7617 5.49011 13.7617H20.3663C20.8292 13.7617 21.204 13.3869 21.204 12.9249C21.204 12.4617 20.8292 12.0869 20.3663 12.0869Z" fill="#E09F00"/>
<path d="M20.3663 15.8779H5.49011C5.02715 15.8779 4.65234 16.2537 4.65234 16.7157C4.65234 17.1789 5.02715 17.5525 5.49011 17.5525H20.3663C20.8292 17.5525 21.204 17.1789 21.204 16.7157C21.204 16.2537 20.8292 15.8779 20.3663 15.8779Z" fill="#E09F00"/>
<path d="M15.5462 31.6686V25.4608C15.5462 24.9988 15.1714 24.624 14.7082 24.624C14.2462 24.624 13.8716 24.9988 13.8716 25.4608V31.6686H15.5462Z" fill="#E09F00"/>
<path d="M18.3748 31.6684V28.0284C18.3748 27.5652 18 27.1904 17.537 27.1904C17.075 27.1904 16.7002 27.5652 16.7002 28.0284V31.6684H18.3748Z" fill="#E09F00"/>
<path d="M21.2039 31.6683V30.0362C21.2039 29.573 20.8291 29.1982 20.3661 29.1982C19.9041 29.1982 19.5293 29.573 19.5293 30.0362V31.6683H21.2039Z" fill="#E09F00"/>
<path d="M30.7544 25.4054C29.9738 26.1851 28.9377 26.6149 27.8372 26.6149C26.7377 26.6149 25.7016 26.1851 24.9209 25.4054C24.1402 24.6245 23.7105 23.5885 23.7105 22.4878C23.7105 21.3873 24.1402 20.3522 24.9209 19.5715C25.7016 18.7906 26.7377 18.3608 27.8372 18.3608C30.1128 18.3608 31.9639 20.2119 31.9649 22.4878C31.9639 23.5885 31.5341 24.6245 30.7544 25.4054ZM31.8528 18.472C30.7793 17.3983 29.3528 16.8066 27.8372 16.8066C26.3225 16.8066 24.896 17.3983 23.8225 18.472C22.7481 19.5464 22.1562 20.9731 22.1562 22.4878C22.1562 24.0036 22.7481 25.4291 23.8225 26.5038C24.896 27.5773 26.3225 28.1691 27.8372 28.1691C29.3528 28.1691 30.7793 27.5773 31.8528 26.5038C32.9273 25.4291 33.5181 24.0036 33.5181 22.4878C33.5181 20.9731 32.9273 19.5464 31.8528 18.472Z" fill="#19473E"/>
<path d="M39.4554 32.1169L35.8643 28.5257C35.5995 28.262 35.232 28.1663 34.8915 28.2391L33.2657 26.6133C33.0809 26.8561 32.8774 27.0888 32.6573 27.3077C32.4382 27.5278 32.2058 27.7313 31.9629 27.9161L33.5887 29.5421C33.5169 29.8816 33.6114 30.2502 33.8751 30.5139L37.4671 34.1052C38.0163 34.6555 38.9062 34.6555 39.4554 34.1061C40.0046 33.557 40.0046 32.6661 39.4554 32.1169Z" fill="#19473E"/>
</g>
<defs>
<clipPath id="clip0_7264_6463">
<rect width="40" height="40" fill="white"/>
</clipPath>
</defs>
</svg>
