<svg width="25" height="25" viewBox="0 0 25 25" fill="none" xmlns="http://www.w3.org/2000/svg">
<path d="M24 10.0708V10.0713C24.0001 10.2729 23.9643 10.4706 23.8967 10.6521C23.8291 10.8336 23.7323 10.9921 23.6163 11.121C23.5006 11.2497 23.3688 11.3455 23.2318 11.4086C23.0951 11.4715 22.953 11.5021 22.8125 11.5021H2.1875C1.90849 11.5021 1.61669 11.3799 1.38391 11.1213L0.640704 11.7904L1.38391 11.1213C1.148 10.8593 1 10.4834 1 10.0722V2.42991C1 2.4299 1 2.42989 1 2.42988C1.00002 2.04137 1.13239 1.6825 1.3482 1.42218C1.55687 1.17048 1.82107 1.03487 2.0803 1.00603L2.21063 1H22.8125C23.3715 1 24 1.53943 24 2.42988V10.0708ZM9.0575 16.2805C9.61736 16.2805 10.245 16.8195 10.245 17.7104V22.5701C10.245 22.9813 10.097 23.3572 9.86109 23.6192C9.62831 23.8778 9.33651 24 9.0575 24H2.1875C1.90849 24 1.61669 23.8778 1.38391 23.6192C1.148 23.3572 1 22.9813 1 22.5701V17.7104C1 16.8199 1.62854 16.2805 2.1875 16.2805H9.0575ZM22.8125 16.2805C23.3715 16.2805 24 16.8199 24 17.7104V22.5701C24 22.9813 23.852 23.3572 23.6161 23.6192C23.3833 23.8778 23.0915 24 22.8125 24H15.9425C15.6635 24 15.3717 23.8778 15.1389 23.6192C14.903 23.3572 14.755 22.9813 14.755 22.5701V17.7104C14.755 16.8195 15.3826 16.2805 15.9425 16.2805H22.8125Z" stroke="#009788" stroke-width="2"/>
</svg>
