<svg width="39" height="40" viewBox="0 0 39 40" fill="none" xmlns="http://www.w3.org/2000/svg">
<rect y="37" width="38" height="3" fill="#19473E"/>
<mask id="mask0_6979_12033" style="mask-type:alpha" maskUnits="userSpaceOnUse" x="0" y="0" width="39" height="37">
<rect width="38.4231" height="37" fill="#D9D9D9"/>
</mask>
<g mask="url(#mask0_6979_12033)">
<path d="M9.23841 27.7167C10.5992 26.7146 12.1201 25.9245 13.8012 25.3464C15.4822 24.7682 17.2432 24.4792 19.0843 24.4792C20.9254 24.4792 22.6865 24.7682 24.3675 25.3464C26.0485 25.9245 27.5694 26.7146 28.9302 27.7167C29.8641 26.6632 30.5912 25.4684 31.1115 24.1323C31.6319 22.7962 31.892 21.3701 31.892 19.8542C31.892 16.4368 30.6446 13.5269 28.1498 11.1245C25.6549 8.72205 22.6331 7.52083 19.0843 7.52083C15.5355 7.52083 12.5137 8.72205 10.0189 11.1245C7.52405 13.5269 6.27663 16.4368 6.27663 19.8542C6.27663 21.3701 6.53679 22.7962 7.0571 24.1323C7.57741 25.4684 8.30452 26.6632 9.23841 27.7167ZM19.0843 21.3958C17.51 21.3958 16.1826 20.8755 15.1019 19.8349C14.0213 18.7943 13.481 17.516 13.481 16C13.481 14.484 14.0213 13.2057 15.1019 12.1651C16.1826 11.1245 17.51 10.6042 19.0843 10.6042C20.6586 10.6042 21.9861 11.1245 23.0667 12.1651C24.1474 13.2057 24.6877 14.484 24.6877 16C24.6877 17.516 24.1474 18.7943 23.0667 19.8349C21.9861 20.8755 20.6586 21.3958 19.0843 21.3958ZM19.0843 35.2708C16.8697 35.2708 14.7884 34.8661 12.8406 34.0568C10.8927 33.2474 9.19839 32.149 7.75752 30.7615C6.31665 29.374 5.17597 27.7424 4.33546 25.8667C3.49496 23.991 3.07471 21.9868 3.07471 19.8542C3.07471 17.7215 3.49496 15.7174 4.33546 13.8417C5.17597 11.966 6.31665 10.3344 7.75752 8.94688C9.19839 7.55938 10.8927 6.46094 12.8406 5.65156C14.7884 4.84219 16.8697 4.4375 19.0843 4.4375C21.299 4.4375 23.3802 4.84219 25.3281 5.65156C27.2759 6.46094 28.9703 7.55938 30.4111 8.94688C31.852 10.3344 32.9927 11.966 33.8332 13.8417C34.6737 15.7174 35.0939 17.7215 35.0939 19.8542C35.0939 21.9868 34.6737 23.991 33.8332 25.8667C32.9927 27.7424 31.852 29.374 30.4111 30.7615C28.9703 32.149 27.2759 33.2474 25.3281 34.0568C23.3802 34.8661 21.299 35.2708 19.0843 35.2708ZM19.0843 32.1875C20.4985 32.1875 21.8326 31.9884 23.0867 31.5901C24.3408 31.1918 25.4882 30.6201 26.5288 29.875C25.4882 29.1299 24.3408 28.5582 23.0867 28.1599C21.8326 27.7616 20.4985 27.5625 19.0843 27.5625C17.6701 27.5625 16.336 27.7616 15.0819 28.1599C13.8278 28.5582 12.6805 29.1299 11.6399 29.875C12.6805 30.6201 13.8278 31.1918 15.0819 31.5901C16.336 31.9884 17.6701 32.1875 19.0843 32.1875ZM19.0843 18.3125C19.7781 18.3125 20.3518 18.0941 20.8054 17.6573C21.259 17.2205 21.4858 16.6681 21.4858 16C21.4858 15.3319 21.259 14.7795 20.8054 14.3427C20.3518 13.9059 19.7781 13.6875 19.0843 13.6875C18.3906 13.6875 17.8169 13.9059 17.3633 14.3427C16.9097 14.7795 16.6829 15.3319 16.6829 16C16.6829 16.6681 16.9097 17.2205 17.3633 17.6573C17.8169 18.0941 18.3906 18.3125 19.0843 18.3125Z" fill="#19473E"/>
</g>
</svg>
