<svg width="50" height="50" viewBox="0 0 50 50" fill="none" xmlns="http://www.w3.org/2000/svg">
<g clip-path="url(#clip0_6979_36042)">
<rect width="50" height="50" rx="25" fill="#8D8D8D"/>
<path d="M24.9974 -0.835938C10.9931 -0.835938 -0.835938 10.9931 -0.835938 24.9974C-0.835938 39.0016 10.9931 50.8307 24.9974 50.8307C39.0016 50.8307 50.8307 39.0016 50.8307 24.9974C50.8307 10.9931 39.0016 -0.835938 24.9974 -0.835938ZM24.9974 12.0807C29.4588 12.0807 32.7474 15.3667 32.7474 19.8307C32.7474 24.2947 29.4588 27.5807 24.9974 27.5807C20.5386 27.5807 17.2474 24.2947 17.2474 19.8307C17.2474 15.3667 20.5386 12.0807 24.9974 12.0807ZM11.8069 37.3251C14.1241 33.9151 17.9888 31.6417 22.4141 31.6417H27.5807C32.0086 31.6417 35.8707 33.9151 38.1879 37.3251C34.8864 40.8591 30.2028 43.0807 24.9974 43.0807C19.792 43.0807 15.1084 40.8591 11.8069 37.3251Z" fill="#D8D8D8"/>
</g>
<defs>
<clipPath id="clip0_6979_36042">
<rect width="50" height="50" rx="25" fill="white"/>
</clipPath>
</defs>
</svg>
