<svg width="412" height="50" viewBox="0 0 412 50" fill="none" xmlns="http://www.w3.org/2000/svg">
<path d="M1.88351 35.9383C4.73703 35.9383 9.19133 38.4606 11.0705 41.1721C12.0449 42.4962 13.2976 43.5052 14.0632 43.5052C14.7592 43.5052 15.5248 44.0096 15.8032 44.5771C16.012 45.2077 16.9863 46.658 17.9607 47.8561L19.7007 50L20.9534 48.4866C21.6494 47.6669 22.2758 46.5949 22.2758 46.1535C22.2758 45.586 24.0158 45.3969 28.7484 45.3969H35.2211L36.4738 47.6669L37.657 50L39.6754 48.2344C40.7193 47.2886 41.8329 45.8383 42.0417 45.0185C42.3201 44.1988 43.0161 43.5052 43.5729 43.5052C44.1992 43.5052 46.0088 42.181 47.54 40.6045C49.1407 38.9651 51.4375 37.2625 52.6902 36.8211C55.8918 35.56 60.8332 35.7492 63.9652 37.1995C66.6099 38.3976 70.2986 41.7396 70.2986 42.9376C70.2986 43.2529 71.0642 43.5052 71.969 43.5052C73.0825 43.5052 73.7785 43.9466 74.0569 44.9555C74.2657 45.7121 75.3793 47.2255 76.4928 48.1714L78.6504 50L79.6944 47.73L80.7383 45.3969H87.0022C92.9876 45.3969 93.3356 45.4599 93.962 46.9102C94.31 47.73 94.8668 48.6128 95.2844 48.8019C96.4675 49.4955 98.8339 47.73 99.6691 45.586C100.226 44.1357 100.991 43.5052 101.966 43.5052C102.801 43.5052 103.845 42.7485 104.471 41.6765C105.098 40.7307 106.768 39.0912 108.23 38.0823C110.596 36.4428 111.431 36.2536 115.885 36.2536C121.523 36.2536 124.446 37.5778 127.369 41.4243C128.204 42.5593 129.527 43.5052 130.223 43.5052C130.988 43.5052 131.684 44.0727 131.963 45.0185C132.171 45.8383 133.285 47.2886 134.329 48.2344L136.347 50L137.531 47.6669L138.783 45.3969H145.256C150.058 45.3969 151.729 45.586 151.729 46.2166C151.729 46.658 152.216 47.6669 152.842 48.4236C153.956 49.8739 154.025 49.8739 155.348 48.7389C156.183 48.1083 157.227 46.658 157.784 45.586C158.34 44.3249 159.176 43.5052 159.941 43.5052C160.637 43.5052 162.029 42.4332 162.934 41.1721C164.813 38.4606 169.267 35.9383 172.051 35.9383C173.861 35.9383 174 35.7492 174 33.1008V30.2632H170.52C168.084 30.2632 167.04 30.011 167.04 29.4435C167.04 29.0021 166.553 28.0563 165.996 27.3626C165.022 26.2276 164.883 26.2276 162.864 28.2454C161.751 29.3804 160.776 30.7046 160.776 31.2091C160.776 31.7766 160.15 32.1549 159.106 32.1549C157.992 32.1549 157.227 32.5963 156.948 33.353C156.252 35.3078 151.311 38.9651 148.318 39.7218C142.89 41.0459 135.721 38.3345 133.285 33.9836C132.659 32.9116 131.615 32.1549 130.849 32.1549C130.153 32.1549 129.388 31.5874 129.109 30.9569C128.483 29.1282 125.977 26.4798 124.933 26.4798C124.446 26.4798 123.68 27.2996 123.332 28.3085C122.636 30.1371 122.567 30.2002 116.233 30.3894L109.9 30.5785L108.786 28.4977C108.23 27.4257 107.464 26.4798 107.046 26.4798C105.933 26.4798 103.01 29.7588 103.01 30.9569C103.01 31.7766 102.523 32.1549 101.409 32.218C100.435 32.218 99.1123 33.1639 97.7899 34.8033C92.0828 41.9287 80.9471 41.6765 75.6577 34.3619C74.8225 33.1008 73.5001 32.1549 72.7345 32.1549C71.8298 32.0919 70.8554 31.2091 69.881 29.4435C68.0714 26.1015 66.4011 25.7232 65.1483 28.3715L64.2435 30.3894H58.0493H51.9247L50.8807 28.4346C50.3239 27.3626 49.4887 26.4798 49.0015 26.4798C47.9576 26.4798 45.5216 29.1913 44.8952 30.9569C44.6168 31.5874 43.8513 32.1549 43.1553 32.1549C42.4593 32.1549 41.2761 33.1008 40.4409 34.2358C36.8218 39.5956 29.166 41.5504 22.9022 38.7128C20.9534 37.8301 16.7079 33.7314 16.7079 32.7855C16.7079 32.4072 15.9424 32.1549 14.968 32.1549C13.924 32.1549 13.228 31.7766 13.228 31.2722C13.228 30.2002 9.88731 26.4798 8.98253 26.4798C8.56494 26.4798 7.86896 27.3626 7.38177 28.4977C6.47699 30.3894 6.19861 30.5155 3.20587 30.3263L0.00434875 30.1371V33.0377C0.00434875 35.7492 0.143555 35.9383 1.88351 35.9383Z" fill="#C6BD9E" fill-opacity="0.71"/>
<path d="M3.13628 18.9203C6.0594 18.9203 6.3378 19.0464 7.24257 21.1273C7.79936 22.3254 8.56494 23.3343 8.98253 23.3343C9.74811 23.3343 12.8104 19.8031 13.4368 18.1006C13.7152 17.533 14.4112 17.0286 15.1072 17.0286C15.8032 16.9655 17.1951 15.8936 18.1695 14.5694C23.1806 8.01148 33.8987 7.94843 39.6754 14.3802C40.8585 15.7675 42.4593 17.0286 43.2249 17.2178C43.9209 17.4069 44.8256 18.2267 45.1736 19.0464C45.5216 19.8031 46.5656 21.1273 47.4704 21.947C49.3495 23.5234 50.1847 23.1451 51.0895 20.3075C51.5767 18.9834 51.9943 18.9203 58.0493 18.9203H64.4523L65.3571 21.1273C65.8443 22.3254 66.4707 23.3343 66.7491 23.3343C67.6539 23.3343 70.1594 20.5598 70.925 18.7311C71.3426 17.7222 72.1777 17.0286 73.0129 17.0286C73.7089 17.0286 74.8921 16.2719 75.5881 15.263C77.8848 12.0471 82.8263 9.46179 86.863 9.46179C90.7605 9.46179 96.1196 12.1102 98.1379 15.0738C99.3211 16.7133 100.295 17.47 101.131 17.2808C101.966 17.1547 102.592 17.6592 103.079 18.7942C103.845 20.5598 106.35 23.3343 107.255 23.3343C107.534 23.3343 108.16 22.3254 108.647 21.1273L109.552 18.9203H115.885H122.219L123.472 21.1903L124.655 23.5234L126.673 21.7578C127.717 20.812 128.831 19.3617 129.04 18.542C129.388 17.47 129.944 17.0286 131.197 17.0286C132.171 17.0286 132.937 16.7764 132.937 16.4611C132.937 15.1999 136.835 11.7318 139.549 10.6599C145.186 8.32677 152.007 9.90318 155.765 14.4433C157.923 17.0286 158.758 17.7222 159.524 17.2808C159.802 17.0917 160.568 17.9114 161.194 19.0464C162.516 21.5056 164.256 23.3343 165.091 23.3343C165.439 23.3343 166.205 22.3254 166.762 21.1273C167.667 19.0464 167.945 18.9203 170.868 18.9203H174V16.5241C174 14.191 173.93 14.0649 170.729 13.3082C166.971 12.4255 165.439 11.4796 162.655 8.07454C161.472 6.68729 160.289 5.86755 159.663 6.11978C159.036 6.30895 158.41 5.8045 157.923 4.66948C157.157 2.77777 154.652 0.00327682 153.747 0.00327682C153.469 0.00327682 152.842 1.01218 152.355 2.21026L151.45 4.41725L144.978 4.41725C138.714 4.41725 138.505 4.35419 138.087 2.84083C137.322 -0.0597801 136.069 -0.248949 133.703 2.21026C132.519 3.4714 131.545 4.9217 131.545 5.42616C131.545 6.05672 131.127 6.30895 130.501 6.05672C129.944 5.86755 129.179 6.05672 128.761 6.49812C128.413 6.93952 127.23 8.20065 126.186 9.39873C120.688 15.5783 110.109 15.1369 104.889 8.38982C103.706 6.93952 102.175 5.67838 101.479 5.67838C100.783 5.67838 100.226 5.3631 100.226 4.9217C100.226 3.97585 96.8155 0.00327682 95.9804 0.00327682C95.5628 0.00327682 94.7972 1.01218 94.2404 2.21026L93.266 4.41725H87.0022L80.7383 4.41725L79.764 2.21026C79.2072 1.01218 78.4416 0.00327682 78.024 0.00327682C77.2584 0.00327682 74.1961 3.53445 73.5697 5.23699C73.2913 5.86755 72.6649 6.30895 72.1082 6.18284C71.5514 6.05672 70.1594 7.19174 69.0458 8.57899C66.6099 11.6057 61.9468 13.8758 58.2581 13.8758C53.3862 13.8758 48.3751 11.1643 46.2176 7.38091C45.5912 6.37201 44.6864 5.67838 44.0601 5.8045C43.4337 5.93061 42.5289 5.3631 42.0417 4.54336C41.6241 3.78668 40.5105 2.39943 39.6754 1.57969C37.8658 -0.185892 36.613 0.255505 35.9171 2.84083C35.4995 4.35419 35.2907 4.41725 29.0268 4.41725L22.5542 4.41725L21.6494 2.21026C21.1622 1.01218 20.5358 0.00327682 20.2574 0.00327682C19.3527 0.00327682 16.8471 2.77777 16.0816 4.54336C15.5944 5.67838 14.8288 6.30895 13.9936 6.30895C13.228 6.30895 12.1145 7.12869 11.3489 8.20065C9.8177 10.5968 5.85062 13.056 2.50989 13.5605C0.143555 14.0019 0.00434875 14.128 0.00434875 16.4611V18.9203H3.13628Z" fill="#C6BD9E" fill-opacity="0.71"/>
<path d="M13.4508 27.5644C14.7035 29.0147 16.1651 30.2128 16.8611 30.2128C17.4875 30.2758 18.6011 31.3478 19.297 32.6089C21.3154 36.0771 25.2129 37.9688 29.8064 37.6535C34.1215 37.4013 36.627 35.951 38.6454 32.6089C39.4109 31.3478 40.5245 30.2758 41.1509 30.2758C41.7077 30.2758 43.2388 29.0147 44.4916 27.4383L46.7188 24.6007L44.9788 22.646C44.0044 21.574 43.1692 20.439 43.1692 20.1237C43.1692 19.8084 42.4037 19.5562 41.4989 19.5562C40.3157 19.5562 39.6893 19.1148 39.4109 18.0428C38.8541 16.025 34.7478 12.8091 31.7551 12.0525C26.8832 10.8544 21.733 12.9983 19.1578 17.2231C18.3923 18.4842 17.2091 19.5562 16.5827 19.5562C15.9563 19.5562 14.7731 20.5651 13.938 21.7632C13.1028 22.9613 12.1284 23.9702 11.7804 23.9702C10.7364 23.9702 11.154 24.7269 13.4508 27.5644Z" fill="#C6BD9E" fill-opacity="0.71"/>
<path d="M70.7342 26.5557C71.639 27.3123 72.5438 28.4474 72.8222 29.141C73.031 29.8346 73.8661 30.276 74.9101 30.276C75.8845 30.276 76.5805 30.6544 76.5805 31.2219C76.5805 32.6091 80.478 36.3295 82.8443 37.2123C85.5586 38.2212 90.8481 37.7167 93.2145 36.1403C94.1888 35.4467 95.7896 33.8702 96.6944 32.6091C97.5991 31.348 98.9215 30.276 99.6175 30.276C100.313 30.276 101.009 29.7716 101.218 29.141C101.497 28.4474 102.401 27.3123 103.306 26.5557L104.977 25.1054L102.819 22.3939C101.566 20.8806 100.035 19.6194 99.4087 19.6194C98.7127 19.5564 97.5991 18.4844 96.8336 17.0972C92.8665 10.0348 81.174 10.0348 77.2069 17.0972C76.4413 18.4844 75.3277 19.5564 74.6317 19.6194C74.0053 19.6194 72.4742 20.8806 71.2214 22.3939L69.0639 25.1054L70.7342 26.5557Z" fill="#C6BD9E" fill-opacity="0.71"/>
<path d="M128.672 26.7588C129.576 27.5155 130.481 28.6505 130.76 29.3441C130.968 30.0377 131.804 30.4791 132.848 30.4791C133.822 30.4791 134.518 30.8575 134.518 31.425C134.518 32.8122 138.415 36.5326 140.782 37.4154C143.496 38.4243 148.786 37.9198 151.152 36.3434C152.126 35.6498 153.727 34.0734 154.632 32.8122C155.537 31.5511 156.859 30.4791 157.555 30.4791C158.251 30.4791 158.947 29.9747 159.156 29.3441C159.434 28.6505 160.339 27.5155 161.244 26.7588L162.914 25.3085L160.757 22.597C159.504 21.0837 157.973 19.8225 157.346 19.8225C156.65 19.7595 155.537 18.6875 154.771 17.3003C150.804 10.2379 139.111 10.2379 135.144 17.3003C134.379 18.6875 133.265 19.7595 132.569 19.8225C131.943 19.8225 130.412 21.0837 129.159 22.597L127.001 25.3085L128.672 26.7588Z" fill="#C6BD9E" fill-opacity="0.71"/>
<path d="M186.601 26.9619C187.506 27.7186 188.411 28.8536 188.689 29.5472C188.898 30.2409 189.733 30.6823 190.777 30.6823C191.752 30.6823 192.448 31.0606 192.448 31.6281C192.448 33.0154 196.345 36.7357 198.712 37.6185C201.426 38.6274 206.715 38.123 209.082 36.5465C210.056 35.8529 211.657 34.2765 212.562 33.0154C213.466 31.7542 214.789 30.6823 215.485 30.6823C216.181 30.6823 216.877 30.1778 217.085 29.5472C217.364 28.8536 218.269 27.7186 219.173 26.9619L220.844 25.5116L218.686 22.8002C217.433 21.2868 215.902 20.0257 215.276 20.0257C214.58 19.9626 213.466 18.8907 212.701 17.5034C208.734 10.441 197.041 10.441 193.074 17.5034C192.308 18.8907 191.195 19.9626 190.499 20.0257C189.873 20.0257 188.341 21.2868 187.089 22.8002L184.931 25.5116L186.601 26.9619Z" fill="#C6BD9E" fill-opacity="0.71"/>
<path d="M244.547 27.165C245.451 27.9217 246.356 29.0567 246.635 29.7504C246.843 30.444 247.679 30.8854 248.723 30.8854C249.697 30.8854 250.393 31.2637 250.393 31.8312C250.393 33.2185 254.29 36.9388 256.657 37.8216C259.371 38.8305 264.661 38.3261 267.027 36.7497C268.001 36.056 269.602 34.4796 270.507 33.2185C271.412 31.9573 272.734 30.8854 273.43 30.8854C274.126 30.8854 274.822 30.3809 275.031 29.7504C275.309 29.0567 276.214 27.9217 277.119 27.165L278.789 25.7147L276.632 23.0033C275.379 21.4899 273.848 20.2288 273.221 20.2288C272.525 20.1657 271.412 19.0938 270.646 17.7065C266.679 10.6442 254.986 10.6442 251.019 17.7065C250.254 19.0938 249.14 20.1657 248.444 20.2288C247.818 20.2288 246.287 21.4899 245.034 23.0033L242.876 25.7147L244.547 27.165Z" fill="#C6BD9E" fill-opacity="0.71"/>
<path d="M175.884 35.9383C178.737 35.9383 183.191 38.4606 185.07 41.1721C186.045 42.4962 187.298 43.5052 188.063 43.5052C188.759 43.5052 189.525 44.0096 189.803 44.5771C190.012 45.2077 190.986 46.658 191.961 47.8561L193.701 50L194.953 48.4866C195.649 47.6669 196.276 46.5949 196.276 46.1535C196.276 45.586 198.016 45.3969 202.748 45.3969H209.221L210.474 47.6669L211.657 50L213.675 48.2344C214.719 47.2886 215.833 45.8383 216.042 45.0185C216.32 44.1988 217.016 43.5052 217.573 43.5052C218.199 43.5052 220.009 42.181 221.54 40.6045C223.141 38.9651 225.437 37.2625 226.69 36.8211C229.892 35.56 234.833 35.7492 237.965 37.1995C240.61 38.3976 244.299 41.7396 244.299 42.9376C244.299 43.2529 245.064 43.5052 245.969 43.5052C247.083 43.5052 247.779 43.9466 248.057 44.9555C248.266 45.7121 249.379 47.2255 250.493 48.1714L252.65 50L253.694 47.73L254.738 45.3969H261.002C266.988 45.3969 267.336 45.4599 267.962 46.9102C268.31 47.73 268.867 48.6128 269.284 48.8019C270.468 49.4955 272.834 47.73 273.669 45.586C274.226 44.1357 274.991 43.5052 275.966 43.5052C276.801 43.5052 277.845 42.7485 278.471 41.6765C279.098 40.7307 280.768 39.0912 282.23 38.0823C284.596 36.4428 285.431 36.2536 289.885 36.2536C295.523 36.2536 298.446 37.5778 301.369 41.4243C302.204 42.5593 303.527 43.5052 304.223 43.5052C304.988 43.5052 305.684 44.0727 305.963 45.0185C306.171 45.8383 307.285 47.2886 308.329 48.2344L310.347 50L311.531 47.6669L312.783 45.3969H319.256C324.058 45.3969 325.729 45.586 325.729 46.2166C325.729 46.658 326.216 47.6669 326.842 48.4236C327.956 49.8739 328.025 49.8739 329.348 48.7389C330.183 48.1083 331.227 46.658 331.784 45.586C332.34 44.3249 333.176 43.5052 333.941 43.5052C334.637 43.5052 336.029 42.4332 336.934 41.1721C338.813 38.4606 343.267 35.9383 346.051 35.9383C347.861 35.9383 348 35.7492 348 33.1008V30.2632H344.52C342.084 30.2632 341.04 30.011 341.04 29.4435C341.04 29.0021 340.553 28.0563 339.996 27.3626C339.022 26.2276 338.883 26.2276 336.864 28.2454C335.751 29.3804 334.776 30.7046 334.776 31.2091C334.776 31.7766 334.15 32.1549 333.106 32.1549C331.992 32.1549 331.227 32.5963 330.948 33.353C330.252 35.3078 325.311 38.9651 322.318 39.7218C316.89 41.0459 309.721 38.3345 307.285 33.9836C306.659 32.9116 305.615 32.1549 304.849 32.1549C304.153 32.1549 303.388 31.5874 303.109 30.9569C302.483 29.1282 299.977 26.4798 298.933 26.4798C298.446 26.4798 297.68 27.2996 297.332 28.3085C296.636 30.1371 296.567 30.2002 290.233 30.3894L283.9 30.5785L282.786 28.4977C282.23 27.4257 281.464 26.4798 281.046 26.4798C279.933 26.4798 277.01 29.7588 277.01 30.9569C277.01 31.7766 276.523 32.1549 275.409 32.218C274.435 32.218 273.112 33.1639 271.79 34.8033C266.083 41.9287 254.947 41.6765 249.658 34.3619C248.822 33.1008 247.5 32.1549 246.735 32.1549C245.83 32.0919 244.855 31.2091 243.881 29.4435C242.071 26.1015 240.401 25.7232 239.148 28.3715L238.244 30.3894H232.049H225.925L224.881 28.4346C224.324 27.3626 223.489 26.4798 223.002 26.4798C221.958 26.4798 219.522 29.1913 218.895 30.9569C218.617 31.5874 217.851 32.1549 217.155 32.1549C216.459 32.1549 215.276 33.1008 214.441 34.2358C210.822 39.5956 203.166 41.5504 196.902 38.7128C194.953 37.8301 190.708 33.7314 190.708 32.7855C190.708 32.4072 189.942 32.1549 188.968 32.1549C187.924 32.1549 187.228 31.7766 187.228 31.2722C187.228 30.2002 183.887 26.4798 182.983 26.4798C182.565 26.4798 181.869 27.3626 181.382 28.4977C180.477 30.3894 180.199 30.5155 177.206 30.3263L174.004 30.1371V33.0377C174.004 35.7492 174.144 35.9383 175.884 35.9383Z" fill="#C6BD9E" fill-opacity="0.71"/>
<path d="M177.136 18.9203C180.059 18.9203 180.338 19.0464 181.243 21.1273C181.799 22.3254 182.565 23.3343 182.983 23.3343C183.748 23.3343 186.81 19.8031 187.437 18.1006C187.715 17.533 188.411 17.0286 189.107 17.0286C189.803 16.9655 191.195 15.8936 192.169 14.5694C197.181 8.01148 207.899 7.94843 213.675 14.3802C214.859 15.7675 216.459 17.0286 217.225 17.2178C217.921 17.4069 218.826 18.2267 219.174 19.0464C219.522 19.8031 220.566 21.1273 221.47 21.947C223.35 23.5234 224.185 23.1451 225.089 20.3075C225.577 18.9834 225.994 18.9203 232.049 18.9203H238.452L239.357 21.1273C239.844 22.3254 240.471 23.3343 240.749 23.3343C241.654 23.3343 244.159 20.5598 244.925 18.7311C245.343 17.7222 246.178 17.0286 247.013 17.0286C247.709 17.0286 248.892 16.2719 249.588 15.263C251.885 12.0471 256.826 9.46179 260.863 9.46179C264.76 9.46179 270.12 12.1102 272.138 15.0738C273.321 16.7133 274.295 17.47 275.131 17.2808C275.966 17.1547 276.592 17.6592 277.079 18.7942C277.845 20.5598 280.35 23.3343 281.255 23.3343C281.534 23.3343 282.16 22.3254 282.647 21.1273L283.552 18.9203H289.885H296.219L297.472 21.1903L298.655 23.5234L300.673 21.7578C301.717 20.812 302.831 19.3617 303.04 18.542C303.388 17.47 303.944 17.0286 305.197 17.0286C306.171 17.0286 306.937 16.7764 306.937 16.4611C306.937 15.1999 310.835 11.7318 313.549 10.6599C319.186 8.32677 326.007 9.90318 329.765 14.4433C331.923 17.0286 332.758 17.7222 333.524 17.2808C333.802 17.0917 334.568 17.9114 335.194 19.0464C336.516 21.5056 338.256 23.3343 339.091 23.3343C339.439 23.3343 340.205 22.3254 340.762 21.1273C341.667 19.0464 341.945 18.9203 344.868 18.9203H348V16.5241C348 14.191 347.93 14.0649 344.729 13.3082C340.971 12.4255 339.439 11.4796 336.655 8.07454C335.472 6.68729 334.289 5.86755 333.663 6.11978C333.036 6.30895 332.41 5.8045 331.923 4.66948C331.157 2.77777 328.652 0.00327682 327.747 0.00327682C327.469 0.00327682 326.842 1.01218 326.355 2.21026L325.45 4.41725L318.978 4.41725C312.714 4.41725 312.505 4.35419 312.087 2.84083C311.322 -0.0597801 310.069 -0.248949 307.703 2.21026C306.519 3.4714 305.545 4.9217 305.545 5.42616C305.545 6.05672 305.127 6.30895 304.501 6.05672C303.944 5.86755 303.179 6.05672 302.761 6.49812C302.413 6.93952 301.23 8.20065 300.186 9.39873C294.688 15.5783 284.109 15.1369 278.889 8.38982C277.706 6.93952 276.175 5.67838 275.479 5.67838C274.783 5.67838 274.226 5.3631 274.226 4.9217C274.226 3.97585 270.816 0.00327682 269.98 0.00327682C269.563 0.00327682 268.797 1.01218 268.24 2.21026L267.266 4.41725H261.002L254.738 4.41725L253.764 2.21026C253.207 1.01218 252.442 0.00327682 252.024 0.00327682C251.258 0.00327682 248.196 3.53445 247.57 5.23699C247.291 5.86755 246.665 6.30895 246.108 6.18284C245.551 6.05672 244.159 7.19174 243.046 8.57899C240.61 11.6057 235.947 13.8758 232.258 13.8758C227.386 13.8758 222.375 11.1643 220.218 7.38091C219.591 6.37201 218.686 5.67838 218.06 5.8045C217.434 5.93061 216.529 5.3631 216.042 4.54336C215.624 3.78668 214.511 2.39943 213.675 1.57969C211.866 -0.185892 210.613 0.255505 209.917 2.84083C209.499 4.35419 209.291 4.41725 203.027 4.41725L196.554 4.41725L195.649 2.21026C195.162 1.01218 194.536 0.00327682 194.257 0.00327682C193.353 0.00327682 190.847 2.77777 190.082 4.54336C189.594 5.67838 188.829 6.30895 187.994 6.30895C187.228 6.30895 186.114 7.12869 185.349 8.20065C183.818 10.5968 179.851 13.056 176.51 13.5605C174.144 14.0019 174.004 14.128 174.004 16.4611V18.9203H177.136Z" fill="#C6BD9E" fill-opacity="0.71"/>
<path d="M303.674 27.544C304.858 29.0574 306.319 30.2554 306.876 30.2554C307.502 30.2554 308.616 31.3274 309.382 32.5885C311.33 35.7414 313.905 37.3178 317.942 37.6961C322.884 38.0745 327.616 35.6153 329.287 31.6427C329.635 30.886 330.4 30.2554 331.096 30.1924C331.792 30.1924 333.323 28.9943 334.507 27.4809L336.664 24.8326L334.576 22.1842C333.393 20.7339 331.931 19.5358 331.235 19.5358C330.609 19.5358 329.704 18.7161 329.217 17.7072C327.338 13.5454 322.188 11.1493 316.968 12.032C313.001 12.7257 310.774 14.176 309.242 17.1396C308.338 18.7791 307.502 19.5358 306.458 19.5358C305.623 19.5358 304.788 20.0403 304.51 20.7339C304.301 21.3644 303.535 22.3734 302.77 23.0039C301.03 24.3912 301.03 24.3281 303.674 27.544Z" fill="#C6BD9E" fill-opacity="0.71"/>
<path d="M349.884 35.9383C352.737 35.9383 357.191 38.4606 359.07 41.1721C360.045 42.4962 361.298 43.5052 362.063 43.5052C362.759 43.5052 363.525 44.0096 363.803 44.5771C364.012 45.2077 364.986 46.658 365.961 47.8561L367.701 50L368.953 48.4866C369.649 47.6669 370.276 46.5949 370.276 46.1535C370.276 45.586 372.016 45.3969 376.748 45.3969H383.221L384.474 47.6669L385.657 50L387.675 48.2344C388.719 47.2886 389.833 45.8383 390.042 45.0185C390.32 44.1988 391.016 43.5052 391.573 43.5052C392.199 43.5052 394.009 42.181 395.54 40.6045C397.141 38.9651 399.437 37.2625 400.69 36.8211C403.892 35.56 408.833 35.7492 411.965 37.1995C414.61 38.3976 418.299 41.7396 418.299 42.9376C418.299 43.2529 419.064 43.5052 419.969 43.5052C421.083 43.5052 421.779 43.9466 422.057 44.9555C422.266 45.7121 423.379 47.2255 424.493 48.1714L426.65 50L427.694 47.73L428.738 45.3969H435.002C440.988 45.3969 441.336 45.4599 441.962 46.9102C442.31 47.73 442.867 48.6128 443.284 48.8019C444.468 49.4955 446.834 47.73 447.669 45.586C448.226 44.1357 448.991 43.5052 449.966 43.5052C450.801 43.5052 451.845 42.7485 452.471 41.6765C453.098 40.7307 454.768 39.0912 456.23 38.0823C458.596 36.4428 459.431 36.2536 463.885 36.2536C469.523 36.2536 472.446 37.5778 475.369 41.4243C476.204 42.5593 477.527 43.5052 478.223 43.5052C478.988 43.5052 479.684 44.0727 479.963 45.0185C480.171 45.8383 481.285 47.2886 482.329 48.2344L484.347 50L485.531 47.6669L486.783 45.3969H493.256C498.058 45.3969 499.729 45.586 499.729 46.2166C499.729 46.658 500.216 47.6669 500.842 48.4236C501.956 49.8739 502.025 49.8739 503.348 48.7389C504.183 48.1083 505.227 46.658 505.784 45.586C506.34 44.3249 507.176 43.5052 507.941 43.5052C508.637 43.5052 510.029 42.4332 510.934 41.1721C512.813 38.4606 517.267 35.9383 520.051 35.9383C521.861 35.9383 522 35.7492 522 33.1008V30.2632H518.52C516.084 30.2632 515.04 30.011 515.04 29.4435C515.04 29.0021 514.553 28.0563 513.996 27.3626C513.022 26.2276 512.883 26.2276 510.864 28.2454C509.751 29.3804 508.776 30.7046 508.776 31.2091C508.776 31.7766 508.15 32.1549 507.106 32.1549C505.992 32.1549 505.227 32.5963 504.948 33.353C504.252 35.3078 499.311 38.9651 496.318 39.7218C490.89 41.0459 483.721 38.3345 481.285 33.9836C480.659 32.9116 479.615 32.1549 478.849 32.1549C478.153 32.1549 477.388 31.5874 477.109 30.9569C476.483 29.1282 473.977 26.4798 472.933 26.4798C472.446 26.4798 471.68 27.2996 471.332 28.3085C470.636 30.1371 470.567 30.2002 464.233 30.3894L457.9 30.5785L456.786 28.4977C456.23 27.4257 455.464 26.4798 455.046 26.4798C453.933 26.4798 451.01 29.7588 451.01 30.9569C451.01 31.7766 450.523 32.1549 449.409 32.218C448.435 32.218 447.112 33.1639 445.79 34.8033C440.083 41.9287 428.947 41.6765 423.658 34.3619C422.822 33.1008 421.5 32.1549 420.735 32.1549C419.83 32.0919 418.855 31.2091 417.881 29.4435C416.071 26.1015 414.401 25.7232 413.148 28.3715L412.244 30.3894H406.049H399.925L398.881 28.4346C398.324 27.3626 397.489 26.4798 397.002 26.4798C395.958 26.4798 393.522 29.1913 392.895 30.9569C392.617 31.5874 391.851 32.1549 391.155 32.1549C390.459 32.1549 389.276 33.1008 388.441 34.2358C384.822 39.5956 377.166 41.5504 370.902 38.7128C368.953 37.8301 364.708 33.7314 364.708 32.7855C364.708 32.4072 363.942 32.1549 362.968 32.1549C361.924 32.1549 361.228 31.7766 361.228 31.2722C361.228 30.2002 357.887 26.4798 356.983 26.4798C356.565 26.4798 355.869 27.3626 355.382 28.4977C354.477 30.3894 354.199 30.5155 351.206 30.3263L348.004 30.1371V33.0377C348.004 35.7492 348.144 35.9383 349.884 35.9383Z" fill="#C6BD9E" fill-opacity="0.71"/>
<path d="M351.136 18.9203C354.059 18.9203 354.338 19.0464 355.243 21.1273C355.799 22.3254 356.565 23.3343 356.983 23.3343C357.748 23.3343 360.81 19.8031 361.437 18.1006C361.715 17.533 362.411 17.0286 363.107 17.0286C363.803 16.9655 365.195 15.8936 366.169 14.5694C371.181 8.01148 381.899 7.94843 387.675 14.3802C388.859 15.7675 390.459 17.0286 391.225 17.2178C391.921 17.4069 392.826 18.2267 393.174 19.0464C393.522 19.8031 394.566 21.1273 395.47 21.947C397.35 23.5234 398.185 23.1451 399.089 20.3075C399.577 18.9834 399.994 18.9203 406.049 18.9203H412.452L413.357 21.1273C413.844 22.3254 414.471 23.3343 414.749 23.3343C415.654 23.3343 418.159 20.5598 418.925 18.7311C419.343 17.7222 420.178 17.0286 421.013 17.0286C421.709 17.0286 422.892 16.2719 423.588 15.263C425.885 12.0471 430.826 9.46179 434.863 9.46179C438.76 9.46179 444.12 12.1102 446.138 15.0738C447.321 16.7133 448.295 17.47 449.131 17.2808C449.966 17.1547 450.592 17.6592 451.079 18.7942C451.845 20.5598 454.35 23.3343 455.255 23.3343C455.534 23.3343 456.16 22.3254 456.647 21.1273L457.552 18.9203H463.885H470.219L471.472 21.1903L472.655 23.5234L474.673 21.7578C475.717 20.812 476.831 19.3617 477.04 18.542C477.388 17.47 477.944 17.0286 479.197 17.0286C480.171 17.0286 480.937 16.7764 480.937 16.4611C480.937 15.1999 484.835 11.7318 487.549 10.6599C493.186 8.32677 500.007 9.90318 503.765 14.4433C505.923 17.0286 506.758 17.7222 507.524 17.2808C507.802 17.0917 508.568 17.9114 509.194 19.0464C510.516 21.5056 512.256 23.3343 513.091 23.3343C513.439 23.3343 514.205 22.3254 514.762 21.1273C515.667 19.0464 515.945 18.9203 518.868 18.9203H522V16.5241C522 14.191 521.93 14.0649 518.729 13.3082C514.971 12.4255 513.439 11.4796 510.655 8.07454C509.472 6.68729 508.289 5.86755 507.663 6.11978C507.036 6.30895 506.41 5.8045 505.923 4.66948C505.157 2.77777 502.652 0.00327682 501.747 0.00327682C501.469 0.00327682 500.842 1.01218 500.355 2.21026L499.45 4.41725L492.978 4.41725C486.714 4.41725 486.505 4.35419 486.087 2.84083C485.322 -0.0597801 484.069 -0.248949 481.703 2.21026C480.519 3.4714 479.545 4.9217 479.545 5.42616C479.545 6.05672 479.127 6.30895 478.501 6.05672C477.944 5.86755 477.179 6.05672 476.761 6.49812C476.413 6.93952 475.23 8.20065 474.186 9.39873C468.688 15.5783 458.109 15.1369 452.889 8.38982C451.706 6.93952 450.175 5.67838 449.479 5.67838C448.783 5.67838 448.226 5.3631 448.226 4.9217C448.226 3.97585 444.816 0.00327682 443.98 0.00327682C443.563 0.00327682 442.797 1.01218 442.24 2.21026L441.266 4.41725H435.002L428.738 4.41725L427.764 2.21026C427.207 1.01218 426.442 0.00327682 426.024 0.00327682C425.258 0.00327682 422.196 3.53445 421.57 5.23699C421.291 5.86755 420.665 6.30895 420.108 6.18284C419.551 6.05672 418.159 7.19174 417.046 8.57899C414.61 11.6057 409.947 13.8758 406.258 13.8758C401.386 13.8758 396.375 11.1643 394.218 7.38091C393.591 6.37201 392.686 5.67838 392.06 5.8045C391.434 5.93061 390.529 5.3631 390.042 4.54336C389.624 3.78668 388.511 2.39943 387.675 1.57969C385.866 -0.185892 384.613 0.255505 383.917 2.84083C383.499 4.35419 383.291 4.41725 377.027 4.41725L370.554 4.41725L369.649 2.21026C369.162 1.01218 368.536 0.00327682 368.257 0.00327682C367.353 0.00327682 364.847 2.77777 364.082 4.54336C363.594 5.67838 362.829 6.30895 361.994 6.30895C361.228 6.30895 360.114 7.12869 359.349 8.20065C357.818 10.5968 353.851 13.056 350.51 13.5605C348.144 14.0019 348.004 14.128 348.004 16.4611V18.9203H351.136Z" fill="#C6BD9E" fill-opacity="0.71"/>
<path d="M361.443 27.5644C362.696 29.0147 364.157 30.2128 364.853 30.2128C365.48 30.2758 366.593 31.3478 367.289 32.6089C369.308 36.0771 373.205 37.9688 377.799 37.6535C382.114 37.4013 384.619 35.951 386.638 32.6089C387.403 31.3478 388.517 30.2758 389.143 30.2758C389.7 30.2758 391.231 29.0147 392.484 27.4383L394.711 24.6007L392.971 22.646C391.997 21.574 391.161 20.439 391.161 20.1237C391.161 19.8084 390.396 19.5562 389.491 19.5562C388.308 19.5562 387.682 19.1148 387.403 18.0428C386.846 16.025 382.74 12.8091 379.747 12.0525C374.875 10.8544 369.725 12.9983 367.15 17.2231C366.384 18.4842 365.201 19.5562 364.575 19.5562C363.949 19.5562 362.765 20.5651 361.93 21.7632C361.095 22.9613 360.121 23.9702 359.773 23.9702C358.729 23.9702 359.146 24.7269 361.443 27.5644Z" fill="#C6BD9E" fill-opacity="0.71"/>
</svg>
