<svg width="40" height="40" viewBox="0 0 40 40" fill="none" xmlns="http://www.w3.org/2000/svg">
<g clip-path="url(#clip0_7264_6448)">
<path d="M17.2392 18.7307C17.2392 18.8206 17.2348 18.9103 17.2259 18.9996C17.217 19.0891 17.2039 19.1781 17.1864 19.2662C17.1688 19.3544 17.147 19.4414 17.121 19.5274C17.0949 19.6135 17.0646 19.6979 17.0303 19.7809C16.996 19.864 16.9576 19.9452 16.9151 20.0245C16.8729 20.1038 16.8266 20.1808 16.7768 20.2554C16.7269 20.3303 16.6734 20.4022 16.6163 20.4719C16.5594 20.5413 16.4991 20.6079 16.4356 20.6713C16.3719 20.735 16.3056 20.7952 16.2361 20.8523C16.1665 20.9092 16.0945 20.9626 16.0197 21.0126C15.945 21.0625 15.8681 21.1086 15.7888 21.1511C15.7095 21.1935 15.6285 21.2319 15.5455 21.2662C15.4624 21.3006 15.3779 21.3308 15.2919 21.3569C15.206 21.3831 15.1189 21.4049 15.0307 21.4225C14.9427 21.44 14.8538 21.4531 14.7645 21.462C14.675 21.4707 14.5853 21.4751 14.4956 21.4751C14.4057 21.4751 14.316 21.4707 14.2267 21.462C14.1372 21.4531 14.0484 21.44 13.9603 21.4225C13.8721 21.4049 13.7851 21.3831 13.6991 21.3569C13.6131 21.3308 13.5286 21.3006 13.4456 21.2662C13.3625 21.2319 13.2815 21.1935 13.2022 21.1511C13.1229 21.1088 13.0459 21.0625 12.9713 21.0126C12.8966 20.9628 12.8245 20.9092 12.755 20.8523C12.6856 20.7952 12.619 20.735 12.5556 20.6713C12.4919 20.6079 12.4317 20.5413 12.3746 20.4719C12.3177 20.4022 12.2643 20.3303 12.2143 20.2554C12.1644 20.1808 12.1183 20.1038 12.0758 20.0245C12.0336 19.9452 11.9952 19.864 11.9607 19.7809C11.9263 19.6979 11.8961 19.6135 11.87 19.5274C11.844 19.4414 11.8222 19.3544 11.8046 19.2662C11.7871 19.1781 11.7739 19.0891 11.7651 18.9996C11.7564 18.9103 11.752 18.8206 11.752 18.7307C11.752 18.6408 11.7564 18.5511 11.7651 18.4616C11.7739 18.3723 11.7871 18.2834 11.8046 18.1952C11.8222 18.1071 11.844 18.0201 11.87 17.9341C11.8961 17.848 11.9263 17.7635 11.9607 17.6804C11.9952 17.5974 12.0336 17.5162 12.0758 17.4369C12.1183 17.3577 12.1644 17.2807 12.2143 17.206C12.2643 17.1312 12.3177 17.0592 12.3746 16.9896C12.4317 16.9202 12.4919 16.8536 12.5556 16.7901C12.619 16.7265 12.6856 16.6663 12.755 16.6092C12.8245 16.5523 12.8966 16.4987 12.9713 16.4489C13.0459 16.3989 13.1229 16.3526 13.2022 16.3104C13.2815 16.268 13.3625 16.2296 13.4456 16.1952C13.5286 16.1609 13.6131 16.1306 13.6991 16.1044C13.7851 16.0783 13.8721 16.0565 13.9603 16.039C14.0484 16.0214 14.1372 16.0083 14.2267 15.9994C14.316 15.9908 14.4057 15.9863 14.4956 15.9863C14.5853 15.9863 14.675 15.9908 14.7645 15.9994C14.8538 16.0083 14.9427 16.0214 15.0307 16.039C15.1189 16.0565 15.206 16.0783 15.2919 16.1044C15.3779 16.1306 15.4624 16.1609 15.5455 16.1952C15.6285 16.2296 15.7095 16.268 15.7888 16.3104C15.8681 16.3526 15.945 16.3989 16.0197 16.4489C16.0945 16.4987 16.1665 16.5523 16.2361 16.6092C16.3056 16.6663 16.3719 16.7265 16.4356 16.7901C16.4991 16.8536 16.5594 16.9202 16.6163 16.9896C16.6734 17.0592 16.7269 17.1312 16.7768 17.206C16.8266 17.2807 16.8729 17.3577 16.9151 17.4369C16.9576 17.5162 16.996 17.5974 17.0303 17.6804C17.0646 17.7635 17.0949 17.848 17.121 17.9341C17.147 18.0201 17.1688 18.1071 17.1864 18.1952C17.2039 18.2834 17.217 18.3723 17.2259 18.4616C17.2348 18.5511 17.2392 18.6408 17.2392 18.7307Z" fill="#19473E"/>
<path d="M8.5398 20.3288C8.67985 20.8524 8.88548 21.3518 9.15381 21.815C9.27862 22.0304 9.27649 22.2972 9.14821 22.5113L8.57009 23.4766L9.75257 24.6595L10.7169 24.0804C10.931 23.9513 11.1978 23.95 11.4138 24.075C11.8755 24.3425 12.3755 24.5489 12.8988 24.689C13.1395 24.7534 13.3268 24.9436 13.3872 25.1857L13.6594 26.2781H15.3317L15.6046 25.1851C15.665 24.9429 15.8523 24.7534 16.093 24.6882C16.6164 24.5484 17.1164 24.3418 17.578 24.0742C17.7935 23.9494 18.0608 23.9508 18.275 24.0798L19.2393 24.6589L20.4217 23.476L19.8436 22.5106C19.7153 22.2966 19.7132 22.0304 19.838 21.8142C20.1056 21.3518 20.312 20.8516 20.452 20.3281C20.5165 20.0873 20.7065 19.9 20.9486 19.8397L22.0406 19.5673V17.8944L20.9478 17.6215C20.7057 17.5611 20.5165 17.3744 20.452 17.1336C20.3114 16.6101 20.1048 16.1099 19.8375 15.6467C19.7126 15.4313 19.7146 15.1645 19.8429 14.9504L20.4212 13.9857L19.2385 12.8028L18.2736 13.3813C18.0595 13.5102 17.7927 13.5117 17.5774 13.3867C17.115 13.1192 16.6156 12.9128 16.0917 12.7719C15.851 12.7075 15.6644 12.5175 15.604 12.276L15.3317 11.1836H13.6594L13.3864 12.2766C13.3261 12.5189 13.1395 12.7083 12.8988 12.7727C12.3747 12.9133 11.8755 13.1199 11.4131 13.3875C11.1978 13.5123 10.931 13.5109 10.7169 13.3819L9.7518 12.8036L8.56932 13.9864L9.14764 14.9511C9.27592 15.1651 9.27784 15.4321 9.15304 15.6475C8.88548 16.1099 8.67908 16.6101 8.53845 17.1342C8.47402 17.3751 8.28402 17.5617 8.0425 17.6221L6.95068 17.8944V19.5673L8.04328 19.8402C8.28537 19.9014 8.47537 20.0879 8.5398 20.3288ZM14.4956 14.6141C16.7653 14.6141 18.611 16.4606 18.611 18.7309C18.611 21.0011 16.7653 22.8476 14.4956 22.8476C12.226 22.8476 10.3801 21.0011 10.3801 18.7309C10.3801 16.4606 12.226 14.6141 14.4956 14.6141Z" fill="#E09F00"/>
<path d="M4.89332 7.06738H2.83545V37.256H26.1562V29.9929L22.5258 33.6245C22.4435 33.7069 22.3412 33.7672 22.2294 33.7987L17.428 35.171C17.3657 35.1887 17.3027 35.1978 17.2396 35.1978C17.0598 35.1978 16.8848 35.127 16.7546 34.9966C16.6242 34.8664 16.5542 34.6914 16.5542 34.5116H4.89332C4.51465 34.5116 4.20736 34.2041 4.20736 33.8255V29.7088C4.20736 29.3301 4.51465 29.0228 4.89332 29.0228H18.3273L26.1562 21.1916V7.06738H24.0986V7.75353C24.0986 8.1322 23.7913 8.43949 23.4126 8.43949H5.57908C5.20042 8.43949 4.89332 8.1322 4.89332 7.75353V7.06738ZM5.57908 17.3589C5.57908 17.044 5.7932 16.7695 6.09837 16.6933L7.33101 16.3853C7.45023 16.019 7.5978 15.6629 7.77063 15.3218L7.11766 14.2331C6.95582 13.9626 6.99826 13.6175 7.22048 13.3945L9.1603 11.4543C9.38252 11.2319 9.72743 11.1887 9.99768 11.3513L11.0862 12.0045C11.4278 11.8317 11.7832 11.6849 12.1495 11.5647L12.4574 10.3319C12.5349 10.0259 12.8092 9.81179 13.124 9.81179H15.8677C16.1825 9.81179 16.4568 10.0259 16.533 10.3311L16.841 11.5641C17.2072 11.6835 17.5625 11.8309 17.9041 12.0039L18.9927 11.3508C19.2635 11.1887 19.6078 11.2313 19.8302 11.4536L21.7699 13.394C21.9929 13.6162 22.0353 13.9621 21.8727 14.2323L21.2197 15.3212C21.3925 15.6629 21.5393 16.0182 21.6595 16.3847L22.892 16.6928C23.1979 16.7695 23.4126 17.044 23.4126 17.3589V20.1035C23.4126 20.4183 23.1979 20.6928 22.8933 20.769L21.6609 21.077C21.5415 21.4433 21.3947 21.7987 21.2218 22.1405L21.8748 23.2286C22.0366 23.4989 21.9942 23.844 21.772 24.067L19.8322 26.008C19.6099 26.231 19.265 26.2736 18.994 26.111L17.9055 25.4578C17.5638 25.6307 17.2087 25.7782 16.8424 25.8974L16.5343 27.1305C16.4568 27.4364 16.1825 27.6505 15.8677 27.6505H13.124C12.8092 27.6505 12.5349 27.4364 12.4587 27.1312L12.1508 25.8982C11.7845 25.7788 11.4284 25.632 11.0876 25.4584L9.99903 26.1116C9.72955 26.2742 9.38387 26.2317 9.16087 26.0087L7.22125 24.0678C6.99826 23.8454 6.95582 23.4997 7.11824 23.2292L7.77121 22.1411C7.59837 21.7994 7.45158 21.4433 7.33236 21.0776L6.09972 20.7695C5.7932 20.6928 5.57908 20.4183 5.57908 20.1035V17.3589Z" fill="#19473E"/>
<path d="M22.7263 3.61291C20.3949 3.45569 18.1391 2.50276 16.3082 0.889721C15.3077 0.00681181 13.684 0.00681181 12.6832 0.889721C10.852 2.50353 8.59605 3.45569 6.26465 3.61291V4.3224H22.7263V3.61291Z" fill="#19473E"/>
<path d="M6.26465 5.69434H22.7263V7.06664H6.26465V5.69434Z" fill="#19473E"/>
<path d="M27.5275 6.38052V19.8186L28.8995 18.4463V5.00822C28.8995 4.63033 28.5914 4.32227 28.2135 4.32227H24.0981V5.69437H26.8418C27.2203 5.69437 27.5275 6.00186 27.5275 6.38052Z" fill="#19473E"/>
<path d="M19.5811 29.7085L30.2714 19.0146L32.7309 21.4749L22.0405 32.1688L19.5811 29.7085Z" fill="#19473E"/>
<path d="M27.5279 37.9415C27.5279 38.3201 27.2207 38.6274 26.8422 38.6274H2.14967C1.771 38.6274 1.46371 38.3201 1.46371 37.9415V6.38052C1.46371 6.00186 1.771 5.69437 2.14967 5.69437H4.8933V4.32227H0.777754C0.39986 4.32227 0.0917969 4.63033 0.0917969 5.00822V39.3136C0.0917969 39.6917 0.39986 39.9997 0.777754 39.9997H28.2139C28.5918 39.9997 28.8999 39.6917 28.8999 39.3136V27.2478L27.5279 28.6199V37.9415Z" fill="#19473E"/>
<path d="M31.2412 18.0442L32.3292 16.9561L34.7887 19.4163L33.7009 20.5045L31.2412 18.0442Z" fill="#19473E"/>
<path d="M20.7315 32.7998L18.9509 31.0186L18.2383 33.5126L20.7315 32.7998Z" fill="#19473E"/>
<path d="M36.8465 15.9868L35.7585 14.8986C35.3978 14.5377 34.7475 14.5377 34.3868 14.8986L33.2988 15.9868L35.7585 18.447L36.8465 17.3589C37.0268 17.1785 37.1304 16.9281 37.1304 16.6729C37.1304 16.4177 37.0268 16.1671 36.8465 15.9868Z" fill="#19473E"/>
<path d="M16.9178 33.1389L17.7018 30.3945H5.5791V33.1389H16.9178Z" fill="#19473E"/>
</g>
<defs>
<clipPath id="clip0_7264_6448">
<rect width="40" height="40" fill="white"/>
</clipPath>
</defs>
</svg>
