<?xml version="1.0" standalone="no"?>
<!DOCTYPE svg PUBLIC "-//W3C//DTD SVG 20010904//EN"
 "http://www.w3.org/TR/2001/REC-SVG-20010904/DTD/svg10.dtd">
<svg version="1.0" xmlns="http://www.w3.org/2000/svg"
 width="1600.000000pt" height="757.000000pt" viewBox="0 0 1600.000000 757.000000"
 preserveAspectRatio="xMidYMid meet">

<g transform="translate(0.000000,757.000000) scale(0.100000,-0.100000)"
fill="#000000" stroke="none">
<path d="M13467 7559 c-139 -14 -269 -51 -444 -127 -166 -72 -343 -177 -389
-232 -14 -16 -35 -32 -47 -36 -12 -3 -47 -30 -77 -58 -30 -29 -89 -81 -130
-115 -105 -88 -361 -359 -440 -466 -36 -49 -92 -130 -124 -180 -32 -49 -73
-106 -91 -126 -18 -20 -36 -47 -40 -60 -4 -13 -24 -44 -45 -69 -48 -59 -101
-142 -208 -330 -84 -147 -91 -155 -117 -152 -40 5 -79 26 -272 154 -94 62
-218 143 -275 181 -297 194 -554 418 -700 607 -42 55 -91 105 -136 137 -42 31
-79 67 -93 93 -18 32 -45 55 -107 93 -100 61 -138 66 -180 24 -26 -27 -27 -30
-26 -141 2 -126 26 -226 70 -291 13 -20 24 -41 24 -48 0 -15 130 -282 164
-335 14 -22 74 -136 134 -253 60 -118 126 -238 146 -268 47 -70 47 -91 0 -91
-27 0 -43 -7 -66 -32 -44 -48 -98 -137 -105 -172 -3 -17 -34 -74 -68 -126 -34
-52 -77 -133 -95 -180 -18 -46 -64 -138 -102 -203 -39 -66 -95 -167 -125 -226
-31 -58 -61 -109 -67 -113 -7 -4 -25 -38 -41 -75 -34 -80 -64 -130 -95 -158
-12 -11 -33 -44 -46 -72 -22 -51 -25 -53 -61 -53 -21 0 -69 9 -108 20 -100 29
-175 34 -300 21 -174 -18 -278 -67 -291 -138 -5 -26 -1 -36 21 -57 36 -33 85
-34 185 -2 125 40 181 48 235 36 58 -13 90 -29 79 -40 -5 -4 -52 -15 -104 -24
-150 -26 -191 -36 -254 -64 l-58 -26 6 -45 c14 -100 62 -127 216 -118 59 4
115 9 125 13 16 7 17 3 12 -30 -4 -27 -21 -53 -55 -90 -27 -28 -52 -65 -56
-81 -4 -16 -33 -55 -64 -85 -40 -39 -86 -107 -162 -236 -58 -100 -131 -210
-162 -245 -30 -35 -81 -102 -112 -149 -94 -140 -134 -192 -185 -245 -27 -27
-61 -70 -76 -95 -15 -24 -114 -136 -219 -249 -190 -204 -192 -205 -476 -418
-157 -117 -310 -225 -340 -239 -60 -30 -57 -28 -180 -90 -153 -76 -323 -114
-603 -135 -139 -10 -173 -9 -270 6 -164 25 -555 132 -732 200 -203 78 -343
138 -513 221 -106 52 -195 94 -197 94 -10 0 -261 112 -391 175 -73 34 -331
178 -575 320 -592 343 -621 359 -719 425 -47 32 -105 67 -130 80 -25 12 -85
50 -135 84 -49 35 -112 75 -139 91 -27 16 -74 51 -105 78 -31 27 -121 88 -201
135 -80 48 -176 114 -215 148 -38 33 -99 80 -135 104 -76 51 -195 146 -230
185 -14 15 -131 116 -260 223 -321 268 -478 410 -552 499 -35 42 -117 140
-183 218 -189 225 -313 437 -371 635 -31 105 -37 140 -37 220 0 82 5 107 33
185 20 56 44 103 63 124 77 82 206 186 262 211 62 28 388 112 508 130 38 6
103 17 145 25 78 15 429 58 622 76 58 6 200 8 315 5 116 -4 269 -2 340 4 278
22 320 23 441 7 65 -9 290 -23 499 -32 466 -19 446 -18 690 -43 211 -23 424
-43 640 -62 117 -11 436 -48 590 -70 213 -30 390 -50 483 -55 59 -4 161 -15
227 -27 66 -11 179 -24 250 -28 72 -5 236 -23 365 -40 129 -17 502 -64 829
-105 327 -42 622 -82 655 -91 95 -25 206 -16 281 21 l60 30 -2 43 c-4 89 -40
104 -263 114 -274 11 -398 24 -500 51 -62 17 -136 27 -215 32 -247 13 -477 41
-542 66 -15 5 -115 14 -222 20 -188 9 -236 15 -401 46 -41 7 -130 18 -197 23
-67 4 -126 11 -131 14 -13 8 -275 34 -462 46 -250 16 -380 29 -540 56 -80 14
-225 29 -324 34 -98 5 -233 18 -300 29 -66 11 -179 22 -251 25 -71 3 -148 10
-170 16 -22 5 -102 10 -178 10 -75 0 -183 7 -240 16 -164 26 -1120 34 -1682
14 -326 -11 -501 -32 -850 -99 -177 -34 -210 -42 -372 -95 -152 -50 -199 -72
-247 -116 -23 -21 -76 -57 -118 -79 -134 -73 -195 -159 -239 -341 -29 -120
-31 -275 -5 -369 33 -120 196 -498 225 -521 24 -19 158 -190 187 -239 20 -33
66 -88 102 -124 37 -35 91 -92 121 -126 30 -35 87 -88 128 -118 40 -31 73 -59
73 -63 0 -24 142 -168 227 -229 113 -82 226 -176 298 -247 28 -27 91 -76 140
-109 50 -32 128 -91 175 -130 47 -40 103 -83 125 -97 22 -14 81 -58 130 -98
50 -40 109 -81 133 -92 24 -11 168 -109 320 -217 152 -109 320 -222 372 -251
106 -59 536 -314 617 -366 28 -19 55 -34 58 -34 4 0 46 -26 94 -59 48 -32 128
-79 178 -104 50 -26 133 -72 184 -103 52 -31 112 -63 134 -71 22 -7 57 -28 78
-45 22 -17 81 -46 133 -64 102 -37 156 -62 248 -118 32 -19 88 -45 125 -57 36
-12 94 -37 127 -56 34 -18 101 -47 149 -63 48 -16 117 -46 154 -66 85 -47 178
-81 376 -137 88 -26 194 -58 235 -73 65 -23 99 -27 255 -35 99 -4 243 -11 321
-15 136 -6 146 -6 320 31 232 48 292 65 449 132 209 88 332 159 530 306 68 50
150 122 189 165 38 42 159 170 268 283 146 152 254 278 409 475 116 148 239
304 272 347 34 43 81 112 105 155 24 42 54 85 67 95 14 10 40 51 58 90 19 40
66 119 104 177 39 58 85 134 103 170 58 117 77 126 202 94 48 -13 91 -15 186
-11 122 5 122 5 122 -18 0 -12 -7 -28 -14 -35 -8 -6 -22 -34 -31 -61 -9 -27
-32 -67 -51 -90 -18 -22 -39 -59 -45 -82 -6 -23 -17 -55 -25 -70 -42 -84 21
-166 101 -133 39 17 336 309 420 414 56 71 90 100 103 88 3 -4 -4 -19 -16 -34
-11 -15 -47 -65 -78 -110 l-57 -84 15 -46 c14 -46 15 -47 56 -45 55 2 75 17
230 161 72 69 132 119 132 113 0 -6 -6 -27 -14 -45 -18 -43 -28 -105 -31 -186
-1 -46 -10 -82 -29 -124 -15 -33 -54 -143 -87 -245 -33 -102 -72 -217 -85
-256 -14 -38 -39 -117 -55 -175 -17 -58 -51 -161 -76 -230 -24 -69 -56 -156
-70 -195 -13 -38 -31 -86 -38 -105 -58 -149 -154 -470 -196 -660 -12 -52 -39
-139 -60 -193 -22 -53 -39 -111 -39 -127 0 -16 -13 -71 -29 -122 -54 -174 -66
-241 -87 -468 -8 -91 -18 -204 -23 -251 -11 -117 -6 -146 31 -165 16 -8 43
-14 60 -12 34 3 11 -32 315 483 85 145 441 836 472 918 14 35 1 68 -36 89 -33
19 -42 14 -89 -47 -34 -45 -63 -93 -124 -210 -23 -44 -48 -87 -55 -95 -7 -8
-22 -42 -34 -75 -42 -112 -144 -310 -185 -357 -23 -26 -49 -69 -59 -95 -30
-79 -42 -98 -63 -101 -38 -5 -44 18 -23 80 10 31 25 99 33 150 17 106 30 157
74 278 17 47 48 148 68 225 20 77 44 156 54 175 10 19 25 62 34 95 59 210 180
573 212 637 13 26 28 79 34 118 11 76 29 133 78 245 17 39 38 99 48 135 10 36
23 77 31 92 7 14 24 70 38 123 13 53 43 140 65 193 23 53 49 135 60 182 34
152 53 178 172 244 37 20 114 72 172 116 133 99 120 92 149 79 15 -7 32 -31
47 -65 22 -54 22 -54 66 -54 54 0 88 30 105 94 22 82 -15 215 -84 300 -24 29
-24 29 -72 16 -46 -13 -48 -12 -66 11 -10 13 -26 45 -34 70 -9 26 -30 68 -47
93 -40 61 -36 88 32 230 29 61 62 140 73 178 12 37 28 69 35 70 8 2 24 26 35
54 12 28 89 189 172 358 l150 306 37 0 c25 0 45 -7 58 -20 11 -11 29 -21 40
-21 11 -1 26 -2 32 -3 7 0 18 -13 25 -27 11 -23 22 -28 70 -34 32 -3 101 -25
153 -47 52 -22 116 -46 142 -53 25 -7 73 -29 105 -49 33 -20 71 -36 88 -36 17
0 82 -18 145 -41 290 -103 342 -119 445 -139 61 -11 193 -41 294 -66 102 -25
243 -54 314 -64 71 -11 154 -24 185 -30 231 -42 772 -63 902 -35 41 9 134 27
207 40 209 38 260 63 432 210 38 33 79 67 90 75 32 23 120 274 137 390 24 165
20 208 -42 521 -31 160 -111 407 -158 492 -19 34 -42 89 -51 122 -22 77 -39
109 -87 166 -21 25 -47 73 -58 106 -13 38 -40 84 -74 125 -30 36 -61 79 -70
96 -9 17 -41 50 -71 72 -33 24 -64 58 -76 83 -31 60 -132 155 -196 183 -30 13
-71 42 -91 64 -34 36 -48 42 -152 69 -248 65 -509 91 -703 70z m339 -114 c27
-8 87 -19 134 -25 134 -15 211 -47 346 -141 116 -80 122 -87 189 -188 43 -66
84 -116 107 -131 46 -30 212 -274 253 -371 15 -35 47 -120 72 -188 24 -69 50
-132 58 -141 9 -9 40 -127 70 -261 107 -473 99 -419 86 -543 -28 -277 -93
-380 -305 -486 -151 -74 -268 -102 -536 -125 -220 -19 -327 -19 -415 1 -38 9
-113 20 -165 24 -103 9 -205 23 -315 45 -38 7 -111 18 -162 24 -60 7 -116 22
-165 42 -40 18 -136 45 -213 61 -77 16 -169 37 -205 47 -36 11 -152 42 -259
71 -111 29 -223 66 -260 85 -90 45 -349 152 -441 182 -41 13 -97 38 -123 55
-56 36 -56 29 14 170 101 203 252 416 630 888 168 210 211 258 305 336 281
233 355 286 500 358 60 29 116 61 124 70 39 48 208 100 395 122 72 8 145 19
161 24 43 12 65 12 120 -5z m-4014 -847 c39 -32 185 -206 200 -240 10 -23 26
-40 40 -43 13 -4 32 -21 42 -40 10 -19 37 -46 59 -61 22 -14 86 -72 142 -128
122 -122 183 -171 252 -201 29 -13 74 -45 101 -72 31 -31 86 -68 153 -102 57
-29 145 -79 194 -111 50 -32 130 -79 178 -104 102 -55 100 -41 26 -186 -52
-103 -101 -201 -161 -323 -21 -43 -38 -91 -38 -107 0 -15 -11 -47 -24 -71 -13
-24 -29 -61 -35 -81 -7 -20 -22 -43 -34 -51 -14 -9 -39 -56 -67 -126 -24 -61
-48 -111 -51 -111 -7 0 -54 108 -157 362 -33 81 -74 169 -91 195 -17 26 -41
79 -52 117 -12 39 -29 81 -40 94 -10 13 -23 40 -30 59 -6 20 -29 64 -51 97
-21 33 -41 77 -45 98 -3 22 -28 76 -56 121 -66 108 -277 523 -277 546 0 10
-31 70 -69 132 -101 169 -151 278 -151 331 0 21 19 24 42 6z m500 -1516 c64
-130 132 -275 151 -322 19 -47 71 -165 116 -263 93 -204 116 -274 107 -326
-14 -85 -28 -111 -94 -180 -37 -38 -96 -101 -130 -140 -35 -39 -68 -71 -73
-71 -5 0 -9 10 -9 21 0 22 39 76 117 161 45 49 51 72 32 126 -11 31 -32 42
-84 42 -41 -1 -66 -17 -110 -70 -65 -79 -485 -499 -505 -505 -17 -5 -18 -3
-10 25 5 17 22 49 39 72 17 23 38 64 47 92 10 30 73 134 153 251 334 491 312
456 301 494 -5 19 -17 42 -26 52 -20 22 -73 25 -96 7 -16 -13 -213 -339 -264
-438 -19 -37 -39 -60 -61 -70 -24 -11 -32 -23 -37 -50 -3 -19 -28 -71 -56
-115 -28 -44 -62 -106 -77 -138 -26 -55 -29 -58 -58 -53 -16 3 -67 10 -112 17
-82 11 -83 12 -83 40 0 20 10 35 35 55 20 15 56 64 84 113 53 93 43 88 133 74
27 -3 50 1 82 17 43 21 45 23 52 78 3 32 21 87 40 126 19 39 34 80 34 92 0 12
8 32 19 45 10 13 35 56 54 94 20 39 60 111 89 160 29 50 66 124 82 165 17 41
42 93 58 114 23 33 28 50 28 102 l0 61 -45 13 c-43 12 -47 11 -70 -10 -14 -13
-43 -59 -65 -102 -22 -44 -53 -99 -70 -123 -16 -24 -30 -47 -30 -52 0 -4 -15
-27 -33 -49 -18 -23 -55 -83 -81 -133 -27 -49 -60 -98 -74 -107 l-25 -16 6 39
c4 22 27 77 52 122 66 120 130 251 186 380 27 63 59 126 72 140 13 14 32 49
41 76 30 86 38 105 45 105 3 0 59 -107 123 -238z"/>
<path d="M7013 4232 c-17 -9 -62 -34 -100 -54 -187 -99 -265 -163 -284 -230
-9 -34 -7 -46 11 -83 12 -24 31 -50 44 -58 31 -21 122 -47 162 -47 18 0 35 -4
38 -9 4 -5 -7 -44 -24 -87 -42 -108 -42 -185 -1 -242 30 -40 85 -83 151 -117
30 -16 52 -17 175 -11 188 9 345 30 392 54 21 11 64 25 96 31 58 10 96 26 98
39 2 12 2 56 0 85 -1 27 -2 27 -67 27 -37 0 -117 -11 -178 -24 -280 -62 -470
-73 -517 -30 -30 27 -22 88 26 192 41 89 49 94 114 71 37 -13 56 -2 64 37 7
40 -1 57 -40 82 l-35 24 25 26 c52 57 62 82 62 161 0 62 -5 84 -25 121 -16 27
-35 47 -50 51 -46 13 -105 9 -137 -9z"/>
<path d="M11463 4118 c-29 -38 -62 -109 -68 -143 -4 -22 -13 -71 -20 -110 -13
-64 -55 -339 -91 -590 -17 -117 -30 -499 -20 -569 13 -85 55 -104 147 -64 l50
21 47 -45 c67 -65 98 -78 186 -78 97 0 130 14 290 118 89 59 159 115 230 186
123 121 196 177 196 149 -1 -26 -33 -95 -88 -182 -39 -62 -47 -84 -47 -123 0
-64 31 -98 91 -98 36 0 46 5 61 27 10 15 101 111 202 214 l183 188 -6 63 c-4
35 -8 77 -9 93 l-2 30 185 -3 c102 -2 207 -5 233 -8 48 -6 48 -6 30 -26 -10
-11 -58 -39 -108 -62 -49 -24 -142 -77 -206 -118 -134 -88 -154 -115 -125
-174 29 -61 63 -69 261 -57 94 6 187 8 207 6 35 -5 36 -6 25 -32 -6 -14 -77
-91 -158 -171 -88 -87 -151 -157 -157 -175 -12 -38 2 -79 43 -128 30 -35 34
-37 128 -47 80 -9 111 -8 170 4 40 8 144 22 232 31 195 20 337 45 515 90 74
18 198 43 275 54 77 12 175 28 218 36 117 22 291 44 487 60 96 8 216 21 265
30 50 8 209 19 355 24 146 5 277 14 292 20 20 7 29 19 34 46 16 85 -42 122
-171 109 -44 -4 -129 -8 -190 -9 -60 0 -132 -5 -160 -12 -79 -19 -188 -35
-215 -33 -78 7 -256 -1 -325 -14 -113 -22 -639 -98 -705 -101 -30 -1 -86 -12
-125 -23 -38 -11 -106 -23 -149 -27 -43 -3 -111 -17 -150 -30 -132 -44 -441
-95 -572 -95 l-42 0 10 39 c7 29 21 47 49 67 21 15 73 64 115 110 42 46 89 92
105 101 29 17 69 94 69 132 0 11 -10 32 -23 47 -30 34 -106 43 -276 31 -154
-11 -166 -4 -100 56 25 23 101 71 170 107 68 36 149 81 180 101 31 21 78 46
103 58 l47 20 -3 53 c-3 50 -5 54 -43 76 -44 25 -85 25 -233 2 -46 -7 -174
-10 -343 -8 -262 3 -271 4 -287 24 -29 37 -59 39 -104 7 -42 -28 -59 -31 -224
-33 -35 0 -74 -32 -74 -61 0 -11 11 -36 25 -56 23 -35 24 -37 7 -66 -9 -16
-39 -47 -67 -68 -27 -22 -84 -66 -125 -99 -242 -193 -389 -286 -467 -297 -53
-7 -87 23 -115 102 -43 121 -32 470 23 755 59 305 59 330 9 412 -16 26 -30 55
-30 63 0 34 -23 63 -60 74 -47 14 -55 14 -67 -1z"/>
</g>
</svg>
