<svg width="22" height="19" viewBox="0 0 22 19" fill="none" xmlns="http://www.w3.org/2000/svg">
<path fill-rule="evenodd" clip-rule="evenodd" d="M10.3616 0.0520282C10.6051 -0.0172665 10.8619 -0.0173301 11.1053 0.0517622C11.6229 0.19863 12.1452 0.334853 12.6692 0.47153C15.13 1.11334 17.6293 1.76516 19.8528 3.57618L20.8767 4.41016C21.292 4.74845 21.4998 5.24918 21.5 5.75V12.75C21.5 13.1642 21.1642 13.5 20.75 13.5C20.3358 13.5 20 13.1642 20 12.75V7.80668L19.8371 7.93963C19.0666 8.56834 18.2628 9.05655 17.4388 9.45286C17.4782 9.54397 17.5 9.64444 17.5 9.75V14.0439C17.5 15.1772 16.8048 16.1944 15.7489 16.6061L11.7489 18.1656C11.1065 18.416 10.3935 18.416 9.7511 18.1656L5.7511 16.6061C4.69522 16.1944 4 15.1772 4 14.0439V9.75C4 9.64177 4.02292 9.5389 4.06418 9.44597C3.23383 9.04733 2.42373 8.55626 1.64724 7.92382L0.623302 7.08983C-0.207356 6.41327 -0.207793 5.08693 0.622146 4.40967L1.66292 3.56037C3.87037 1.75904 6.35193 1.11111 8.79453 0.47335C9.31971 0.336228 9.84309 0.199573 10.3616 0.0520282ZM20 5.7506C20 5.66051 19.9636 5.60102 19.9294 5.5732L18.9055 4.73922C16.75 3.25 14.8294 2.59319 12.3899 1.95216C11.8535 1.81121 11.3019 1.66626 10.734 1.50559C10.1635 1.66742 9.6099 1.81306 9.0717 1.95465C6.6518 2.59128 4.54323 3.14601 2.61128 4.72253L1.5705 5.57184C1.53631 5.59973 1.49996 5.65931 1.5 5.7494C1.50004 5.83949 1.53643 5.89898 1.57058 5.9268L2.59453 6.76078C4.54285 8.34767 6.67065 8.90681 9.11011 9.54784C9.64653 9.6888 10.1981 9.83373 10.766 9.99441C11.3365 9.83259 11.89 9.68696 12.4282 9.54538C14.8481 8.90875 16.9568 8.35399 18.8887 6.77747L19.9295 5.92816C19.9637 5.90029 20 5.84054 20 5.7506ZM12.7055 11.0266C13.8053 10.7395 14.913 10.4503 16 10.0546V14.0439C16 14.5591 15.684 15.0214 15.204 15.2085L11.204 16.768C10.9121 16.8818 10.5879 16.8818 10.296 16.768L6.29596 15.2085C5.81601 15.0214 5.5 14.5591 5.5 14.0439V10.0461C6.59877 10.4463 7.71869 10.7384 8.83078 11.0285C9.35482 11.1651 9.87713 11.3014 10.3947 11.4482C10.6381 11.5173 10.895 11.5173 11.1384 11.448C11.6569 11.3004 12.1803 11.1638 12.7055 11.0266Z" fill="white"/>
</svg>
