<svg xmlns="http://www.w3.org/2000/svg" width="60" height="60" viewBox="0 0 60 60">
  <g id="Group_29965" data-name="Group 29965" transform="translate(10136 9027)">
    <rect id="Rectangle_4274" data-name="Rectangle 4274" width="60" height="60" transform="translate(-10136 -9027)" fill="none"/>
    <g id="Group_29964" data-name="Group 29964" transform="translate(-12570 -22989.289)">
      <path id="Intersection_11" data-name="Intersection 11" d="M22.307,39.875h0l-.006,0h0l-.006,0h0l-.006,0h0l-.006,0h0l-.006,0h0l-.006,0h0l-.006,0h0l-.006,0h0l-.032-.021h0l0,0h0l0,0,0,0,0,0,0,0,0,0,0,0,0,0,0,0,0,0,0,0,0,0,0,0,0,0,0,0,0,0,0,0,0,0,0,0,0,0,0,0,0,0,0,0,0,0,0,0,0,0,0,0,0,0,0,0,0,0,0,0,0,0,0,0-.006,0c-1.959-1.7-3.825-3.274-5.579-4.754C10.286,29.707,5.292,25.563,2.519,21.2h9.7a1.348,1.348,0,0,0,1.205-.745l1.489-2.979L19.1,25.844a1.4,1.4,0,0,0,2.411,0l1.445-2.889V40.063A1.346,1.346,0,0,1,22.307,39.875ZM16.117,13.86a1.4,1.4,0,0,0-2.411,0L11.384,18.5H1.1A14,14,0,0,1,0,13.049C0,5.609,5.3,0,12.217,0h1.172a12.188,12.188,0,0,1,8.839,5.825h0l.005.008,0,0,0,.007,0,0,0,.007,0,0,0,.006,0,0,0,0,0,.007v0l.005.008,0,0,.005.008v0l0,.008,0,0,.005.008v0l.005.008v0c.238.367.456.736.655,1.1V18.565l-.05,0h0a1.522,1.522,0,0,0-.347.062h-.079l0,0h-.013l-.016.006h0l0,0h-.043l0,0h0l0,0h0l0,0h0l0,0h0l0,0h0l0,0h0l0,0h0l0,0h0l0,0h0l0,0h0l0,0h0l0,0h0a1.2,1.2,0,0,0-.491.444h0l0,0h0l0,0h0l0,0h0l0,0h0l0,0h0l0,0h0l0,0h0l0,0h0l0,0h0l0,0h0l0,0h0l0,0h0l0,0h0l0,0h0l0,0h0l-.005.011L20.3,22.229Z" transform="translate(2441 13981)" fill="#ff3f2e"/>
      <path id="Subtraction_7" data-name="Subtraction 7" d="M.045,40.063H0V22.955l.045-.09,1.49,2.979a1.348,1.348,0,0,0,2.411,0l4.184-8.369,1.49,2.979a1.342,1.342,0,0,0,1.205.745h9.7a34.5,34.5,0,0,1-5.472,6.329c-2.27,2.16-4.894,4.373-7.931,6.936h0l-.055.047-.556.469,0,0h0c-1.689,1.425-3.6,3.04-5.575,4.751A1.349,1.349,0,0,1,.045,40.063ZM2.74,22.229h0L1.25,19.249a1.317,1.317,0,0,0-1.205-.685H0V7.09l.019.035,0,0,.011.021,0,.006.008.015A16.715,16.715,0,0,1,1.736,4.618,13.872,13.872,0,0,1,4.079,2.312,10.861,10.861,0,0,1,10.824,0a12.343,12.343,0,0,1,2.51.256,11.7,11.7,0,0,1,4.394,1.912,11.955,11.955,0,0,1,1.8,1.568A12.406,12.406,0,0,1,21,5.651,13.042,13.042,0,0,1,22.1,7.872a14.351,14.351,0,0,1,.937,5.178,13.953,13.953,0,0,1-.284,2.81,14.585,14.585,0,0,1-.821,2.646H11.657L9.335,13.86a1.317,1.317,0,0,0-1.205-.685,1.317,1.317,0,0,0-1.205.685L2.74,22.229Z" transform="translate(2463.951 13981)" fill="#cf0404"/>
    </g>
  </g>
</svg>
