<?xml version="1.0" encoding="UTF-8"?>
<svg version="1.1" xmlns="http://www.w3.org/2000/svg" width="512" height="512">
<path d="M0 0 C168.96 0 337.92 0 512 0 C512 168.96 512 337.92 512 512 C343.04 512 174.08 512 0 512 C0 343.04 0 174.08 0 0 Z " fill="#FDFDFC" transform="translate(0,0)"/>
<path d="M0 0 C3.64126997 1.57024463 6.22451169 3.82555685 9.1875 6.4375 C26.63935236 21.28058417 47.83440805 31.83887585 67.62002563 43.24029541 C95.13927716 59.10895832 122.05275534 75.83754483 145 98 C146.21236328 99.11761719 146.21236328 99.11761719 147.44921875 100.2578125 C163.05100741 115.01552534 175.6438004 136.66711038 176.41723633 158.44042969 C176.62178994 180.49278816 167.73580505 202.61107674 152.5625 218.5625 C150.7926517 221.32346335 150.12284253 223.55049241 150.30078125 226.8515625 C151.53109315 230.63185046 154.49557933 232.77655244 157.36328125 235.41015625 C169.77498492 247.60120741 177.61593147 264.39703859 182 281 C182.26699361 281.96606265 182.53398722 282.9321253 182.80907154 283.92746258 C184.98648226 292.41104146 185.41220203 300.43182899 185.34057617 309.15356445 C185.3397276 310.62344343 185.34020951 312.09332366 185.34190369 313.5632019 C185.34275611 317.51076792 185.32525411 321.45805431 185.30418181 325.40555596 C185.28528782 329.54681962 185.28365464 333.68809136 185.28010559 337.82939148 C185.27082218 345.6524068 185.24625918 353.4752947 185.21605712 361.29825419 C185.18239701 370.21251554 185.16599806 379.12678332 185.15097082 388.04109251 C185.11970584 406.36080029 185.0670183 424.68038986 185 443 C179.78968727 443.09980707 174.57994615 443.17190561 169.36889648 443.21972656 C167.60089407 443.23968762 165.83295634 443.26686652 164.06518555 443.30175781 C146.29612365 443.64337393 146.29612365 443.64337393 138.09825134 439.93487549 C135.03355071 438.5693987 131.8615534 438.26490243 128.5625 437.75 C120.57196082 435.76250548 117.62131046 431.52418112 113.15234375 424.86962891 C109.51780934 419.47120331 106.24450832 416.22932543 100 414 C98.89885612 413.49238632 98.89885612 413.49238632 97.77546692 412.97451782 C94.55909719 411.84519086 91.9641297 411.72146899 88.55737305 411.68115234 C87.27642258 411.66128265 85.99547211 411.64141296 84.67570496 411.62094116 C83.28771131 411.60906656 81.89971583 411.5974036 80.51171875 411.5859375 C79.08395785 411.56721595 77.6562079 411.5476418 76.22846985 411.5272522 C72.48194854 411.47602899 68.73539139 411.43635106 64.9887085 411.39910889 C61.16100268 411.35900747 57.33344465 411.30794321 53.50585938 411.2578125 C46.00400783 411.16116951 38.50208448 411.07672787 31 411 C31 410.67 31 410.34 31 410 C31.65484375 409.85304688 32.3096875 409.70609375 32.984375 409.5546875 C44.89424372 406.62768586 55.43049756 401.97666222 63 392 C70.69280817 379.26707612 72.32681934 367.72253402 72.37109375 353.109375 C72.38008863 351.55828785 72.38921085 350.00720142 72.39845276 348.45611572 C72.41488257 345.2083528 72.42263023 341.96069209 72.42553711 338.71289062 C72.42981953 335.42544949 72.45050281 332.13880134 72.48706055 328.8515625 C72.72916063 306.66780152 72.68439356 285.25931606 62.3125 265 C61.88098633 264.13101074 61.44947266 263.26202148 61.00488281 262.36669922 C56.34437617 253.2707576 50.64067134 245.45082765 43.2578125 238.37109375 C32.06010986 227.49968735 32.06010986 227.49968735 31.5 219.4375 C31.9086261 215.5357798 32.26771033 213.70647612 35.10546875 210.96875 C37.6744494 209.44523954 40.27939489 208.22636507 43 207 C51.15383982 200.11453527 54.75470444 191.41401256 56 181 C56.15522112 177.9113297 56.18721874 174.82659755 56.203125 171.734375 C56.20882507 170.8603302 56.21452515 169.9862854 56.22039795 169.08575439 C56.22980181 167.24354241 56.23636346 165.40131395 56.24023438 163.55908203 C56.24992298 160.77215533 56.28098344 157.98597236 56.3125 155.19921875 C56.40906377 139.14643561 54.24073873 125.57720419 43 113.25 C32.52960304 103.39862988 19.37490067 99.47500196 5.265625 99.75390625 C-7.21766521 100.69463267 -18.37642169 106.27698485 -26.92578125 115.37890625 C-35.56134678 126.29126872 -38.29387903 137.14653217 -38.37109375 150.73828125 C-38.38012222 151.74030075 -38.3891507 152.74232025 -38.39845276 153.77470398 C-38.41288123 155.88321988 -38.42182343 157.9917798 -38.42553711 160.1003418 C-38.43742956 163.29358735 -38.48668707 166.48489552 -38.53710938 169.67773438 C-38.65215526 184.17961222 -37.43329827 195.97192938 -27 207 C-21.21129551 212.4765047 -14.37977092 215.22028629 -7 218 C-5.692539 236.5458314 -5.692539 236.5458314 -8.4296875 241.68359375 C-10.375 243.4375 -10.375 243.4375 -12.58203125 245.08203125 C-28.64757967 257.82546303 -36.08835862 282.56525452 -39 302 C-44.0831573 297.76117758 -48.76559985 293.30719947 -53.3671875 288.5546875 C-54.76110992 287.13351717 -56.15566047 285.7129627 -57.55078125 284.29296875 C-59.7179835 282.08255014 -61.88109845 279.8686974 -64.03369141 277.64404297 C-66.13321635 275.477517 -68.24865486 273.32760983 -70.3671875 271.1796875 C-70.99873749 270.51919403 -71.63028748 269.85870056 -72.28097534 269.17819214 C-77.75690447 263.67028548 -83.67499479 260.02607231 -91.5625 259.5 C-97.10017515 259.79959499 -101.78776122 261.58465245 -105.57421875 265.71875 C-108.66491345 269.89871532 -110.1556878 273.43016451 -110.3125 278.6875 C-110.34988281 279.49574219 -110.38726562 280.30398438 -110.42578125 281.13671875 C-108.92745022 291.21265126 -100.88413763 297.66751166 -94.0078125 304.453125 C-92.81647907 305.64207009 -91.62588856 306.83176002 -90.43600464 308.02215576 C-87.94898861 310.50605574 -85.4554385 312.98313079 -82.95654297 315.45507812 C-79.76323888 318.61436755 -76.5832952 321.78669922 -73.40771675 324.96379471 C-70.95296964 327.41799652 -68.49303338 329.86694048 -66.03133774 332.31417084 C-64.85725736 333.48191512 -63.68435953 334.65084967 -62.51269913 335.82102203 C-60.8716516 337.45770461 -59.22416666 339.08762121 -57.57470703 340.71582031 C-56.64079132 341.64211243 -55.70687561 342.56840454 -54.74465942 343.52276611 C-51.94460032 346.05000182 -49.18277925 347.99575789 -46 350 C-48.67307975 352.10281424 -51.29466122 353.76118556 -54.3503418 355.24902344 C-55.6276844 355.8754776 -55.6276844 355.8754776 -56.93083191 356.5145874 C-57.84439957 356.95836731 -58.75796722 357.40214722 -59.69921875 357.859375 C-61.65056557 358.81995719 -63.60173171 359.78090651 -65.55273438 360.7421875 C-68.61371819 362.24490123 -71.67613131 363.74446423 -74.74194336 365.23730469 C-77.71147313 366.68548128 -80.67438408 368.14654848 -83.63671875 369.609375 C-84.54016525 370.04505798 -85.44361176 370.48074097 -86.37443542 370.92962646 C-100.14947517 377.7628843 -110.6791764 387.35742343 -116 402 C-120.80262844 416.54317062 -117.50029167 429.24927082 -112 443 C-135.43 443 -158.86 443 -183 443 C-183.16121214 406.65114125 -183.16121214 406.65114125 -183.1953125 391.31835938 C-183.21896766 380.76741685 -183.2466448 370.21660289 -183.30175781 359.66577148 C-183.34189229 351.97869948 -183.36749537 344.29173265 -183.37635398 336.60455877 C-183.38152419 332.54219575 -183.39349072 328.48013336 -183.42292023 324.41786766 C-183.66468235 289.66689306 -178.300116 260.40685252 -154 234 C-153.08347656 233.12730469 -152.16695312 232.25460937 -151.22265625 231.35546875 C-148.70009977 229.07265629 -148.70009977 229.07265629 -148.125 225.375 C-148.4622296 220.05867447 -152.12492391 216.87371322 -155.48828125 213.03515625 C-169.51306604 196.08763248 -175.80295179 173.70621807 -174 152 C-170.78973392 131.53963326 -158.94830514 114.71931698 -145 100 C-144.24074219 99.18789062 -143.48148438 98.37578125 -142.69921875 97.5390625 C-136.01185962 90.59996972 -128.69445369 84.75989171 -121 79 C-120.32437012 78.49065918 -119.64874023 77.98131836 -118.95263672 77.45654297 C-102.18550149 64.87441029 -84.34142512 54.28737285 -66.1706543 43.87866211 C-31.0758541 24.70668243 -31.0758541 24.70668243 0 0 Z " fill="#009787" transform="translate(303,29)"/>
<path d="M0 0 C5.17061468 1.33722793 7.28691714 4.15533723 10.4140625 8.3203125 C24.32694111 24.78962111 48.33095599 35.37120399 66.625 45.9375 C83.2256028 55.53372311 99.74718012 65.16684394 115.625 75.9375 C116.75301025 76.70054443 116.75301025 76.70054443 117.90380859 77.47900391 C127.6396429 84.10323449 136.81012087 91.13204778 145.625 98.9375 C146.54152344 99.74316406 147.45804687 100.54882812 148.40234375 101.37890625 C167.39437445 118.25753804 181.64476333 137.32298123 188.625 161.9375 C188.87121094 162.76121094 189.11742187 163.58492187 189.37109375 164.43359375 C195.55599533 189.04523657 186.90081812 214.91334569 174.51953125 236.01953125 C172.625 238.9375 172.625 238.9375 170.32421875 241.57421875 C168.40279089 243.73929731 168.40279089 243.73929731 168.6953125 246.0546875 C169.7321791 248.1545602 170.83605383 249.41447676 172.5 251.0625 C197.20551492 278.46223774 200.43037835 313.29013681 200.23076439 348.41355753 C200.21035428 352.82069286 200.21654923 357.22780819 200.21887207 361.63497925 C200.21881892 369.00920574 200.19929343 376.38317232 200.16699219 383.75732422 C200.12987041 392.27323948 200.12135465 400.78881832 200.1282897 409.30480397 C200.13459166 417.53977483 200.12386193 425.77463101 200.10432434 434.0095787 C200.09616795 437.4999035 200.09343738 440.99016956 200.09501648 444.48050308 C200.09589504 448.57662972 200.08168748 452.67243624 200.05578995 456.76847839 C200.04863255 458.26928531 200.04654248 459.77012629 200.04990768 461.2709465 C200.05362554 463.31957904 200.03702472 465.36821839 200.01940918 467.41677856 C200.01568047 468.56219179 200.01195175 469.70760502 200.00811005 470.88772774 C199.57693554 474.32012023 198.73023151 476.20924396 196.625 478.9375 C193.84438025 479.86437325 192.20448141 480.05943396 189.3371582 480.05102539 C188.47649246 480.05094986 187.61582672 480.05087433 186.7290802 480.05079651 C185.80399155 480.04563522 184.87890289 480.04047394 183.92578125 480.03515625 C182.97559616 480.0337413 182.02541107 480.03232635 181.0464325 480.03086853 C178.01008971 480.02526875 174.97382052 480.01271632 171.9375 480 C169.87955836 479.99498497 167.82161556 479.99042207 165.76367188 479.98632812 C160.71741954 479.9752994 155.67122225 479.95803493 150.625 479.9375 C150.67720703 478.92429687 150.67720703 478.92429687 150.73046875 477.890625 C150.75753906 476.99859375 150.78460938 476.1065625 150.8125 475.1875 C150.86470703 473.86492187 150.86470703 473.86492187 150.91796875 472.515625 C150.57208688 469.47186457 149.54706641 468.25810511 147.625 465.9375 C147.625 465.2775 147.625 464.6175 147.625 463.9375 C159.505 463.9375 171.385 463.9375 183.625 463.9375 C183.60721155 444.87281367 183.56857091 425.80852946 183.49290943 406.74399281 C183.45842091 397.88976667 183.43292528 389.03569361 183.42944336 380.18139648 C183.4263808 372.45389414 183.40558655 364.72666554 183.36447543 356.99926871 C183.34334905 352.91674295 183.33043792 348.8346043 183.33884621 344.7520237 C183.39740243 310.51638778 178.03870583 282.32033519 154.625 255.9375 C153.44878697 254.86251842 152.26309071 253.79768529 151.0625 252.75 C148.625 249.9375 148.625 249.9375 147.6875 246.25 C148.09434916 241.00065357 151.78599355 237.7700474 155.11328125 233.97265625 C169.04878239 217.13302268 175.51577641 194.54283783 173.625 172.9375 C170.35566849 152.47314009 158.59121624 135.69834578 144.625 120.9375 C143.59632813 119.82955078 143.59632813 119.82955078 142.546875 118.69921875 C136.1494786 112.02934065 128.97810927 106.49537502 121.625 100.9375 C121.03444824 100.48616699 120.44389648 100.03483398 119.83544922 99.56982422 C98.83365661 83.55444239 75.63140736 70.76897168 52.80880737 57.57347107 C36.09784635 47.90624922 19.55736845 38.33594682 4.859375 25.71484375 C2.83661652 24.10583132 0.97892774 22.97949095 -1.375 21.9375 C-2.09236328 22.66839844 -2.09236328 22.66839844 -2.82421875 23.4140625 C-19.39834877 39.32291331 -40.9001175 50.22976067 -60.69921875 61.55859375 C-90.07263165 78.37640743 -118.49921379 95.80382911 -143.375 118.9375 C-144.12523437 119.62199219 -144.87546875 120.30648437 -145.6484375 121.01171875 C-161.43374576 135.99391483 -173.93384998 157.53275935 -174.84350586 179.58300781 C-175.13550253 200.83312229 -166.58978772 223.28025168 -151.875 238.6875 C-149.62024958 241.27328026 -149.30404122 242.23079627 -148.4375 245.8125 C-148.84451938 250.77245709 -152.25066671 253.14474494 -155.73828125 256.34765625 C-174.23766876 274.51816576 -183.56012285 301.89020718 -183.8117218 327.32049561 C-183.81054875 328.66027859 -183.80909001 330.00006135 -183.80737305 331.33984375 C-183.8164224 332.80032156 -183.82675719 334.26079187 -183.83825684 335.72125244 C-183.8654813 339.62929218 -183.87506345 343.53718655 -183.88111091 347.44530869 C-183.8905861 351.5505915 -183.91679567 355.65576946 -183.94111633 359.76098633 C-183.98453633 367.50944599 -184.01323287 375.25788502 -184.03643972 383.00642872 C-184.06362393 391.83861554 -184.10752642 400.67069559 -184.15272844 409.50280571 C-184.24522316 427.64764717 -184.31706361 445.7925169 -184.375 463.9375 C-183.07739998 463.89752899 -183.07739998 463.89752899 -181.75358582 463.85675049 C-173.56063225 463.61529419 -165.36888947 463.43311422 -157.17318249 463.31575394 C-152.96033454 463.25338179 -148.75044919 463.1689573 -144.53930664 463.03222656 C-140.4671046 462.90084996 -136.39773118 462.82989689 -132.32357216 462.79897308 C-130.77757551 462.77696978 -129.23171667 462.7339954 -127.68694115 462.66873932 C-114.98124388 462.15385878 -114.98124388 462.15385878 -110.04019165 466.54821777 C-107.19367975 469.470207 -104.8073869 472.66833391 -102.375 475.9375 C-101.06799254 477.29664939 -99.7445809 478.64142758 -98.375 479.9375 C-110.95311091 480.00696071 -123.53117632 480.06029136 -136.10943985 480.09293652 C-141.9498191 480.10860326 -147.79006728 480.12986014 -153.63037109 480.16381836 C-159.26487265 480.19637553 -164.89924801 480.21434541 -170.53383636 480.22213173 C-172.68526954 480.22768177 -174.83669569 480.23851941 -176.98807526 480.25469017 C-179.99773677 480.27641579 -183.00687446 480.27946893 -186.01660156 480.27807617 C-187.35556236 480.29425491 -187.35556236 480.29425491 -188.72157288 480.3107605 C-194.72609908 480.28062361 -194.72609908 480.28062361 -197.8973999 478.60371399 C-200.83669934 475.28921648 -200.50458785 471.82950682 -200.51544189 467.61018372 C-200.51841302 466.96554112 -200.52138414 466.32089852 -200.5244453 465.65672129 C-200.53313024 463.49224446 -200.53464044 461.32782296 -200.53613281 459.16333008 C-200.54076159 457.61251202 -200.54578634 456.06169511 -200.55117798 454.51087952 C-200.56430906 450.2911096 -200.57074977 446.07135562 -200.57518864 441.85156846 C-200.57812174 439.20996465 -200.58222728 436.56836517 -200.58669281 433.92676353 C-200.60037735 425.64752975 -200.61003603 417.36830587 -200.6138947 409.08906156 C-200.61836048 399.56081354 -200.63583512 390.03271004 -200.6648953 380.50450593 C-200.68661215 373.12506028 -200.69660449 365.74565496 -200.69793582 358.36617774 C-200.69897787 353.96700622 -200.70475508 349.56797037 -200.72275543 345.16883278 C-200.739407 341.01800867 -200.74131014 336.86741961 -200.73261642 332.71657372 C-200.73185475 331.20586893 -200.73607152 329.69515062 -200.74607468 328.18447876 C-200.92038483 300.18081426 -191.60423393 271.26032393 -172.3125 250.4375 C-171.72339844 249.8496875 -171.13429687 249.261875 -170.52734375 248.65625 C-169.19739358 247.03178034 -169.19739358 247.03178034 -169.42578125 245.12890625 C-170.79410644 241.96993328 -172.70091453 239.21283288 -174.625 236.375 C-188.24236141 215.66190948 -195.20803143 190.01930493 -190.29614258 165.35864258 C-183.3575466 135.10692454 -162.48023015 110.5067521 -138.375 91.9375 C-137.52760254 91.27548584 -137.52760254 91.27548584 -136.66308594 90.60009766 C-116.30113988 74.7273567 -94.05162195 61.75947731 -71.80444336 48.7512207 C-43.59474861 32.82129332 -43.59474861 32.82129332 -17.375 13.9375 C-16.85591064 13.52282471 -16.33682129 13.10814941 -15.80200195 12.6809082 C-12.99314877 10.41418213 -10.6368647 8.29374488 -8.6875 5.25 C-6.31122287 1.56717875 -4.63911142 -0.08590947 0 0 Z " fill="#EABE29" transform="translate(304.375,8.0625)"/>
<path d="M0 0 C9.27391651 8.62950539 15.49302122 19.41980907 16.52307129 32.15794373 C16.59732099 34.55418832 16.61341298 36.94249393 16.6015625 39.33984375 C16.60347595 40.21343033 16.6053894 41.08701691 16.60736084 41.98707581 C16.60871249 43.82154633 16.60508793 45.65602676 16.59667969 47.49047852 C16.58597862 50.27056768 16.59660324 53.05000887 16.609375 55.83007812 C16.60805297 57.6250014 16.60548968 59.41992428 16.6015625 61.21484375 C16.60561096 62.03182236 16.60965942 62.84880096 16.61383057 63.6905365 C16.55209521 71.43689429 15.6184099 79.22568923 11.9609375 86.15625 C11.56132812 86.93613281 11.16171875 87.71601563 10.75 88.51953125 C7.74316233 93.46170919 4.63655373 96.60927177 -0.2890625 99.65625 C-1.25070312 100.26082031 -2.21234375 100.86539063 -3.203125 101.48828125 C-5.6640625 102.84375 -5.6640625 102.84375 -7.6640625 102.84375 C-7.1690625 110.26875 -7.1690625 110.26875 -6.6640625 117.84375 C-8.29472656 118.29105469 -9.92539062 118.73835937 -11.60546875 119.19921875 C-17.25850416 120.75709416 -22.90095386 122.35017874 -28.53955078 123.95947266 C-31.13754199 124.69473787 -33.74044627 125.40400093 -36.34765625 126.10546875 C-44.86488356 128.59002329 -50.0797571 131.89741889 -55.6640625 138.84375 C-55.6640625 137.85375 -55.6640625 136.86375 -55.6640625 135.84375 C-54.16577148 134.40405273 -54.16577148 134.40405273 -52.22265625 132.83984375 C-48.2734289 129.05777946 -47.82376412 126.11026658 -47.69335938 120.76367188 C-47.70431641 119.82072266 -47.71527344 118.87777344 -47.7265625 117.90625 C-47.71044922 116.93623047 -47.69433594 115.96621094 -47.67773438 114.96679688 C-47.64262395 112.59099176 -47.63883896 110.21955168 -47.6640625 107.84375 C-49.489375 107.42802734 -49.489375 107.42802734 -51.3515625 107.00390625 C-61.62672637 104.41928646 -69.49091947 97.66236762 -74.9765625 88.69921875 C-75.98232816 86.76533846 -76.87087129 84.87384831 -77.6640625 82.84375 C-78.1741687 81.62051025 -78.1741687 81.62051025 -78.69458008 80.37255859 C-79.99048714 75.65560049 -79.96945484 71.23333216 -79.96484375 66.36328125 C-79.96912888 65.35464523 -79.973414 64.34600922 -79.97782898 63.30680847 C-79.98355903 61.1761449 -79.98408233 59.04546177 -79.97973633 56.91479492 C-79.9765899 53.68438555 -80.00000568 50.45490479 -80.02539062 47.22460938 C-80.02766536 45.14583448 -80.02836631 43.06705714 -80.02734375 40.98828125 C-80.0365535 40.03581009 -80.04576324 39.08333893 -80.05525208 38.102005 C-79.96327368 24.50518924 -75.39790763 12.56921125 -66.1015625 2.59375 C-47.52199568 -14.97849091 -19.97387247 -16.16653607 0 0 Z " fill="#EED4C5" transform="translate(343.6640625,139.15625)"/>
<path d="M0 0 C7.40603193 7.06229205 11.69309707 16.8125268 12.1015625 26.953125 C11.86658673 41.14566163 3.5544703 51.69273292 -6.1328125 61.24609375 C-6.98844788 62.10318436 -7.84408325 62.96027496 -8.72564697 63.84333801 C-10.52614045 65.64218141 -12.33154283 67.43612362 -14.14160156 69.2253418 C-16.88902114 71.94380788 -19.61729433 74.68044799 -22.34375 77.41992188 C-24.10566083 79.17559382 -25.86864676 80.93018764 -27.6328125 82.68359375 C-28.43732849 83.49104538 -29.24184448 84.29849701 -30.07073975 85.13041687 C-40.74774942 95.63395716 -51.44973757 102.76869112 -66.8359375 103.203125 C-76.86271995 102.82953094 -85.02326178 99.65842921 -93.1484375 93.765625 C-93.4784375 93.105625 -93.8084375 92.445625 -94.1484375 91.765625 C-89.1984375 89.125625 -84.2484375 86.485625 -79.1484375 83.765625 C-80.22061523 83.01651855 -81.29279297 82.26741211 -82.39746094 81.49560547 C-88.49756497 76.91141757 -93.77728225 71.46553366 -99.1640625 66.0859375 C-100.30875757 64.94768294 -101.45359661 63.80957315 -102.59857178 62.67160034 C-104.98560517 60.29647844 -107.36853435 57.91732457 -109.74902344 55.53564453 C-112.78726395 52.49720033 -115.83906478 49.47278143 -118.89453506 46.45167732 C-121.25897621 44.10955097 -123.61419272 41.7583115 -125.96697235 39.40447617 C-127.08800243 38.28579206 -128.21224444 37.17031634 -129.33985138 36.05826187 C-142.00460907 23.55205116 -142.00460907 23.55205116 -143.6796875 15.078125 C-143.60034617 9.2068663 -142.80479721 4.49559726 -139.1484375 -0.234375 C-133.76305651 -5.20799648 -129.10639245 -7.67758867 -121.71409607 -7.48748779 C-112.75855974 -6.60398722 -106.93455753 -0.70534614 -100.95703125 5.46875 C-100.12631607 6.30653992 -99.29560089 7.14432983 -98.43971252 8.00750732 C-95.8097337 10.66529734 -93.1977555 13.33999841 -90.5859375 16.015625 C-88.79738822 17.82927389 -87.00768589 19.64178645 -85.21679688 21.453125 C-80.84722649 25.87758917 -76.49370651 30.31729736 -72.1484375 34.765625 C-70.4984375 27.835625 -68.8484375 20.905625 -67.1484375 13.765625 C-66.6534375 14.755625 -66.6534375 14.755625 -66.1484375 15.765625 C-65.1584375 15.765625 -64.1684375 15.765625 -63.1484375 15.765625 C-62.9421875 15.20875 -62.7359375 14.651875 -62.5234375 14.078125 C-60.97561294 11.47496552 -59.07553622 9.91408727 -56.71875 8.046875 C-54.94213531 6.64126588 -54.94213531 6.64126588 -52.7109375 4.328125 C-37.49360426 -10.88920824 -17.5233641 -13.82321152 0 0 Z " fill="#F5F5F3" transform="translate(335.1484375,295.234375)"/>
<path d="M0 0 C10.33281047 0.00895703 20.66443501 0.06608443 30.99676514 0.16475677 C33.26079872 0.18420219 35.52479328 0.19736042 37.78887939 0.20898438 C41.36104765 0.22879781 44.93242817 0.26917445 48.5042057 0.32525444 C50.42857314 0.35128664 52.35316338 0.35883095 54.2776947 0.36567688 C64.60925722 0.56877548 73.70820054 3.42076038 81.08062744 10.99676514 C82.32156492 13.15671174 83.54956566 15.32411645 84.76812744 17.49676514 C88.67852632 24.03891578 93.48669599 25.78027063 100.70562744 27.62176514 C103.36227255 28.23902987 106.02361579 28.82744751 108.68878174 29.40667725 C113.44725246 30.58063088 117.16173095 31.98362285 120.51812744 35.68426514 C122.55599625 40.00454702 122.6083736 42.2470497 122.08062744 46.99676514 C120.04973933 51.69987444 116.64484506 54.71465633 112.08062744 56.99676514 C109.864601 57.08872133 107.64572537 57.11426531 105.42779541 57.11029053 C104.40323242 57.11050957 104.40323242 57.11050957 103.35797119 57.11073303 C101.09622034 57.11003536 98.83455144 57.10224979 96.57281494 57.09442139 C95.00625656 57.09255669 93.4396976 57.09113303 91.87313843 57.09013367 C87.74672846 57.08631256 83.6203536 57.07648574 79.49395752 57.06542969 C74.5446902 57.05340997 69.59541115 57.04881139 64.64613342 57.04297638 C57.12427367 57.03327378 49.60249097 57.01411439 42.08062744 56.99676514 C42.08062744 43.79676514 42.08062744 30.59676514 42.08062744 16.99676514 C38.62312012 17.02294922 35.16561279 17.0491333 31.60333252 17.07611084 C20.188066 17.15890753 8.772758 17.21442274 -2.64272594 17.255826 C-9.56493123 17.2816001 -16.48685191 17.31673475 -23.40887451 17.3739624 C-30.08730807 17.42914983 -36.76538468 17.4581758 -43.44405556 17.47115135 C-45.99381481 17.48039984 -48.54355761 17.49845973 -51.09319115 17.52541542 C-54.66085347 17.56163873 -58.22728877 17.56671301 -61.79510498 17.56439209 C-62.85246353 17.58236847 -63.90982208 17.60034485 -64.9992218 17.61886597 C-72.15093596 17.56842371 -72.15093596 17.56842371 -76.07557678 14.64878845 C-77.91937256 11.99676514 -77.91937256 11.99676514 -78.54437256 8.99676514 C-77.90236166 5.91511281 -77.10289664 4.2146135 -74.80316162 2.05334473 C-70.40161048 -0.41539723 -64.88613528 0.25169613 -59.98187256 0.25457764 C-58.66560379 0.23649551 -57.34933502 0.21841339 -55.99317932 0.19978333 C-52.38717568 0.15213548 -48.78170329 0.13678256 -45.17541885 0.12896347 C-42.15902081 0.11933909 -39.14284815 0.09323871 -36.12654972 0.06771374 C-26.54431568 -0.01128197 -16.96262084 -0.02105327 -7.38011932 -0.00669098 C-4.92007911 -0.00323586 -2.46004212 -0.00148844 0 0 Z " fill="#EFD3C5" transform="translate(333.91937255859375,439.00323486328125)"/>
<path d="M0 0 C-0.66 0.515625 -1.32 1.03125 -2 1.5625 C-2.99 2.366875 -3.98 3.17125 -5 4 C-5.62777344 4.48597656 -6.25554688 4.97195312 -6.90234375 5.47265625 C-14.52469794 11.66124708 -20.24999223 20.2171697 -22 30 C-23.21268052 42.63882586 -21.35506205 53.27609171 -13.8125 63.875 C-6.50977062 72.47108533 3.35717828 78.19766915 14.609375 79.37890625 C27.45573566 79.78527072 38.2976505 76.61313928 48 68 C50.0177031 65.71651412 51.851622 63.39472986 53.625 60.91796875 C55 59 55 59 57 57 C58.37348311 70.46013452 50.98939216 84.05266082 42.75 94.1875 C32.51465085 105.29632534 18.3905201 111.17367879 3.5 112.25390625 C-11.64948728 112.73508874 -25.10981781 108.00258508 -36.75 98.25 C-46.87657308 88.70208824 -54.24211018 75.02973664 -55.30078125 61.01953125 C-55.54286816 43.77643363 -51.38212662 28.82935795 -39.15625 15.9921875 C-28.31736726 5.97800236 -14.87290811 -0.53117529 0 0 Z " fill="#F9DC16" transform="translate(63,8)"/>
<path d="M0 0 C8.36961484 7.78804039 15.31903612 18.18051373 16.3359375 29.84375 C16.3359375 32.15375 16.3359375 34.46375 16.3359375 36.84375 C-15.3440625 36.84375 -47.0240625 36.84375 -79.6640625 36.84375 C-79.6640625 23.51747119 -75.22997424 12.38901 -66.1015625 2.59375 C-47.52199568 -14.97849091 -19.97387247 -16.16653607 0 0 Z " fill="#F5F5F3" transform="translate(343.6640625,139.15625)"/>
<path d="M0 0 C7.40603193 7.06229205 11.69309707 16.8125268 12.1015625 26.953125 C11.86658673 41.14566163 3.5544703 51.69273292 -6.1328125 61.24609375 C-6.98844788 62.10318436 -7.84408325 62.96027496 -8.72564697 63.84333801 C-10.52614045 65.64218141 -12.33154283 67.43612362 -14.14160156 69.2253418 C-16.88902114 71.94380788 -19.61729433 74.68044799 -22.34375 77.41992188 C-24.10566083 79.17559382 -25.86864676 80.93018764 -27.6328125 82.68359375 C-28.43732849 83.49104538 -29.24184448 84.29849701 -30.07073975 85.13041687 C-40.74774942 95.63395716 -51.44973757 102.76869112 -66.8359375 103.203125 C-76.86271995 102.82953094 -85.02326178 99.65842921 -93.1484375 93.765625 C-93.4784375 93.105625 -93.8084375 92.445625 -94.1484375 91.765625 C-91.42876281 90.36830592 -88.70043289 88.99805281 -85.9609375 87.640625 C-85.19201172 87.24230469 -84.42308594 86.84398437 -83.63085938 86.43359375 C-77.81558787 83.58835362 -77.81558787 83.58835362 -74.4140625 84.4921875 C-73.66640625 84.91242188 -72.91875 85.33265625 -72.1484375 85.765625 C-63.22996235 87.2309037 -56.67012651 84.36412302 -49.1484375 79.765625 C-45.62680536 76.98607014 -42.50080003 73.91665734 -39.3671875 70.7109375 C-38.50581177 69.85055878 -37.64443604 68.99018005 -36.75695801 68.10372925 C-34.95508357 66.29720869 -33.16050452 64.48338407 -31.37304688 62.66259766 C-28.64507854 59.88720765 -25.89118538 57.139671 -23.1328125 54.39453125 C-21.37601129 52.6265814 -19.62074814 50.85710159 -17.8671875 49.0859375 C-17.05052612 48.27109894 -16.23386475 47.45626038 -15.39245605 46.61672974 C-10.36528919 41.46375743 -6.09303342 36.53323119 -4.65234375 29.26171875 C-4.83556498 22.82454608 -6.23109879 18.10903897 -10.3984375 13.015625 C-15.28922879 9.01406849 -20.33681818 6.95078621 -26.66748047 7.33813477 C-37.60606677 9.22294726 -45.92723123 20.08720801 -53.2734375 27.640625 C-54.52770104 28.91499308 -55.78290274 30.18843851 -57.0390625 31.4609375 C-60.08643714 34.55197301 -63.12085818 37.65520305 -66.1484375 40.765625 C-68.1284375 39.445625 -70.1084375 38.125625 -72.1484375 36.765625 C-71.69435623 34.24396033 -71.2352968 31.72336684 -70.7734375 29.203125 C-70.64710938 28.49865234 -70.52078125 27.79417969 -70.390625 27.06835938 C-69.55562383 22.53847803 -68.48119794 18.17532367 -67.1484375 13.765625 C-66.8184375 14.425625 -66.4884375 15.085625 -66.1484375 15.765625 C-65.1584375 15.765625 -64.1684375 15.765625 -63.1484375 15.765625 C-62.9421875 15.20875 -62.7359375 14.651875 -62.5234375 14.078125 C-60.97561294 11.47496552 -59.07553622 9.91408727 -56.71875 8.046875 C-54.94213531 6.64126588 -54.94213531 6.64126588 -52.7109375 4.328125 C-37.49360426 -10.88920824 -17.5233641 -13.82321152 0 0 Z " fill="#E7E4E0" transform="translate(335.1484375,295.234375)"/>
<path d="M0 0 C0 5.28 0 10.56 0 16 C-14.90768916 16.11577921 -29.81531024 16.20499031 -44.72335339 16.25906086 C-51.64555867 16.28483496 -58.56747935 16.31996962 -65.48950195 16.37719727 C-72.16793551 16.4323847 -78.84601212 16.46141066 -85.524683 16.47438622 C-88.07444225 16.48363471 -90.62418506 16.5016946 -93.17381859 16.52865028 C-96.74148091 16.56487359 -100.30791621 16.56994787 -103.87573242 16.56762695 C-104.93309097 16.58560333 -105.99044952 16.60357971 -107.07984924 16.62210083 C-114.23156341 16.57165857 -114.23156341 16.57165857 -118.15620422 13.65202332 C-120 11 -120 11 -120.625 8 C-119.98707106 4.9379411 -119.2202577 3.20735202 -116.93280029 1.05657959 C-112.3002381 -1.47584483 -106.42248303 -0.74512169 -101.2890625 -0.7421875 C-99.89830134 -0.75829519 -98.50756228 -0.77642145 -97.11685181 -0.7964325 C-93.38992182 -0.84334672 -89.66348581 -0.85865429 -85.93629456 -0.86699295 C-82.85735455 -0.87765936 -79.77869716 -0.90661688 -76.69988251 -0.93547153 C-51.12269009 -1.17066636 -25.56518361 -0.82264205 0 0 Z " fill="#E7E4E0" transform="translate(376,440)"/>
<path d="M0 0 C31.68 0 63.36 0 96 0 C96 5.28 96 10.56 96 16 C64.32 16 32.64 16 0 16 C0 10.72 0 5.44 0 0 Z " fill="#EBC4A5" transform="translate(264,176)"/>
<path d="M0 0 C5.12953466 3.43902566 9.24954807 8.10205825 13.41796875 12.62109375 C8.03155951 19.17486472 2.05911748 25.0935601 -3.95703125 31.05859375 C-4.9898172 32.08635358 -6.02237116 33.1143466 -7.0546875 34.14257812 C-9.56113412 36.63810973 -12.07070205 39.13047457 -14.58203125 41.62109375 C-29.90582649 28.79280387 -29.90582649 28.79280387 -30.828125 20.375 C-31.13284462 14.30830942 -30.35108464 9.49684979 -26.58203125 4.62109375 C-18.64028384 -2.71343756 -9.98656122 -4.82536498 0 0 Z " fill="#EBD3C4" transform="translate(222.58203125,290.37890625)"/>
<path d="M0 0 C2.875 1.6875 2.875 1.6875 5 5 C5.90290167 11.65251133 6.10885197 17.44096499 2 23 C-0.80915474 24.40457737 -2.88810534 24.24895157 -6 24 C-9.1359157 22.22015595 -9.84102736 21.47691793 -11 18 C-12.0494539 6.63591344 -12.0494539 6.63591344 -8.875 1.6875 C-5.44657382 -0.32483711 -3.9001417 -0.81252952 0 0 Z " fill="#F2DA17" transform="translate(195,200)"/>
<path d="M0 0 C4.64963504 2.29927007 4.64963504 2.29927007 6 5 C6.29123466 8.34919863 6.36462337 10.35756835 4.6875 13.3125 C1.52592843 16.47407157 -2.11841691 16.24837396 -6.375 16.375 C-10.79028114 16.3356218 -12.53327074 16.29941123 -16.3125 13.875 C-18.32483711 10.44657382 -18.81252952 8.9001417 -18 5 C-14.0594899 -1.71346165 -6.95616502 -1.03309382 0 0 Z " fill="#F2DA17" transform="translate(218,184)"/>
<path d="M0 0 C4.64963504 2.29927007 4.64963504 2.29927007 6 5 C6.29123466 8.34919863 6.36462337 10.35756835 4.6875 13.3125 C1.52592843 16.47407157 -2.11841691 16.24837396 -6.375 16.375 C-10.79028114 16.3356218 -12.53327074 16.29941123 -16.3125 13.875 C-18.32483711 10.44657382 -18.81252952 8.9001417 -18 5 C-14.0594899 -1.71346165 -6.95616502 -1.03309382 0 0 Z " fill="#F2DA17" transform="translate(178,184)"/>
<path d="M0 0 C2.875 1.6875 2.875 1.6875 5 5 C5.90290167 11.65251133 6.10885197 17.44096499 2 23 C-0.80915474 24.40457737 -2.88810534 24.24895157 -6 24 C-9.1359157 22.22015595 -9.84102736 21.47691793 -11 18 C-12.0494539 6.63591344 -12.0494539 6.63591344 -8.875 1.6875 C-5.44657382 -0.32483711 -3.9001417 -0.81252952 0 0 Z " fill="#F2DA17" transform="translate(195,160)"/>
<path d="M0 0 C2.875 1.6875 2.875 1.6875 5 5 C5.74436826 10.48444917 6.02490833 15.73211775 3.71484375 20.84375 C2 23 2 23 0.09765625 23.8125 C-5.38130491 24.31727953 -5.38130491 24.31727953 -8.4375 22.75 C-12.0547581 18.69867092 -11.38950652 13.25154323 -11.34375 8.12109375 C-11 5 -11 5 -8.875 1.6875 C-5.44657382 -0.32483711 -3.9001417 -0.81252952 0 0 Z " fill="#F9DC19" transform="translate(43,448)"/>
<path d="M0 0 C2.84375 1.3203125 2.84375 1.3203125 5 3 C6.17180914 6.95485583 6.4048133 9.06892942 4.75 12.875 C3 15 3 15 0 16 C-11.36408656 17.0494539 -11.36408656 17.0494539 -16.3125 13.875 C-18.32483711 10.44657382 -18.81252952 8.9001417 -18 5 C-14.0594899 -1.71346165 -6.95616502 -1.03309382 0 0 Z " fill="#F9DC19" transform="translate(66,432)"/>
<path d="M0 0 C2.84375 1.3203125 2.84375 1.3203125 5 3 C6.17180914 6.95485583 6.4048133 9.06892942 4.75 12.875 C3 15 3 15 0 16 C-11.36408656 17.0494539 -11.36408656 17.0494539 -16.3125 13.875 C-18.32483711 10.44657382 -18.81252952 8.9001417 -18 5 C-14.0594899 -1.71346165 -6.95616502 -1.03309382 0 0 Z " fill="#F9DC19" transform="translate(26,432)"/>
<path d="M0 0 C2.875 1.6875 2.875 1.6875 5 5 C5.74436826 10.48444917 6.02490833 15.73211775 3.71484375 20.84375 C2 23 2 23 0.09765625 23.8125 C-5.38130491 24.31727953 -5.38130491 24.31727953 -8.4375 22.75 C-12.0547581 18.69867092 -11.38950652 13.25154323 -11.34375 8.12109375 C-11 5 -11 5 -8.875 1.6875 C-5.44657382 -0.32483711 -3.9001417 -0.81252952 0 0 Z " fill="#F9DC19" transform="translate(43,408)"/>
<path d="M0 0 C2.875 1.6875 2.875 1.6875 5 5 C5.74436826 10.48444917 6.02490833 15.73211775 3.71484375 20.84375 C2 23 2 23 0.09765625 23.8125 C-5.38130491 24.31727953 -5.38130491 24.31727953 -8.4375 22.75 C-12.0547581 18.69867092 -11.38950652 13.25154323 -11.34375 8.12109375 C-11 5 -11 5 -8.875 1.6875 C-5.44657382 -0.32483711 -3.9001417 -0.81252952 0 0 Z " fill="#F9DC19" transform="translate(475,48)"/>
<path d="M0 0 C2.84375 1.3203125 2.84375 1.3203125 5 3 C6.17180914 6.95485583 6.4048133 9.06892942 4.75 12.875 C3 15 3 15 0 16 C-11.36408656 17.0494539 -11.36408656 17.0494539 -16.3125 13.875 C-18.32483711 10.44657382 -18.81252952 8.9001417 -18 5 C-14.0594899 -1.71346165 -6.95616502 -1.03309382 0 0 Z " fill="#F9DC19" transform="translate(498,32)"/>
<path d="M0 0 C2.84375 1.3203125 2.84375 1.3203125 5 3 C6.17180914 6.95485583 6.4048133 9.06892942 4.75 12.875 C3 15 3 15 0 16 C-11.36408656 17.0494539 -11.36408656 17.0494539 -16.3125 13.875 C-18.32483711 10.44657382 -18.81252952 8.9001417 -18 5 C-14.0594899 -1.71346165 -6.95616502 -1.03309382 0 0 Z " fill="#F9DC19" transform="translate(458,32)"/>
<path d="M0 0 C2.875 1.6875 2.875 1.6875 5 5 C5.74436826 10.48444917 6.02490833 15.73211775 3.71484375 20.84375 C2 23 2 23 0.09765625 23.8125 C-5.38130491 24.31727953 -5.38130491 24.31727953 -8.4375 22.75 C-12.0547581 18.69867092 -11.38950652 13.25154323 -11.34375 8.12109375 C-11 5 -11 5 -8.875 1.6875 C-5.44657382 -0.32483711 -3.9001417 -0.81252952 0 0 Z " fill="#F9DC19" transform="translate(475,8)"/>
<path d="M0 0 C4.0743356 0.84881992 5.54405875 2.30225596 8 5.625 C8.625 8.625 8.625 8.625 8 11.625 C5.54405875 14.94774404 4.0743356 16.40118008 0 17.25 C-4.0743356 16.40118008 -5.54405875 14.94774404 -8 11.625 C-8.625 8.625 -8.625 8.625 -8 5.625 C-5.54405875 2.30225596 -4.0743356 0.84881992 0 0 Z " fill="#EDD819" transform="translate(440,311.375)"/>
<path d="M0 0 C4.0743356 0.84881992 5.54405875 2.30225596 8 5.625 C8.625 8.625 8.625 8.625 8 11.625 C5.54405875 14.94774404 4.0743356 16.40118008 0 17.25 C-4.0743356 16.40118008 -5.54405875 14.94774404 -8 11.625 C-8.625 8.625 -8.625 8.625 -8 5.625 C-5.54405875 2.30225596 -4.0743356 0.84881992 0 0 Z " fill="#EDD819" transform="translate(400,127.375)"/>
<path d="M0 0 C4.14822958 0.8642145 5.60540961 2.14195943 8 5.625 C8.38022707 8.54196592 8.0649833 10.88562629 7 13.625 C4.875 15.6875 4.875 15.6875 2 16.625 C-1.77654862 16.55988709 -4.04916906 16.45314308 -6.9375 13.9375 C-8.3613395 10.8385552 -8.55153827 9.00317188 -8 5.625 C-5.54405875 2.30225596 -4.0743356 0.84881992 0 0 Z " fill="#F9DD1E" transform="translate(72,263.375)"/>
</svg>
