<svg width="60" height="60" viewBox="0 0 60 60" fill="none" xmlns="http://www.w3.org/2000/svg">
<g clip-path="url(#clip0)">
<path d="M55 22.5198H4.99997C4.08102 22.5198 3.33005 23.2608 3.33005 24.1897V35.8004C3.33005 36.7194 4.07108 37.4704 4.99997 37.4704H55C55.9189 37.4704 56.6699 36.7293 56.6699 35.8004V24.1897C56.6699 23.2707 55.9189 22.5198 55 22.5198Z" fill="#FED940"/>
<path d="M15.9585 19.1896C16.3439 17.1344 16.8281 15.1976 17.4012 13.409C14.9703 13.1027 12.5395 12.7074 10.0987 12.2431C8.28056 14.2886 6.76868 16.6107 5.62244 19.1896H15.9585Z" fill="white"/>
<path d="M28.33 14.1798C25.8102 14.1403 23.3103 14.0019 20.8102 13.7746C20.247 15.4248 19.743 17.243 19.3577 19.1798H28.3497V14.1699H28.33V14.1798V14.1798Z" fill="white"/>
<path d="M13.0633 9.41699C14.9012 9.73325 16.7491 9.99997 18.6069 10.2075C19.5555 8.02373 20.6424 6.14623 21.8579 4.60471C18.6266 5.64228 15.6522 7.28255 13.0633 9.41699Z" fill="white"/>
<path d="M28.33 3.63635C26.0178 4.44663 23.8439 6.91704 22.1145 10.5534C24.1797 10.7214 26.2449 10.8104 28.33 10.8498V3.63635Z" fill="white"/>
<path d="M42.5989 13.419C43.1819 15.1976 43.6464 17.1245 44.0415 19.1996H54.3774C53.2312 16.6205 51.7193 14.2984 49.9011 12.2531C47.4705 12.7274 45.0396 13.1226 42.5989 13.419Z" fill="white"/>
<path d="M46.9369 9.41696C44.348 7.29245 41.3736 5.65218 38.1522 4.62439C39.3677 6.15598 40.4547 8.03348 41.4033 10.2272C43.2511 9.99016 45.0988 9.73321 46.9369 9.41696Z" fill="white"/>
<path d="M39.1898 13.7846C36.6897 14.0119 34.1701 14.1502 31.67 14.1898V19.1997H40.6621C40.2668 17.253 39.7728 15.4348 39.1898 13.7846Z" fill="white"/>
<path d="M31.67 10.8498C33.7352 10.8102 35.8203 10.7214 37.8855 10.5534C36.1563 6.92698 33.9922 4.44663 31.67 3.63635V10.8498Z" fill="white"/>
<path d="M44.0415 40.8103C43.6562 42.8657 43.1719 44.8024 42.5989 46.5909C45.0297 46.8972 47.4605 47.2925 49.9013 47.7569C51.7195 45.7114 53.2314 43.3892 54.3776 40.8103H44.0415Z" fill="white"/>
<path d="M31.67 56.3636C33.9822 55.5533 36.1561 53.0829 37.8855 49.4465C35.8203 49.2785 33.7551 49.1896 31.67 49.1501V56.3636Z" fill="white"/>
<path d="M31.67 45.8203C34.1898 45.8599 36.6897 45.9982 39.1898 46.2253C39.7531 44.5751 40.257 42.7569 40.6424 40.8201H31.6503V45.8301H31.67V45.8203Z" fill="white"/>
<path d="M46.9369 50.583C45.099 50.2667 43.2511 50 41.3933 49.7924C40.4447 51.9762 39.3578 53.8537 38.1423 55.3953C41.3736 54.3577 44.3478 52.7174 46.9369 50.583Z" fill="white"/>
<path d="M28.33 49.1503C26.2648 49.1899 24.1797 49.2787 22.1145 49.4467C23.8438 53.0732 26.0079 55.5535 28.33 56.3638V49.1503Z" fill="white"/>
<path d="M5.63242 40.8103C6.77866 43.3894 8.29054 45.7116 10.1087 47.757C12.5296 47.2827 14.9604 46.8874 17.4111 46.5911C16.8282 44.8125 16.3636 42.8856 15.9685 40.8302H5.63257V40.8103H5.63242Z" fill="white"/>
<path d="M20.8103 46.2155C23.3103 45.9882 25.83 45.8499 28.33 45.8105V40.8005H19.338C19.7333 42.7471 20.2273 44.5653 20.8103 46.2155Z" fill="white"/>
<path d="M18.6067 49.7926C16.7688 50.01 14.911 50.2669 13.0632 50.5832C15.6521 52.7077 18.6264 54.3479 21.8478 55.3757C20.6325 53.8637 19.5356 51.9763 18.6067 49.7926Z" fill="white"/>
<path d="M58.5474 20.6818C54.3577 8.13241 42.7768 0 30.0001 0C17.1838 0 5.69165 8.12247 1.50194 20.6225C0.582983 21.5317 0 22.7964 0 24.1898V35.8005C0 37.1444 0.543547 38.3796 1.41298 39.2887C5.93866 51.9467 17.1639 60.0001 29.9999 60.0001C42.8161 60.0001 54.4169 51.769 58.4979 39.3776C59.4169 38.4686 59.9999 37.2037 59.9999 35.8105V24.1997C60 22.8163 59.4467 21.5811 58.5474 20.6818ZM54.3677 19.1897H44.0317C43.6464 17.1344 43.1621 15.1976 42.5891 13.4091C45.0199 13.1027 47.4507 12.7075 49.8915 12.2431C51.7095 14.2886 53.2312 16.6205 54.3677 19.1897ZM46.9368 9.41699C45.0989 9.73324 43.2511 9.99997 41.3933 10.2075C40.4644 8.02373 39.3578 6.14623 38.1423 4.60471C41.3736 5.64227 44.3478 7.28254 46.9368 9.41699ZM31.67 3.63638C33.9822 4.44666 36.1561 6.91707 37.8855 10.5535C35.8203 10.7214 33.7352 10.8104 31.67 10.8498V3.63638ZM31.6503 14.1799H31.6602C34.18 14.1403 36.6799 14.002 39.18 13.7747C39.7433 15.4249 40.2472 17.2431 40.6326 19.1799H31.6405V14.1799H31.6503ZM28.33 3.63638V10.8498C26.2648 10.8102 24.1797 10.7214 22.1145 10.5535C23.8439 6.91707 26.0178 4.45659 28.33 3.63638ZM28.3202 14.1799V19.1898H19.3479C19.7332 17.253 20.2372 15.4348 20.8004 13.7846C23.3004 14.0119 25.8201 14.1502 28.3202 14.1799ZM21.8478 4.60471C20.6323 6.1363 19.5454 8.01379 18.5968 10.2075C16.7588 9.99019 14.9011 9.73324 13.0532 9.41699C15.6522 7.28254 18.6266 5.64227 21.8478 4.60471ZM10.1087 12.2431C12.5295 12.7174 14.9604 13.1127 17.4111 13.4091C16.8281 15.1877 16.3636 17.1145 15.9684 19.1897H5.63249C6.76881 16.6205 8.29046 14.2886 10.1087 12.2431ZM5.63234 40.8103H15.9683C16.3536 42.8657 16.8379 44.8024 17.4109 46.5712C14.9801 46.8775 12.5493 47.2728 10.1085 47.7372C8.29046 45.7116 6.76881 43.3795 5.63234 40.8103ZM13.0633 50.583C14.9012 50.2667 16.7491 50 18.6068 49.7924C19.5555 51.9762 20.6424 53.8537 21.8579 55.3953C18.6266 54.3577 15.6522 52.7174 13.0633 50.583ZM28.33 56.3636C26.0178 55.5533 23.8439 53.0829 22.1145 49.4465C24.1797 49.2785 26.2648 49.1896 28.33 49.1501V56.3636ZM28.3499 45.8202H28.3399C25.8201 45.8598 23.3202 45.9981 20.8202 46.2253C20.2569 44.5751 19.7529 42.7569 19.3676 40.8201H28.3597V45.8201H28.3499V45.8202ZM31.67 56.3636V49.1501C33.7352 49.1897 35.8203 49.2785 37.8855 49.4465C36.1561 53.0831 33.9822 55.5435 31.67 56.3636ZM31.6799 45.8202V40.8103H40.6523C40.2669 42.7471 39.763 44.5653 39.1997 46.2155C36.6996 45.9882 34.1799 45.8499 31.6799 45.8202ZM38.1522 55.3953C39.3677 53.8637 40.4546 51.9862 41.4032 49.7924C43.2412 50.0098 45.0989 50.2667 46.9468 50.583C44.3478 52.7174 41.3736 54.3577 38.1522 55.3953ZM49.8913 47.7569C47.4705 47.2826 45.0396 46.8873 42.5889 46.5909C43.1719 44.8123 43.6364 42.8854 44.0316 40.8103H54.3675C53.2312 43.3795 51.7095 45.7116 49.8913 47.7569ZM55 37.4802H4.99999C4.08103 37.4802 3.33006 36.7392 3.33006 35.8103V24.1996C3.33006 23.2806 4.0711 22.5297 4.99999 22.5297H55C55.919 22.5297 56.6699 23.2707 56.6699 24.1996V35.8103H56.6799C56.6699 36.7293 55.9289 37.4802 55 37.4802Z" fill="#0CB4FE"/>
<path d="M18.4586 30.8894L16.7984 25.7115H14.496L12.8261 30.8894L11.1561 25.7115H8.69565L11.6008 34.2788H14.0712L15.6522 29.6146L17.2233 34.2788H19.7035L22.6087 25.7115H20.1285L18.4586 30.8894Z" fill="#53CAFF"/>
<path d="M32.7965 30.8993L31.1364 25.7214H28.834L27.1641 30.8993L25.5041 25.7214H23.0336L25.9388 34.2787H28.4092L30.0001 29.6245L31.5613 34.2885H34.0415L36.9467 25.7214H34.4665L32.7965 30.8993Z" fill="#53CAFF"/>
<path d="M47.1542 30.8894L45.4843 25.7115H43.1819L41.5119 30.8894L39.8518 25.7115H37.3815L40.2867 34.2788H42.7569L44.338 29.6146L45.9091 34.2788H48.3894L51.2946 25.7115H48.8144L47.1542 30.8894Z" fill="#53CAFF"/>
<path d="M41.3736 49.8518C41.3933 49.8419 41.4229 49.8122 41.4428 49.8024C41.4329 49.8024 41.4032 49.8024 41.3934 49.8024C41.3833 49.8221 41.3833 49.8321 41.3736 49.8518Z" fill="#53CAFF"/>
<path d="M18.5573 49.7927C18.577 49.8026 18.6067 49.8322 18.6266 49.842C18.6166 49.8223 18.6166 49.8024 18.6068 49.7827C18.587 49.7926 18.5672 49.7927 18.5573 49.7927Z" fill="#53CAFF"/>
<path d="M41.4426 10.2075C41.4229 10.1976 41.3933 10.1679 41.3734 10.1581C41.3833 10.1779 41.3833 10.1977 41.3931 10.2174C41.413 10.2075 41.4329 10.2075 41.4426 10.2075Z" fill="#53CAFF"/>
<path d="M18.6266 10.1483C18.6068 10.1582 18.5772 10.1879 18.5573 10.1977C18.5672 10.1977 18.5969 10.1977 18.6067 10.1977C18.6166 10.1779 18.6166 10.168 18.6266 10.1483Z" fill="#53CAFF"/>
<path d="M10.8102 40.8103C11.9169 43.0929 13.3695 45.1483 15.0988 46.9072C15.8695 46.7886 16.6304 46.6699 17.411 46.5811C16.8281 44.8025 16.3635 42.8757 15.9684 40.8202H10.8102V40.8103Z" fill="#53CAFF"/>
<path d="M28.3202 40.8103H19.3479C19.7332 42.7471 20.2372 44.5653 20.8004 46.2155C23.3005 45.9882 25.8201 45.8499 28.3202 45.8104V40.8103Z" fill="#53CAFF"/>
<path d="M44.0415 40.8202V40.8103C43.6561 42.8657 43.1719 44.8024 42.5988 46.5909C43.3695 46.6897 44.1304 46.8083 44.9111 46.917C46.6403 45.1581 48.0929 43.1026 49.1997 40.8201H44.0415V40.8202Z" fill="#53CAFF"/>
<path d="M22.1244 10.5633C24.1896 10.7313 26.2747 10.8202 28.3399 10.8597V6.74915C26.7687 6.87754 25.2471 7.18386 23.7846 7.65817C23.1916 8.51781 22.6284 9.47636 22.1244 10.5633Z" fill="#53CAFF"/>
<path d="M31.67 53.2609C33.2412 53.1325 34.7628 52.8261 36.2253 52.3518C36.8083 51.4922 37.3716 50.5337 37.8755 49.4467C35.8103 49.2787 33.7252 49.1898 31.66 49.1503V53.261H31.67V53.2609Z" fill="#53CAFF"/>
<path d="M31.67 45.8203C34.1897 45.8599 36.6897 45.9982 39.1897 46.2253C39.7727 44.5751 40.257 42.7569 40.6522 40.8201H31.6602V45.8201H31.67V45.8203Z" fill="#53CAFF"/>
<path d="M31.6799 14.1799V19.1898H40.6523C40.2669 17.253 39.763 15.4348 39.1997 13.7846C36.6996 14.0119 34.1798 14.1502 31.6799 14.1799Z" fill="#53CAFF"/>
<path d="M36.2253 7.64818C34.7628 7.17388 33.2412 6.86756 31.67 6.73917V10.8498C33.7352 10.8103 35.8203 10.7215 37.8855 10.5535C37.3716 9.48624 36.8083 8.51777 36.2253 7.64818Z" fill="#53CAFF"/>
<path d="M23.7746 52.3518C25.2371 52.8261 26.7588 53.1324 28.33 53.2608V49.1501C26.2548 49.1897 24.1797 49.2785 22.1145 49.4465C22.6284 50.5139 23.2016 51.4822 23.7746 52.3518Z" fill="#53CAFF"/>
<path d="M49.1897 19.1996V19.1897C48.0831 16.9071 46.6305 14.8517 44.9011 13.0928C44.1304 13.2114 43.3695 13.33 42.5889 13.4188C43.1719 15.1974 43.6364 17.1243 44.0315 19.1995H49.1897V19.1996Z" fill="#53CAFF"/>
<path d="M15.9585 19.1896C16.3438 17.1344 16.8281 15.1976 17.4011 13.409C16.6304 13.3103 15.8695 13.1917 15.0889 13.083C13.3597 14.8419 11.9071 16.8973 10.8003 19.1799H15.9583C15.9585 19.1799 15.9585 19.1896 15.9585 19.1896Z" fill="#53CAFF"/>
<path d="M19.3479 19.1897H28.3399V14.18C25.8201 14.1404 23.3202 14.002 20.8202 13.7747C20.2272 15.4349 19.7332 17.2531 19.3479 19.1897Z" fill="#53CAFF"/>
</g>
<defs>
<clipPath id="clip0">
<rect width="60" height="60" fill="white"/>
</clipPath>
</defs>
</svg>
