<?xml version="1.0" encoding="UTF-8"?>
<svg version="1.1" xmlns="http://www.w3.org/2000/svg" width="512" height="512">
<path d="M0 0 C113.52 0 227.04 0 344 0 C349.11384167 10.22768334 354.20942548 20.45665815 359.1875 30.75 C359.66181961 31.72981842 359.66181961 31.72981842 360.14572144 32.72943115 C366.42322818 45.70710648 372.61336969 58.73175964 378.53027344 71.87841797 C379.50789956 73.95481791 380.55910338 75.99816683 381.68066406 78.00048828 C386.52367047 87.0263515 386.86825196 95.0278198 386.67236328 105.0390625 C386.62492922 107.62886423 386.6313113 110.21455706 386.64453125 112.8046875 C386.60789572 124.00153741 386.06229213 134.6422084 377.875 143.1875 C377.19179688 143.92355469 376.50859375 144.65960938 375.8046875 145.41796875 C374 147 374 147 372 147 C372.00276538 147.99244972 372.00553076 148.98489944 372.00837994 150.0074234 C372.07499272 174.16122198 372.12428401 198.31500865 372.15543652 222.4688797 C372.17090224 234.14953375 372.19198621 245.8301271 372.22631836 257.51074219 C372.25622963 267.69212812 372.27557714 277.87347009 372.28226548 288.05489874 C372.28617479 293.44537136 372.29535624 298.83571822 372.31719017 304.22615051 C372.33758252 309.30189994 372.3438282 314.37747201 372.33932304 319.45325851 C372.34014701 321.31402424 372.34609622 323.17479603 372.35761642 325.03552628 C372.37260364 327.58155809 372.36893108 330.12692555 372.36076355 332.67297363 C372.36950207 333.40451487 372.3782406 334.13605611 372.38724393 334.88976526 C372.32979437 341.54258627 370.90847282 347.00477842 366.25 351.875 C358.5014203 356.94137904 350.50171287 356.27538922 341.52758789 356.22705078 C340.05859383 356.22648606 338.5895992 356.22680441 337.12060547 356.22793579 C333.14795628 356.22850793 329.17542868 356.21677613 325.20280766 356.20278788 C321.04548467 356.19025737 316.88815867 356.18910819 312.7308197 356.18673706 C304.8651397 356.1805291 296.99951551 356.16412756 289.13386005 356.14403808 C280.17619765 356.12165777 271.21853253 356.11068029 262.26084912 356.10064721 C243.84052804 356.07976071 225.42028344 356.04309303 207 356 C207 372.17 207 388.34 207 405 C221.85 405 236.7 405 252 405 C252 417.21 252 429.42 252 442 C199.53 442 147.06 442 93 442 C92.67 432.43 92.34 422.86 92 413 C88.75277697 421.79519265 88.75277697 421.79519265 85.50805664 430.59130859 C84.90272095 432.2283374 84.90272095 432.2283374 84.28515625 433.8984375 C83.87144775 435.01911621 83.45773926 436.13979492 83.03149414 437.29443359 C82 440 82 440 81 442 C30.18 442 -20.64 442 -73 442 C-87 404 -87 404 -92.828125 387.26953125 C-94.86504299 381.46567668 -94.86504299 381.46567668 -96.90625 375.66333008 C-97.82681061 373.03915417 -98.72743726 370.4091165 -99.61523438 367.77368164 C-100.93469556 363.86048649 -102.31686623 359.97206281 -103.703125 356.08203125 C-104.08881653 354.90429642 -104.47450806 353.72656158 -104.87188721 352.51313782 C-106.868778 346.59169162 -106.868778 346.59169162 -111.4317627 342.71420288 C-114.0632295 341.91818019 -114.0632295 341.91818019 -116.65081787 341.57328796 C-120.69862987 340.58547102 -122.88443385 337.43486755 -125 334 C-126.41520795 329.75437615 -126.26456471 325.69839532 -126.3125 321.25 C-126.34150391 320.36828125 -126.37050781 319.4865625 -126.40039062 318.578125 C-126.45925497 312.49245701 -125.77565857 308.85528953 -122 304 C-116.89391878 300.47539221 -113.11577031 299.42740118 -106.87890625 299.609375 C-106.13414536 299.61503479 -105.38938446 299.62069458 -104.62205505 299.62652588 C-102.2681862 299.6487265 -99.9159003 299.6988863 -97.5625 299.75 C-95.95640236 299.77008634 -94.3502806 299.78833336 -92.74414062 299.8046875 C-88.8288271 299.84853691 -84.9146809 299.91744529 -81 300 C-80.90251465 299.06446289 -80.8050293 298.12892578 -80.70458984 297.16503906 C-79.96915512 292.05619145 -78.32384798 287.25338015 -76.7265625 282.359375 C-76.23994644 280.85337738 -76.23994644 280.85337738 -75.74349976 279.31695557 C-75.0588522 277.20480667 -74.37118162 275.09363556 -73.68066406 272.98339844 C-72.6250644 269.75019725 -71.58552974 266.51211613 -70.546875 263.2734375 C-69.87857368 261.21843446 -69.20933514 259.16373591 -68.5390625 257.109375 C-68.22957672 256.14062439 -67.92009094 255.17187378 -67.60122681 254.17376709 C-67.30436981 253.27563293 -67.00751282 252.37749878 -66.70166016 251.45214844 C-66.44486481 250.66273865 -66.18806946 249.87332886 -65.92349243 249.05999756 C-64.89545494 246.76679551 -63.99571245 245.52500348 -62 244 C-58.90379585 243.60683122 -56.95775018 243.38231723 -54 244 C-51.4375 246 -51.4375 246 -50 249 C-50.38427935 255.41671518 -52.12819741 261.11816527 -54.16015625 267.1875 C-54.46948593 268.13061035 -54.77881561 269.0737207 -55.09751892 270.04541016 C-56.07900751 273.03257762 -57.07057675 276.0162833 -58.0625 279 C-58.73309265 281.03493533 -59.40302143 283.07008955 -60.07226562 285.10546875 C-61.70595145 290.07333121 -63.3532501 295.03637708 -65 300 C-52.46 300 -39.92 300 -27 300 C-26.94995784 280.31953097 -26.9330816 260.63994474 -26.97665405 240.95948029 C-26.99582465 231.821138 -27.00013076 222.68324337 -26.96923828 213.54492188 C-26.94234479 205.57831982 -26.94355059 197.61229771 -26.97825909 189.64571714 C-26.99565685 185.42865554 -26.99914585 181.2126325 -26.96896362 176.99562073 C-26.94097076 173.02239442 -26.95068255 169.05100641 -26.98873711 165.07788086 C-26.99612724 163.62349325 -26.98999512 162.16896099 -26.96898079 160.71470642 C-26.72852514 152.63416951 -26.72852514 152.63416951 -29.78297424 145.40246582 C-31.76177843 143.42677237 -33.80753151 141.72828689 -36 140 C-37.83984375 137.27734375 -37.83984375 137.27734375 -38.9375 134.9375 C-39.31777344 134.16277344 -39.69804688 133.38804687 -40.08984375 132.58984375 C-46.03094277 115.68448474 -44.67677205 92.45963187 -37.18725586 76.38964844 C-34.75631338 71.43281679 -32.1960237 66.54378012 -29.56584167 61.69003296 C-25.26611089 53.74902701 -21.46813845 45.58520443 -17.652771 37.40344238 C-15.83739771 33.52009873 -13.99608017 29.64914385 -12.15625 25.77734375 C-8.08182473 17.19537217 -4.04513509 8.59591206 0 0 Z M112 356 C111.02417969 358.6503125 110.04835937 361.300625 109.04296875 364.03125 C108.08981908 366.61948704 107.13658818 369.20769414 106.18334961 371.79589844 C105.52473613 373.58427866 104.86620611 375.37268961 104.20776367 377.16113281 C103.25722238 379.74292097 102.30637351 382.32459569 101.35546875 384.90625 C100.91934517 386.09112 100.91934517 386.09112 100.47441101 387.29992676 C100.19434708 388.06011108 99.91428314 388.82029541 99.62573242 389.60351562 C99.35707367 390.33546143 99.08841492 391.06740723 98.81161499 391.8215332 C98.26130819 393.29861914 97.69838973 394.77105623 97.12417603 396.23901367 C95.46643028 400.49192893 95.46643028 400.49192893 95 405 C108.86 405 122.72 405 137 405 C137 388.83 137 372.66 137 356 C128.75 356 120.5 356 112 356 Z " fill="#F9BF2D" transform="translate(126,35)"/>
<path d="M0 0 C1.06320672 2.09273722 2.08446849 4.18886774 3.04296875 6.33203125 C8.4369239 18.02200232 16.37736895 23.19511342 28 28 C42.45963287 32.59617022 55.61960606 29.51766551 68.80078125 22.94921875 C72.08425125 20.94866743 74.40528569 18.82034164 77 16 C77.86625 15.0925 78.7325 14.185 79.625 13.25 C82.61997268 9.64091621 83.77978695 5.4641941 85 1 C87.06519184 3.4782302 88.50863353 5.97563699 89.875 8.875 C94.66009547 18.49855632 102.67600451 24.35895672 112.8125 27.875 C126.93134381 31.93385633 140.80702281 30.36886207 153.75390625 23.3671875 C162.55135862 18.0122165 167.36817078 10.56552202 171 1 C171.41765625 1.85078125 171.41765625 1.85078125 171.84375 2.71875 C173.00719248 5.01419056 174.23986484 7.25634472 175.5 9.5 C176.73640944 11.70141193 177.92759066 13.8277157 178.90625 16.15625 C180.28742174 18.48451093 181.54142199 18.94697776 184 20 C185.19400526 20.78182082 186.38131712 21.57393861 187.5625 22.375 C196.18270656 27.77657121 204.90331748 29.31721958 215 31 C215 82.81 215 134.62 215 188 C145.37 188 75.74 188 4 188 C3.34 186.02 2.68 184.04 2 182 C-1.31054245 178.16674033 -4.24873359 175.30032913 -9.39751053 174.73828697 C-10.29349331 174.73275621 -11.18947609 174.72722546 -12.11260986 174.7215271 C-13.14249653 174.71037558 -14.17238319 174.69922405 -15.23347855 174.6877346 C-16.36202633 174.68556246 -17.49057411 174.68339031 -18.65332031 174.68115234 C-19.8630891 174.67099909 -21.07285789 174.66084583 -22.31928635 174.6503849 C-26.23889616 174.61972634 -30.15843322 174.60258568 -34.078125 174.5859375 C-36.49658843 174.56900603 -38.91504584 174.55118974 -41.33349609 174.5324707 C-50.30559485 174.46924698 -59.27780779 174.42316886 -68.25 174.375 C-98.32125 174.189375 -98.32125 174.189375 -129 174 C-129 126.81 -129 79.62 -129 31 C-123.39 30.01 -117.78 29.02 -112 28 C-100.05054207 22.90678842 -92.04390291 18.11550548 -87 6 C-86.38125 4.515 -86.38125 4.515 -85.75 3 C-85.5025 2.34 -85.255 1.68 -85 1 C-83.28024315 3.57963528 -82.08825997 5.94594055 -80.8125 8.75 C-75.25815902 19.74695672 -65.82258045 24.90867724 -54.48046875 28.8828125 C-41.00863824 32.32965922 -27.72571832 29.06409018 -15.6953125 22.65625 C-7.78800921 17.79726943 -2.83491311 10.67138162 -0.3671875 1.69921875 C-0.24601563 1.13847656 -0.12484375 0.57773438 0 0 Z " fill="#E6E5FB" transform="translate(255,161)"/>
<path d="M0 0 C25.08 0 50.16 0 76 0 C73.75011283 10.12449227 73.75011283 10.12449227 72.51049805 13.48950195 C72.23182892 14.25496841 71.95315979 15.02043488 71.66604614 15.80909729 C71.3676181 16.610728 71.06919006 17.4123587 70.76171875 18.23828125 C70.44427704 19.10392197 70.12683533 19.96956268 69.79977417 20.86143494 C69.11929998 22.71584728 68.43656056 24.56942973 67.7517395 26.42224121 C66.66864307 29.3637116 65.60103231 32.31042187 64.53686523 35.25878906 C61.22208567 44.41437205 57.83999466 53.51092538 54.0859375 62.49609375 C46.6693505 80.55455862 43.57014395 96.19703268 44.04321289 115.81933594 C44.41310213 131.4253381 44.41310213 131.4253381 40 138 C39.47019531 138.79792969 38.94039062 139.59585938 38.39453125 140.41796875 C27.53917275 152.55988826 16.2814008 155.74758455 0 157 C0 204.19 0 251.38 0 300 C39.79020873 299.80215748 39.79020873 299.80215748 79.58007812 299.54956055 C87.28808594 299.52697754 87.28808594 299.52697754 90.90026855 299.52278137 C93.41496202 299.51511978 95.92963748 299.49756801 98.44421387 299.47212219 C102.26065828 299.43544378 106.07598348 299.43047248 109.89257812 299.43237305 C111.56381115 299.40538723 111.56381115 299.40538723 113.26880646 299.37785625 C120.15161903 299.42364089 124.67063208 300.53136389 130 305 C134.5657326 309.71301429 134.20360517 315.69159556 134.25 321.9375 C134.2809375 322.97293945 134.2809375 322.97293945 134.3125 324.02929688 C134.36026039 330.32769813 132.6353796 334.16019795 128.5 338.8125 C124.45035979 342.35593519 121.20635674 342.09823315 116 342 C115.74089844 343.26457031 115.48179687 344.52914063 115.21484375 345.83203125 C114.00820476 351.24135695 112.33639829 356.44084615 110.5625 361.6875 C110.2219458 362.70263672 109.8813916 363.71777344 109.53051758 364.76367188 C104.28594327 380.23801578 98.55677489 395.54851602 92.80688477 410.84082031 C91.7147517 413.7633089 90.63506808 416.69033459 89.5546875 419.6171875 C89.11769531 420.80054688 88.68070313 421.98390625 88.23046875 423.203125 C87.31827162 425.67420657 86.40682693 428.14556601 85.49609375 430.6171875 C85.06167969 431.7928125 84.62726563 432.9684375 84.1796875 434.1796875 C83.78507324 435.24944824 83.39045898 436.31920898 82.98388672 437.42138672 C82 440 82 440 81 442 C30.18 442 -20.64 442 -73 442 C-87 404 -87 404 -92.828125 387.26953125 C-94.86504299 381.46567668 -94.86504299 381.46567668 -96.90625 375.66333008 C-97.82681061 373.03915417 -98.72743726 370.4091165 -99.61523438 367.77368164 C-100.93469556 363.86048649 -102.31686623 359.97206281 -103.703125 356.08203125 C-104.08881653 354.90429642 -104.47450806 353.72656158 -104.87188721 352.51313782 C-106.868778 346.59169162 -106.868778 346.59169162 -111.4317627 342.71420288 C-114.0632295 341.91818019 -114.0632295 341.91818019 -116.65081787 341.57328796 C-120.69862987 340.58547102 -122.88443385 337.43486755 -125 334 C-126.41520795 329.75437615 -126.26456471 325.69839532 -126.3125 321.25 C-126.34150391 320.36828125 -126.37050781 319.4865625 -126.40039062 318.578125 C-126.45925497 312.49245701 -125.77565857 308.85528953 -122 304 C-116.89391878 300.47539221 -113.11577031 299.42740118 -106.87890625 299.609375 C-106.13414536 299.61503479 -105.38938446 299.62069458 -104.62205505 299.62652588 C-102.2681862 299.6487265 -99.9159003 299.6988863 -97.5625 299.75 C-95.95640236 299.77008634 -94.3502806 299.78833336 -92.74414062 299.8046875 C-88.8288271 299.84853691 -84.9146809 299.91744529 -81 300 C-80.90251465 299.06446289 -80.8050293 298.12892578 -80.70458984 297.16503906 C-79.96915512 292.05619145 -78.32384798 287.25338015 -76.7265625 282.359375 C-76.23994644 280.85337738 -76.23994644 280.85337738 -75.74349976 279.31695557 C-75.0588522 277.20480667 -74.37118162 275.09363556 -73.68066406 272.98339844 C-72.6250644 269.75019725 -71.58552974 266.51211613 -70.546875 263.2734375 C-69.87857368 261.21843446 -69.20933514 259.16373591 -68.5390625 257.109375 C-68.22957672 256.14062439 -67.92009094 255.17187378 -67.60122681 254.17376709 C-67.30436981 253.27563293 -67.00751282 252.37749878 -66.70166016 251.45214844 C-66.44486481 250.66273865 -66.18806946 249.87332886 -65.92349243 249.05999756 C-64.89545494 246.76679551 -63.99571245 245.52500348 -62 244 C-58.90379585 243.60683122 -56.95775018 243.38231723 -54 244 C-51.4375 246 -51.4375 246 -50 249 C-50.38427935 255.41671518 -52.12819741 261.11816527 -54.16015625 267.1875 C-54.46948593 268.13061035 -54.77881561 269.0737207 -55.09751892 270.04541016 C-56.07900751 273.03257762 -57.07057675 276.0162833 -58.0625 279 C-58.73309265 281.03493533 -59.40302143 283.07008955 -60.07226562 285.10546875 C-61.70595145 290.07333121 -63.3532501 295.03637708 -65 300 C-52.46 300 -39.92 300 -27 300 C-26.94995784 280.31953097 -26.9330816 260.63994474 -26.97665405 240.95948029 C-26.99582465 231.821138 -27.00013076 222.68324337 -26.96923828 213.54492188 C-26.94234479 205.57831982 -26.94355059 197.61229771 -26.97825909 189.64571714 C-26.99565685 185.42865554 -26.99914585 181.2126325 -26.96896362 176.99562073 C-26.94097076 173.02239442 -26.95068255 169.05100641 -26.98873711 165.07788086 C-26.99612724 163.62349325 -26.98999512 162.16896099 -26.96898079 160.71470642 C-26.72852514 152.63416951 -26.72852514 152.63416951 -29.78297424 145.40246582 C-31.76177843 143.42677237 -33.80753151 141.72828689 -36 140 C-37.83984375 137.27734375 -37.83984375 137.27734375 -38.9375 134.9375 C-39.31777344 134.16277344 -39.69804688 133.38804687 -40.08984375 132.58984375 C-46.03094277 115.68448474 -44.67677205 92.45963187 -37.18725586 76.38964844 C-34.75631338 71.43281679 -32.1960237 66.54378012 -29.56584167 61.69003296 C-25.26611089 53.74902701 -21.46813845 45.58520443 -17.652771 37.40344238 C-15.83739771 33.52009873 -13.99608017 29.64914385 -12.15625 25.77734375 C-8.08182473 17.19537217 -4.04513509 8.59591206 0 0 Z " fill="#135065" transform="translate(126,35)"/>
<path d="M0 0 C0.41765625 0.85078125 0.41765625 0.85078125 0.84375 1.71875 C2.00719248 4.01419056 3.23986484 6.25634472 4.5 8.5 C5.73640944 10.70141193 6.92759066 12.8277157 7.90625 15.15625 C9.28742174 17.48451093 10.54142199 17.94697776 13 19 C14.19400526 19.78182082 15.38131712 20.57393861 16.5625 21.375 C25.18270656 26.77657121 33.90331748 28.31721958 44 30 C44 81.81 44 133.62 44 187 C-12.76 187 -69.52 187 -128 187 C-125.36 182.38 -122.72 177.76 -120 173 C-117.0004543 167.63978948 -114.0070161 162.27643446 -111.02539062 156.90625 C-110.44595703 155.86726562 -109.86652344 154.82828125 -109.26953125 153.7578125 C-108.76010986 152.8414502 -108.25068848 151.92508789 -107.72583008 150.98095703 C-105.57519641 147.2662538 -103.27493952 143.63990322 -101 140 C-134.66 139.505 -134.66 139.505 -169 139 C-169 111.61 -169 84.22 -169 56 C-141.61 56 -114.22 56 -86 56 C-85.67 74.48 -85.34 92.96 -85 112 C-82.834375 108.24625 -80.66875 104.4925 -78.4375 100.625 C-74.35546875 93.54947917 -70.2734375 86.47395833 -66.19140625 79.3984375 C-65.58014893 78.33890869 -64.9688916 77.27937988 -64.33911133 76.18774414 C-63.11114032 74.05929367 -61.8831128 71.9308758 -60.6550293 69.80249023 C-57.72893947 64.73113944 -54.8034114 59.65946708 -51.87988281 54.5866394 C-50.50193062 52.19573403 -49.12365828 49.80501328 -47.74536133 47.41430664 C-46.77459018 45.73016037 -45.80428126 44.04574769 -44.83398438 42.36132812 C-44.24423828 41.33845703 -43.65449219 40.31558594 -43.046875 39.26171875 C-42.52963867 38.36412842 -42.01240234 37.46653809 -41.47949219 36.54174805 C-40.99125977 35.70297119 -40.50302734 34.86419434 -40 34 C-39.49509033 33.08645752 -38.99018066 32.17291504 -38.4699707 31.23168945 C-37 29 -37 29 -34.43359375 28.03125 C-33.44488281 27.8559375 -32.45617187 27.680625 -31.4375 27.5 C-21.511154 25.35408704 -12.24580026 21.09904795 -6.30859375 12.5703125 C-3.79845388 8.4936034 -1.70088885 4.47980584 0 0 Z " fill="#E7E5FA" transform="translate(426,162)"/>
<path d="M0 0 C0.66 0 1.32 0 2 0 C2.07009657 25.02588819 2.1229914 50.05176166 2.15543652 75.07772827 C2.17090209 86.69784833 2.19198578 98.31790738 2.22631836 109.93798828 C2.25623009 120.0666365 2.27557725 130.19524053 2.28226548 140.32393169 C2.28617471 145.68645893 2.29535567 151.04885974 2.31719017 156.41134644 C2.33758324 161.46083128 2.34382805 166.51013785 2.33932304 171.55965996 C2.34014698 173.41075039 2.34609576 175.26184692 2.35761642 177.11290169 C2.37260478 179.64579741 2.36893068 182.17802541 2.36076355 184.7109375 C2.36950207 185.43858779 2.3782406 186.16623808 2.38724393 186.91593838 C2.32960274 193.55733551 0.89946326 199.0141975 -3.75 203.875 C-11.4985797 208.94137904 -19.49828713 208.27538922 -28.47241211 208.22705078 C-29.94140617 208.22648606 -31.4104008 208.22680441 -32.87939453 208.22793579 C-36.85204372 208.22850793 -40.82457132 208.21677613 -44.79719234 208.20278788 C-48.95451533 208.19025737 -53.11184133 208.18910819 -57.2691803 208.18673706 C-65.1348603 208.1805291 -73.00048449 208.16412756 -80.86613995 208.14403808 C-89.82380235 208.12165777 -98.78146747 208.11068029 -107.73915088 208.10064721 C-126.15947196 208.07976071 -144.57971656 208.04309303 -163 208 C-163 224.17 -163 240.34 -163 257 C-148.15 257 -133.3 257 -118 257 C-118 269.21 -118 281.42 -118 294 C-170.47 294 -222.94 294 -277 294 C-277 258 -277 258 -276 257 C-274.64905018 256.90731001 -273.29332909 256.88252674 -271.93920898 256.88647461 C-271.06631226 256.88659546 -270.19341553 256.88671631 -269.29406738 256.88684082 C-268.37073608 256.89195679 -267.44740479 256.89707275 -266.49609375 256.90234375 C-265.6517981 256.90335083 -264.80750244 256.90435791 -263.93762207 256.90539551 C-260.77090098 256.9106443 -257.60419919 256.92460544 -254.4375 256.9375 C-247.363125 256.958125 -240.28875 256.97875 -233 257 C-233 240.83 -233 224.66 -233 208 C-241.25 208 -249.5 208 -258 208 C-257.30340887 204.51704434 -256.5755384 201.50265533 -255.4375 198.1875 C-255.03337891 197.00220703 -255.03337891 197.00220703 -254.62109375 195.79296875 C-254.31365234 194.90544922 -254.31365234 194.90544922 -254 194 C-253.02160156 193.90525391 -253.02160156 193.90525391 -252.0234375 193.80859375 C-245.93485454 192.95547372 -242.81029731 191.6746959 -239.05859375 186.75390625 C-235.16269435 180.29907662 -236.50591637 174.09466192 -236 166 C-166.7 166 -97.4 166 -26 166 C-26 113.86 -26 61.72 -26 8 C-21.71 7.34 -17.42 6.68 -13 6 C-9.25379892 4.86160796 -9.25379892 4.86160796 -6.25 3.4375 C-5.26515625 3.00308594 -4.2803125 2.56867188 -3.265625 2.12109375 C-1.08665346 1.19337304 -1.08665346 1.19337304 0 0 Z " fill="#970000" transform="translate(496,183)"/>
<path d="M0 0 C1.31194336 0.02707031 1.31194336 0.02707031 2.65039062 0.0546875 C4.78824108 0.10141647 6.92552045 0.17314559 9.0625 0.25 C8.45664062 0.69472656 7.85078125 1.13945312 7.2265625 1.59765625 C3.35678705 4.55237649 -0.24842984 7.60695064 -1.9375 12.25 C-2.25382965 15.21161746 -2.2620203 18.14877364 -2.25 21.125 C-2.26611328 21.91519531 -2.28222656 22.70539063 -2.29882812 23.51953125 C-2.30298133 28.51168201 -1.68735368 31.92505114 1.0625 36.25 C5.49013235 40.34555992 8.69758517 41.36498429 14.63272095 41.44639587 C16.37415815 41.47362008 16.37415815 41.47362008 18.15077591 41.50139427 C20.06508471 41.52378638 20.06508471 41.52378638 22.01806641 41.54663086 C23.37518189 41.56573222 24.73229219 41.58520477 26.08939743 41.60502052 C29.79391277 41.65767516 33.4984835 41.70388096 37.20310163 41.74864316 C39.54798448 41.77745337 41.8928376 41.80803009 44.23768997 41.83921623 C78.60678025 42.29593163 112.97731295 42.55080136 147.34862638 42.76740968 C155.42734401 42.81842899 163.50603917 42.87268913 171.58473468 42.92708123 C188.07730215 43.03805659 204.56989079 43.14540648 221.0625 43.25 C220.7536608 44.27845142 220.7536608 44.27845142 220.43858242 45.32767963 C220.16844357 46.22761741 219.89830473 47.12755518 219.61997986 48.05476379 C219.35221206 48.94664807 219.08444426 49.83853235 218.80856228 50.75744343 C218.24862718 52.62815846 217.69432038 54.50055964 217.14282227 56.3737793 C214.14227164 66.40545771 210.56196077 76.22036117 207 86.0625 C206.3688767 87.81435807 205.73801576 89.56631067 205.10742188 91.31835938 C202.69426685 98.01454686 200.2770839 104.70754813 197.7693634 111.3690033 C196.70652422 114.19726826 195.66228056 117.03232483 194.6171875 119.8671875 C194.18019531 121.05054688 193.74320313 122.23390625 193.29296875 123.453125 C192.38077162 125.92420657 191.46932693 128.39556601 190.55859375 130.8671875 C190.12417969 132.0428125 189.68976563 133.2184375 189.2421875 134.4296875 C188.84757324 135.49944824 188.45295898 136.56920898 188.04638672 137.67138672 C187.0625 140.25 187.0625 140.25 186.0625 142.25 C135.2425 142.25 84.4225 142.25 32.0625 142.25 C18.0625 104.25 18.0625 104.25 12.234375 87.51953125 C10.19745701 81.71567668 10.19745701 81.71567668 8.15625 75.91333008 C7.23568939 73.28915417 6.33506274 70.6591165 5.44726562 68.02368164 C4.12780444 64.11048649 2.74563377 60.22206281 1.359375 56.33203125 C0.78083771 54.565429 0.78083771 54.565429 0.19061279 52.76313782 C-1.806278 46.84169162 -1.806278 46.84169162 -6.3692627 42.96420288 C-9.0007295 42.16818019 -9.0007295 42.16818019 -11.58831787 41.82328796 C-15.63612987 40.83547102 -17.82193385 37.68486755 -19.9375 34.25 C-21.35270795 30.00437615 -21.20206471 25.94839532 -21.25 21.5 C-21.27900391 20.61828125 -21.30800781 19.7365625 -21.33789062 18.828125 C-21.39675497 12.74245701 -20.71315857 9.10528953 -16.9375 4.25 C-11.3733779 -0.05681112 -6.87900735 -0.27202158 0 0 Z " fill="#019788" transform="translate(20.9375,334.75)"/>
<path d="M0 0 C25.08 0 50.16 0 76 0 C73.75011283 10.12449227 73.75011283 10.12449227 72.51049805 13.48950195 C72.23182892 14.25496841 71.95315979 15.02043488 71.66604614 15.80909729 C71.3676181 16.610728 71.06919006 17.4123587 70.76171875 18.23828125 C70.44427704 19.10392197 70.12683533 19.96956268 69.79977417 20.86143494 C69.11929998 22.71584728 68.43656056 24.56942973 67.7517395 26.42224121 C66.66864307 29.3637116 65.60103231 32.31042187 64.53686523 35.25878906 C61.22208567 44.41437205 57.83999466 53.51092538 54.0859375 62.49609375 C46.6693505 80.55455862 43.57014395 96.19703268 44.04321289 115.81933594 C44.41310213 131.4253381 44.41310213 131.4253381 40 138 C39.47019531 138.79792969 38.94039063 139.59585938 38.39453125 140.41796875 C29.48713754 150.38105357 18.03967792 156.27608669 4.6171875 157.15625 C-8.76097455 157.61362306 -22.50003094 153.47898159 -32.4375 144.25 C-43.77240177 131.89967994 -43.55829817 114.34144106 -43.02734375 98.43359375 C-42.28585991 84.7816602 -35.96252088 73.49448726 -29.56584167 61.69003296 C-25.26611089 53.74902701 -21.46813845 45.58520443 -17.652771 37.40344238 C-15.83739771 33.52009873 -13.99608017 29.64914385 -12.15625 25.77734375 C-8.08182473 17.19537217 -4.04513509 8.59591206 0 0 Z " fill="#125064" transform="translate(126,35)"/>
<path d="M0 0 C25.08 0 50.16 0 76 0 C81.11384167 10.22768334 86.20942548 20.45665815 91.1875 30.75 C91.66181961 31.72981842 91.66181961 31.72981842 92.14572144 32.72943115 C98.42322818 45.70710648 104.61336969 58.73175964 110.53027344 71.87841797 C111.50789956 73.95481791 112.55910338 75.99816683 113.68066406 78.00048828 C118.52367047 87.0263515 118.86825196 95.0278198 118.67236328 105.0390625 C118.62492922 107.62886423 118.6313113 110.21455706 118.64453125 112.8046875 C118.60348965 125.07892155 117.41203672 135.64402358 108.546875 144.92578125 C97.20046695 154.16649088 83.32819378 157.34114747 69 157 C58.97394261 155.82182275 48.20300113 151.20300113 41 144 C34.92678022 136.14696774 31.68534581 129.68567325 32.19140625 119.65625 C33.65915041 90.03659818 24.23761687 65.54036557 13.46777344 38.27978516 C10.49123062 30.74410205 7.69849134 23.14661117 4.94256592 15.52810669 C4.27000046 13.6799594 3.58369015 11.83683213 2.89697266 9.99389648 C2.50300293 8.93630127 2.1090332 7.87870605 1.703125 6.7890625 C1.36958008 5.89912598 1.03603516 5.00918945 0.69238281 4.09228516 C0 2 0 2 0 0 Z " fill="#125064" transform="translate(394,35)"/>
<path d="M0 0 C21.45 0 42.9 0 65 0 C67.97 7.92 70.94 15.84 74 24 C76.25301648 29.71868558 76.25301648 29.71868558 78.5259552 35.42945862 C99.3631453 87.70883501 99.3631453 87.70883501 98.75 111.875 C98.73139923 112.70168182 98.71279846 113.52836365 98.69363403 114.38009644 C98.27390437 126.43333568 95.38566626 136.19204491 87.01171875 145.18359375 C77.24689482 154.00037652 64.90758163 157.37251457 51.99609375 157.21484375 C39.44869103 156.31509518 27.59052476 151.27929734 19 142 C13.89798681 135.18433352 11.71340142 129.26131396 11.7265625 120.703125 C11.70951033 119.02228932 11.69156865 117.34146249 11.67285156 115.66064453 C11.665802 114.77910706 11.65875244 113.89756958 11.65148926 112.98931885 C11.4690629 94.12416396 10.01907489 75.7742583 7.30651855 57.12084961 C6.87079361 54.10600084 6.44959935 51.08916108 6.02722168 48.07241821 C5.1831224 42.0469184 4.32722743 36.02333754 3.44689941 30.00302124 C2.55999048 23.93476856 1.68599033 17.86477236 0.8515625 11.7890625 C0.605271 10.00943115 0.605271 10.00943115 0.35400391 8.19384766 C0 5 0 5 0 0 Z " fill="#F9BF2D" transform="translate(329,35)"/>
<path d="M0 0 C20.46 0 40.92 0 62 0 C63.25432877 6.27164386 64.39898489 12.35235077 65.1484375 18.671875 C65.24583221 19.46499084 65.34322693 20.25810669 65.443573 21.07525635 C65.65054308 22.76302922 65.85588529 24.45100242 66.05969238 26.13916016 C66.59703689 30.58853079 67.14668205 35.03638427 67.6953125 39.484375 C67.85960754 40.81982361 67.85960754 40.81982361 68.02722168 42.18225098 C69.46007204 53.79115463 71.02343332 65.38229951 72.59863281 76.97265625 C72.73108398 77.97167969 72.86353516 78.97070312 73 80 C73.176521 81.2576416 73.35304199 82.5152832 73.53491211 83.81103516 C74.07698962 88.19606778 74.19649244 92.54602236 74.23828125 96.9609375 C74.246353 97.79154694 74.25442474 98.62215637 74.26274109 99.47793579 C74.27648323 101.2242022 74.28724884 102.97049435 74.29516602 104.71679688 C74.30669919 106.48543286 74.32717218 108.25403367 74.35668945 110.02246094 C74.58114575 123.50990178 73.87320463 134.77339207 64 145 C56.37775946 151.40995576 46.0024219 156.44430989 36 157 C35.278125 157.05027344 34.55625 157.10054687 33.8125 157.15234375 C21.29222408 157.65395737 9.52886102 153.98447927 -0.28515625 146.18359375 C-7.0378322 139.93579077 -11.64534944 131.92977355 -12.19981384 122.65910339 C-12.23603453 121.31090026 -12.26520993 119.96249662 -12.28881836 118.61401367 C-12.30252283 117.87349321 -12.3162273 117.13297276 -12.33034706 116.37001228 C-12.68257538 92.57337652 -10.36410216 69.60291615 -6.95910645 46.07958984 C-6.28451213 41.37300198 -5.64357599 36.66181672 -4.99804688 31.95117188 C-4.05553445 25.11664868 -3.10482221 18.28338485 -2.12329102 11.4543457 C-1.97439674 10.40365654 -1.97439674 10.40365654 -1.82249451 9.33174133 C-1.36123678 6.15204509 -0.78097743 3.12390973 0 0 Z " fill="#125064" transform="translate(267,35)"/>
<path d="M0 0 C5.07002952 0.78348153 9.94605857 1.975246 14.90234375 3.28125 C18.22828253 4.05296846 21.62001926 4.51714561 25 5 C25 56.81 25 108.62 25 162 C-13.61 162 -52.22 162 -92 162 C-91.02375781 157.11878906 -89.41525669 153.94832275 -86.875 149.8125 C-85.95830195 148.28725898 -85.0430296 146.76116051 -84.12890625 145.234375 C-83.62762207 144.39970703 -83.12633789 143.56503906 -82.60986328 142.70507812 C-79.62429981 137.68838974 -76.72321379 132.62285554 -73.8125 127.5625 C-72.51697859 125.31377241 -71.22140498 123.06507489 -69.92578125 120.81640625 C-69.27561035 119.68734863 -68.62543945 118.55829102 -67.95556641 117.39501953 C-64.80667946 111.9283002 -61.65316736 106.46425113 -58.5 101 C-57.2499765 98.83334689 -55.99997653 96.66668021 -54.75 94.5 C-47.25 81.5 -39.75 68.5 -32.25 55.5 C-31.32078735 53.88931641 -31.32078735 53.88931641 -30.37280273 52.24609375 C-29.13023981 50.0923828 -27.88756511 47.93873633 -26.64477539 45.78515625 C-23.74685377 40.76315738 -20.84996651 35.74057193 -17.95724487 30.71557617 C-16.94052802 28.94954478 -15.92344342 27.18372569 -14.90625 25.41796875 C-13.63599127 23.21265845 -12.36640982 21.00695784 -11.09765625 18.80078125 C-7.46359212 12.49366105 -3.76901741 6.22744663 0 0 Z " fill="#FAF8FC" transform="translate(445,187)"/>
<path d="M0 0 C1.22355698 0.00222061 2.44711395 0.00444122 3.70774841 0.00672913 C4.71746201 0.00651009 4.71746201 0.00651009 5.74757385 0.00628662 C7.98229649 0.00698573 10.21693674 0.01477799 12.4516449 0.02259827 C13.99721226 0.02446245 15.54278022 0.02588635 17.08834839 0.02688599 C21.16380941 0.03071112 25.23923502 0.04054135 29.31468201 0.05158997 C34.20051593 0.06359885 39.08636167 0.06820635 43.97220612 0.07404327 C51.40157496 0.08375312 58.83086602 0.10290968 66.26023865 0.12025452 C66.26023865 16.62025452 66.26023865 33.12025452 66.26023865 50.12025452 C81.11023865 50.12025452 95.96023865 50.12025452 111.26023865 50.12025452 C111.26023865 62.33025452 111.26023865 74.54025452 111.26023865 87.12025452 C58.79023865 87.12025452 6.32023865 87.12025452 -47.73976135 87.12025452 C-47.73976135 51.12025452 -47.73976135 51.12025452 -46.73976135 50.12025452 C-45.38881153 50.02756453 -44.03309045 50.00278125 -42.67897034 50.00672913 C-41.81815353 50.00680466 -40.95733673 50.00688019 -40.07043457 50.00695801 C-39.13502335 50.01211929 -38.19961212 50.01728058 -37.2358551 50.02259827 C-36.28284012 50.02401321 -35.32982513 50.02542816 -34.34793091 50.02688599 C-31.2910097 50.032503 -28.23416058 50.04505836 -25.17726135 50.05775452 C-23.11020512 50.06276733 -21.04314774 50.06733061 -18.97608948 50.07142639 C-13.89728547 50.08247795 -8.81853565 50.09975397 -3.73976135 50.12025452 C-3.74198196 49.5085994 -3.74420258 48.89694427 -3.74649048 48.26675415 C-3.76854257 41.9245512 -3.78366763 35.58235907 -3.79469299 29.24012756 C-3.79973477 26.8703314 -3.806568 24.50053837 -3.81520081 22.13075256 C-3.82727325 18.73271413 -3.83299106 15.33471666 -3.8374176 11.93666077 C-3.84257889 10.87000687 -3.84774017 9.80335297 -3.85305786 8.70437622 C-3.85313339 7.72343491 -3.85320892 6.74249359 -3.85328674 5.73182678 C-3.85550735 4.86356766 -3.85772797 3.99530853 -3.86001587 3.10073853 C-3.66994725 -0.02952115 -3.16746366 0.13902737 0 0 Z " fill="#DD9302" transform="translate(266.73976135253906,389.87974548339844)"/>
<path d="M0 0 C27.06 0 54.12 0 82 0 C82 27.06 82 54.12 82 82 C54.94 82 27.88 82 0 82 C0 54.94 0 27.88 0 0 Z " fill="#FBBF2C" transform="translate(257,218)"/>
<path d="M0 0 C28.38 0 56.76 0 86 0 C86 45.51167728 86 45.51167728 76.97265625 55.15234375 C67.00417735 64.48915666 54.46988092 68.39336781 40.98828125 68.2109375 C28.62977876 67.33857262 16.14693123 62.42428653 7.6875 53.20703125 C-4.27967244 37.555521 0 19.60947 0 0 Z " fill="#009587" transform="translate(84,124)"/>
<path d="M0 0 C28.38 0 56.76 0 86 0 C86 46.02843045 86 46.02843045 76.546875 55.92578125 C65.20046695 65.16649088 51.32819378 68.34114747 37 68 C26.97394261 66.82182275 16.20300113 62.20300113 9 55 C-4.272124 37.83835894 0 24.37526228 0 0 Z " fill="#009687" transform="translate(426,124)"/>
<path d="M0 0 C0.33 0.66 0.66 1.32 1 2 C29.05 2 57.1 2 86 2 C86 47.64205817 86 47.64205817 76 58 C68.37775946 64.40995576 58.0024219 69.44430989 48 70 C47.278125 70.05027344 46.55625 70.10054688 45.8125 70.15234375 C33.29222408 70.65395737 21.52886102 66.98447927 11.71484375 59.18359375 C5.55514061 53.48442916 0.4070091 45.63919063 -0.12025452 37.03839111 C-0.11803391 36.35444275 -0.11581329 35.67049438 -0.11352539 34.96582031 C-0.11344986 34.18531311 -0.11337433 33.40480591 -0.11329651 32.60064697 C-0.10813522 31.76821472 -0.10297394 30.93578247 -0.09765625 30.078125 C-0.0962413 29.21813904 -0.09482635 28.35815308 -0.09336853 27.47210693 C-0.08778097 24.73136891 -0.07523075 21.99071324 -0.0625 19.25 C-0.05748339 17.3893241 -0.05292077 15.52864691 -0.04882812 13.66796875 C-0.03781561 9.11194754 -0.02055951 4.55598772 0 0 Z " fill="#029687" transform="translate(255,122)"/>
<path d="M0 0 C28.05 0 56.1 0 85 0 C85 45.45864967 85 45.45864967 75.01171875 56.18359375 C65.24689482 65.00037652 52.90758163 68.37251457 39.99609375 68.21484375 C27.44869103 67.31509518 15.59052476 62.27929734 7 53 C-5.24838593 36.63765238 0 23.96384739 0 0 Z " fill="#FEA001" transform="translate(341,124)"/>
<path d="M0 0 C28.05 0 56.1 0 85 0 C85 45.03508772 85 45.03508772 76.4375 55.25 C66.73743774 64.2585006 52.91429747 68.73411371 39.78125 68.28125 C25.48685759 66.83574964 14.25698027 60.94006759 5 50 C0 38 0 38 0 0 Z " fill="#FEA001" transform="translate(170,124)"/>
<path d="M0 0 C6.435 2.97 6.435 2.97 13 6 C17.62 6.99 22.24 7.98 27 9 C27 56.19 27 103.38 27 152 C18.09 152 9.18 152 0 152 C0 101.84 0 51.68 0 0 Z " fill="#960000" transform="translate(99,183)"/>
<path d="M0 0 C0.33 0 0.66 0 1 0 C1 36.63 1 73.26 1 111 C-20.12 111 -41.24 111 -63 111 C-55.0307571 95.0615142 -55.0307571 95.0615142 -51.5 89.25 C-50.63814459 87.80669256 -49.77755369 86.36262956 -48.91796875 84.91796875 C-48.45438965 84.1398584 -47.99081055 83.36174805 -47.51318359 82.56005859 C-44.57226671 77.58450931 -41.69630438 72.57129104 -38.8125 67.5625 C-38.17505859 66.45616211 -37.53761719 65.34982422 -36.88085938 64.20996094 C-35.57220371 61.93844323 -34.26377451 59.66679503 -32.95556641 57.39501953 C-29.80667944 51.92830016 -26.6531206 46.46427815 -23.5 41 C-22.26822484 38.86458583 -21.03645403 36.72916915 -19.8046875 34.59375 C-17.48043948 30.56489144 -15.15505139 26.53669509 -12.82830811 22.50927734 C-11.43041399 20.08952335 -10.03293911 17.66952737 -8.63549805 15.24951172 C-7.64347676 13.53198948 -6.65084571 11.81481948 -5.65820312 10.09765625 C-5.06201172 9.06511719 -4.46582031 8.03257812 -3.8515625 6.96875 C-3.32385254 6.05544922 -2.79614258 5.14214844 -2.25244141 4.20117188 C-1.46663489 2.82011309 -0.71060752 1.42121505 0 0 Z " fill="#E6E5FB" transform="translate(469,238)"/>
<path d="M0 0 C3 1 3 1 4.86328125 3.3359375 C12.60712474 12.99096723 24.41278641 15.82984463 36.0625 17.1875 C38.70713461 17.47460193 41.35233124 17.74161671 44 18 C39.60628185 26.43152059 35.04800533 34.73045448 30.19458008 42.90625 C26.34927267 49.38737858 22.57401919 55.90742127 18.8125 62.4375 C18.18585449 63.52506592 17.55920898 64.61263184 16.91357422 65.7331543 C15.61601919 67.98556663 14.31865925 70.23809136 13.02148438 72.49072266 C9.87608307 77.9521609 6.72553263 83.41062959 3.57553101 88.86941528 C1.96814063 91.65502595 0.36103493 94.44080084 -1.24609375 97.2265625 C-2.1640625 98.81770833 -3.08203125 100.40885417 -4 102 C-4.33 102 -4.66 102 -5 102 C-5 82.86 -5 63.72 -5 44 C-11.6 44 -18.2 44 -25 44 C-20.89669335 36.44225297 -16.73305444 28.92326967 -12.5 21.4375 C-11.95730469 20.47392578 -11.41460937 19.51035156 -10.85546875 18.51757812 C-7.33360904 12.28497913 -3.71524372 6.11927417 0 0 Z " fill="#FAF8FC" transform="translate(345,174)"/>
<path d="M0 0 C1.73306648 0.06193542 1.73306648 0.06193542 3.50114441 0.12512207 C4.6926561 0.13644165 5.88416779 0.14776123 7.11178589 0.15942383 C10.91378725 0.20417287 14.71200375 0.30454833 18.51286316 0.40637207 C21.09158471 0.44650026 23.67036542 0.48300215 26.24919128 0.51574707 C32.56753777 0.60390414 38.88368013 0.73773216 45.20036316 0.90637207 C40.9553976 8.71689285 36.64640169 16.48347827 32.24137878 24.20471191 C30.85529306 26.63686327 29.47677316 29.07329124 28.0973053 31.50920105 C27.09329221 33.25795637 26.05745628 34.98831722 25.02116394 36.71813965 C23.17347082 39.78215951 23.17347082 39.78215951 22.06315613 42.75671387 C20.73206982 45.70453356 19.8969737 47.08229538 17.20036316 48.90637207 C10.72379451 50.37723655 3.90449223 49.74649455 -2.67463684 49.46887207 C-4.52610266 49.42370252 -6.3776736 49.38264222 -8.22932434 49.3458252 C-12.75536226 49.2468865 -17.27634825 49.09175275 -21.79963684 48.90637207 C-22.07420715 47.96922363 -22.34877747 47.0320752 -22.63166809 46.06652832 C-23.60780121 42.71334534 -23.60780121 42.71334534 -26.48713684 40.34387207 C-27.25026184 39.53949707 -28.01338684 38.73512207 -28.79963684 37.90637207 C-28.50285073 33.84614931 -26.86346618 30.90996526 -24.81526184 27.44934082 C-24.20940247 26.41873535 -23.60354309 25.38812988 -22.97932434 24.32629395 C-22.34252747 23.25959473 -21.70573059 22.19289551 -21.04963684 21.09387207 C-20.42830872 20.03877441 -19.80698059 18.98367676 -19.16682434 17.89660645 C-17.3915609 14.89101802 -15.60841835 11.89191934 -13.79963684 8.90637207 C-13.50273453 8.20746857 -13.20583221 7.50856506 -12.89993286 6.78848267 C-9.89130204 0.49417178 -6.74638799 -0.00377193 0 0 Z " fill="#FAF8FC" transform="translate(280.7996368408203,300.0936279296875)"/>
<path d="M0 0 C1.93559313 -0.13504138 3.873872 -0.23201129 5.8125 -0.3125 C6.89144531 -0.37050781 7.97039063 -0.42851562 9.08203125 -0.48828125 C10.04496094 -0.32714844 11.00789063 -0.16601562 12 0 C14.41796022 3.3965911 15.86296233 6.97166804 17.27734375 10.87475586 C17.70208984 12.03885483 18.12683594 13.2029538 18.56445312 14.40232849 C19.02222194 15.67313575 19.47990159 16.94397512 19.9375 18.21484375 C20.42205954 19.54847383 20.9070956 20.88193086 21.39257812 22.21522522 C22.67520684 25.74152843 23.9516698 29.27003214 25.22674561 32.79907227 C26.48240213 36.27157855 27.74321122 39.74221106 29.00390625 43.21289062 C30.50103665 47.33503939 31.99763673 51.45737482 33.4909668 55.5809021 C36.04602528 62.6341245 38.61314181 69.68266372 41.203125 76.72314453 C41.59026672 77.77601512 41.59026672 77.77601512 41.98522949 78.85015583 C43.22096295 82.20993955 44.45865594 85.56898321 45.69921875 88.92698669 C46.13363281 90.10680618 46.56804687 91.28662567 47.015625 92.50219727 C47.40008789 93.54336197 47.78455078 94.58452667 48.18066406 95.65724182 C49 98 49 98 49 99 C44.38 99 39.76 99 35 99 C34.23300781 96.91816406 33.46601562 94.83632813 32.67578125 92.69140625 C32.40218781 91.94897675 32.12859436 91.20654724 31.84671021 90.44161987 C30.39116004 86.49165882 28.93675009 82.54128217 27.48388672 78.59033203 C23.9544071 68.99627289 20.41087898 59.4076347 16.8455658 49.826828 C15.15483819 45.28289158 13.46870229 40.73725494 11.7835741 36.19123936 C10.5852376 32.95936576 9.38440829 29.72846126 8.1781311 26.49954224 C6.81230118 22.84341579 5.45662205 19.18357023 4.1015625 15.5234375 C3.68659012 14.41772903 3.27161774 13.31202057 2.84407043 12.17280579 C2.46836411 11.15333359 2.09265778 10.13386139 1.70556641 9.08349609 C1.37473053 8.19439545 1.04389465 7.3052948 0.70303345 6.38925171 C0 4 0 4 0 0 Z " fill="#115366" transform="translate(18,378)"/>
<path d="M0 0 C4.19053728 0.85521169 5.64500724 2.1086469 8.0625 5.625 C7.87171341 8.37622044 7.54062665 10.91927838 7.0625 13.625 C6.913573 14.50136108 6.764646 15.37772217 6.61120605 16.28063965 C5.47390196 22.79927976 4.2294367 29.29861795 2.98925781 35.79833984 C2.53702258 38.1883998 2.09304563 40.58003671 1.65722656 42.97314453 C1.02530743 46.4391972 0.3671379 49.89934607 -0.296875 53.359375 C-0.48666931 54.42919617 -0.67646362 55.49901733 -0.87200928 56.60125732 C-2.32928029 63.97599519 -2.32928029 63.97599519 -5.44238281 67.29785156 C-8.32225044 68.82964808 -9.73496788 69.28192967 -12.9375 68.625 C-15.25 67.1875 -15.25 67.1875 -16.9375 64.625 C-17.36074055 57.49366242 -16.28547774 50.96272637 -14.890625 43.984375 C-14.57191437 42.35656097 -14.57191437 42.35656097 -14.24676514 40.69586182 C-13.79720906 38.41582668 -13.34313311 36.13667852 -12.88476562 33.85839844 C-12.18746982 30.37484924 -11.51498441 26.88709002 -10.84375 23.3984375 C-10.40254207 21.17678483 -9.95988357 18.95541965 -9.515625 16.734375 C-9.21848602 15.17490143 -9.21848602 15.17490143 -8.91534424 13.58392334 C-6.40069688 1.3618504 -6.40069688 1.3618504 0 0 Z " fill="#E1E4F9" transform="translate(185.9375,392.375)"/>
<path d="M0 0 C3.4375 1 3.4375 1 5.02905273 3.00268555 C6.86525974 6.91031483 7.62402345 10.72938774 8.41015625 14.95703125 C8.57873642 15.81882492 8.74731659 16.68061859 8.92100525 17.56852722 C9.45648067 20.31483967 9.97872593 23.06346012 10.5 25.8125 C11.02746684 28.55025808 11.55768745 31.2874608 12.08970642 34.02433777 C12.41907653 35.72335085 12.74540602 37.42295731 13.06813049 39.12324524 C13.79491666 42.91395057 14.57930627 46.6668943 15.53149414 50.40795898 C16.9377009 55.98314626 17.85551141 61.56102038 14.875 66.6875 C11.33403848 68.59417159 9.23867244 68.10579562 5.4375 67 C2.06601868 63.69303974 1.51303314 59.70460506 0.71875 55.2265625 C0.57473755 54.4663681 0.4307251 53.70617371 0.28234863 52.92294312 C-0.17609494 50.49206753 -0.61977465 48.05878242 -1.0625 45.625 C-1.50683059 43.23569344 -1.95422783 40.84697803 -2.40223694 38.45835876 C-2.695904 36.89076431 -2.9879346 35.32286237 -3.27830505 33.75465393 C-4.3885933 27.79340301 -5.64441233 21.87695708 -6.98657227 15.96313477 C-7.80107728 11.77252545 -8.60898307 7.19417231 -7.5625 3 C-4.83106745 0.32177717 -3.93437473 0 0 0 Z " fill="#E3E4FA" transform="translate(74.5625,393)"/>
<path d="M0 0 C8.91 0 17.82 0 27 0 C27 11.22 27 22.44 27 34 C18.09 34 9.18 34 0 34 C0 22.78 0 11.56 0 0 Z " fill="#089884" transform="translate(285,218)"/>
<path d="M0 0 C3.63 0 7.26 0 11 0 C11 27.06 11 54.12 11 82 C7.37 82 3.74 82 0 82 C0 54.94 0 27.88 0 0 Z " fill="#FEA000" transform="translate(257,218)"/>
<path d="M0 0 C1.9453125 0.40625 1.9453125 0.40625 4.5078125 2.40625 C7.68281299 9.03233799 3.9874568 17.01561517 1.78515625 23.59375 C1.32116173 25.00841553 1.32116173 25.00841553 0.84779358 26.45166016 C-0.13369501 29.43882762 -1.12526425 32.4225333 -2.1171875 35.40625 C-2.78778015 37.44118533 -3.45770893 39.47633955 -4.12695312 41.51171875 C-5.7618623 46.47912773 -7.40581549 51.44345922 -9.0546875 56.40625 C-14.3346875 56.40625 -19.6146875 56.40625 -25.0546875 56.40625 C-23.9292277 48.52803143 -23.9292277 48.52803143 -22.61181641 44.43652344 C-22.32126373 43.52578064 -22.03071106 42.61503784 -21.73135376 41.67669678 C-21.2610524 40.23571625 -21.2610524 40.23571625 -20.78125 38.765625 C-20.45683929 37.76162659 -20.13242859 36.75762817 -19.79818726 35.72320557 C-19.1135397 33.61105667 -18.42586912 31.49988556 -17.73535156 29.38964844 C-16.6797519 26.15644725 -15.64021724 22.91836613 -14.6015625 19.6796875 C-13.93326118 17.62468446 -13.26402264 15.56998591 -12.59375 13.515625 C-12.28426422 12.54687439 -11.97477844 11.57812378 -11.65591431 10.58001709 C-11.35905731 9.68188293 -11.06220032 8.78374878 -10.75634766 7.85839844 C-10.49955231 7.06898865 -10.24275696 6.27957886 -9.97817993 5.46624756 C-7.82123016 0.65482614 -5.2926251 -0.23435978 0 0 Z " fill="#DCDCFE" transform="translate(70.0546875,278.59375)"/>
<path d="M0 0 C1.31194336 0.02707031 1.31194336 0.02707031 2.65039062 0.0546875 C4.78824108 0.10141647 6.92552045 0.17314559 9.0625 0.25 C8.45664062 0.69472656 7.85078125 1.13945312 7.2265625 1.59765625 C3.35678705 4.55237649 -0.24842984 7.60695064 -1.9375 12.25 C-2.25382965 15.21161746 -2.2620203 18.14877364 -2.25 21.125 C-2.26611328 21.91519531 -2.28222656 22.70539063 -2.29882812 23.51953125 C-2.30298133 28.51168201 -1.68735368 31.92505114 1.0625 36.25 C5.8991675 40.72391744 9.36109926 41.37403985 15.82885742 41.45532227 C16.51204544 41.46522186 17.19523346 41.47512146 17.89912415 41.48532104 C20.15537053 41.51688679 22.41163797 41.5416739 24.66796875 41.56640625 C26.23310389 41.58698004 27.79823352 41.60797662 29.36335754 41.62937927 C33.48147116 41.68455609 37.59963456 41.73398471 41.71783447 41.78222656 C45.92065864 41.83247365 50.12341058 41.88814297 54.32617188 41.94335938 C62.5715535 42.05088726 70.81699558 42.15234413 79.0625 42.25 C79.0625 42.58 79.0625 42.91 79.0625 43.25 C68.41362128 43.45081188 57.7645951 43.63445654 47.11505318 43.79658794 C42.16928602 43.87241455 37.22375801 43.95400513 32.27832031 44.04907227 C27.49982324 44.14071313 22.72130153 44.21681607 17.942379 44.28244972 C16.1251805 44.31008015 14.30805607 44.34317472 12.49106216 44.38199425 C-9.92048317 44.8523808 -9.92048317 44.8523808 -15.88424683 39.50419617 C-21.06718081 33.87717152 -21.17075411 28.85401851 -21.25 21.5 C-21.27900391 20.61828125 -21.30800781 19.7365625 -21.33789062 18.828125 C-21.39675497 12.74245701 -20.71315857 9.10528953 -16.9375 4.25 C-11.3733779 -0.05681112 -6.87900735 -0.27202158 0 0 Z " fill="#019285" transform="translate(20.9375,334.75)"/>
<path d="M0 0 C1.68959045 1.18299866 1.68959045 1.18299866 3 3 C3.38768005 5.49778748 3.38768005 5.49778748 3.40405273 8.50952148 C3.41673691 9.63756699 3.42942108 10.76561249 3.44248962 11.92784119 C3.43955399 13.14661453 3.43661835 14.36538788 3.43359375 15.62109375 C3.4388356 16.87253677 3.44407745 18.1239798 3.44947815 19.41334534 C3.45590767 22.0624221 3.45598483 24.7106394 3.44604492 27.35961914 C3.43455949 30.7505656 3.4547568 34.14047002 3.48396206 37.53127956 C3.50674541 40.76955629 3.49985655 44.00775563 3.49609375 47.24609375 C3.50732773 48.46284286 3.51856171 49.67959198 3.53013611 50.93321228 C3.52075516 52.06440994 3.51137421 53.1956076 3.50170898 54.36108398 C3.50154282 55.3557518 3.50137665 56.35041962 3.50120544 57.37522888 C2.85965009 60.73500076 1.6686977 61.92209669 -1 64 C-4 64.5 -4 64.5 -7 64 C-9.6379661 61.93684306 -10.85371272 60.74307331 -11.50793457 57.41992188 C-11.51111694 56.44603516 -11.51429932 55.47214844 -11.51757812 54.46875 C-11.53018677 53.36080078 -11.54279541 52.25285156 -11.55578613 51.11132812 C-11.54768921 49.91958984 -11.53959229 48.72785156 -11.53125 47.5 C-11.5350769 46.27216797 -11.53890381 45.04433594 -11.54284668 43.77929688 C-11.54556842 41.18358541 -11.53818911 38.58784664 -11.52148438 35.9921875 C-11.50008075 32.01500401 -11.52127963 28.03962718 -11.546875 24.0625 C-11.54423177 21.54166267 -11.53910691 19.02082647 -11.53125 16.5 C-11.53934692 15.30826172 -11.54744385 14.11652344 -11.55578613 12.88867188 C-11.54317749 11.78072266 -11.53056885 10.67277344 -11.51757812 9.53125 C-11.51439575 8.55736328 -11.51121338 7.58347656 -11.50793457 6.58007812 C-10.24758048 0.17804882 -5.87407762 -0.74760988 0 0 Z " fill="#E5E5FB" transform="translate(134,395)"/>
</svg>
