<svg xmlns="http://www.w3.org/2000/svg" width="60" height="60" viewBox="0 0 60 60">
  <g id="Group_29966" data-name="Group 29966" transform="translate(-2337 -14271)">
    <g id="Group_29967" data-name="Group 29967">
      <g id="Group_29968" data-name="Group 29968">
        <rect id="Rectangle_4178" data-name="Rectangle 4178" width="60" height="60" transform="translate(2337 14271)" fill="none"/>
        <g id="Group_29343" data-name="Group 29343" transform="translate(129 -198.336)">
          <g id="partnership" transform="translate(2213 14500)">
            <path id="Path_25535" data-name="Path 25535" d="M254.3,184.605l6.37-4.55V168H247.75L240,178.333Z" transform="translate(-216.751 -163.694)" fill="#ffe07d"/>
            <path id="Path_25536" data-name="Path 25536" d="M84.305,154.944,80,151.5V136h8.55a14.7,14.7,0,0,1,10.394,4.305l5.167,5.167,6.267,5.571a4.416,4.416,0,0,1-1.538,7.491l-3.312,1.1Z" transform="translate(-73.972 -135.139)" fill="#ffd064"/>
            <rect id="Rectangle_4175" data-name="Rectangle 4175" width="10.96" height="4.871" rx="2.436" transform="translate(8.606 21.525) rotate(-45)" fill="#ffe07d"/>
            <path id="Path_25537" data-name="Path 25537" d="M108.668,268.271a3.3,3.3,0,0,1-2.331-5.628l4.305-4.305A3.3,3.3,0,0,1,115.3,263L111,267.305a3.275,3.275,0,0,1-2.331.966Zm4.305-9.176a1.569,1.569,0,0,0-1.113.46l-4.305,4.305a1.574,1.574,0,0,0,2.227,2.227l4.305-4.305a1.574,1.574,0,0,0-1.113-2.687Z" transform="translate(-96.613 -243.447)" fill="#ffd064"/>
            <rect id="Rectangle_4176" data-name="Rectangle 4176" width="9.742" height="4.871" rx="2.436" transform="translate(13.772 23.248) rotate(-45)" fill="#ffe07d"/>
            <path id="Path_25538" data-name="Path 25538" d="M156.663,291.408a3.3,3.3,0,0,1-2.331-5.626l3.444-3.444A3.3,3.3,0,0,1,162.438,287l-3.444,3.444A3.286,3.286,0,0,1,156.663,291.408Zm3.444-8.313a1.569,1.569,0,0,0-1.113.46L155.549,287a1.574,1.574,0,0,0,2.227,2.227l3.444-3.444a1.574,1.574,0,0,0-1.113-2.687Z" transform="translate(-139.441 -264.863)" fill="#ffd064"/>
            <path id="Path_25539" data-name="Path 25539" d="M2.436,0H6.089a2.436,2.436,0,1,1,0,4.871H2.436A2.436,2.436,0,0,1,2.436,0Z" transform="translate(19.799 24.109) rotate(-45)" fill="#ffe07d"/>
            <path id="Path_25540" data-name="Path 25540" d="M212.668,306.549a3.3,3.3,0,0,1-2.331-5.628l2.583-2.583A3.3,3.3,0,0,1,217.582,303L215,305.583A3.275,3.275,0,0,1,212.668,306.549Zm2.583-7.454a1.564,1.564,0,0,0-1.113.461l-2.583,2.583a1.574,1.574,0,0,0,2.227,2.227l2.583-2.583a1.574,1.574,0,0,0-1.113-2.688Z" transform="translate(-189.419 -279.141)" fill="#ffd064"/>
            <rect id="Rectangle_4177" data-name="Rectangle 4177" width="6.089" height="4.871" rx="2.436" transform="translate(25.826 24.971) rotate(-45)" fill="#ffe07d"/>
            <path id="Path_25541" data-name="Path 25541" d="M268.668,328.827a3.3,3.3,0,0,1-2.331-5.628l.861-.861A3.3,3.3,0,1,1,271.86,327l-.861.861A3.276,3.276,0,0,1,268.668,328.827Zm.861-5.731a1.569,1.569,0,0,0-1.113.46l-.861.861a1.574,1.574,0,1,0,2.227,2.226l.861-.861a1.574,1.574,0,0,0-1.113-2.687Z" transform="translate(-239.391 -300.558)" fill="#ffd064"/>
            <path id="Path_25542" data-name="Path 25542" d="M232.262,142.889V136h-8.55a14.7,14.7,0,0,0-10.394,4.305l-4.526,4.526a2.123,2.123,0,0,0,2.451,3.4l5.52-2.76h2.374a8.82,8.82,0,0,0,6.237-2.583Z" transform="translate(-188.347 -135.139)" fill="#ffe07d"/>
            <path id="Path_25543" data-name="Path 25543" d="M432,136h6.028v15.5H432Z" transform="translate(-388.085 -135.139)" fill="#0cb4fe"/>
            <path id="Path_25544" data-name="Path 25544" d="M24,136h6.028v15.5H24Z" transform="translate(-24 -135.139)" fill="#0cb4fe"/>
            <path id="Path_25545" data-name="Path 25545" d="M203.156,142.178a2.985,2.985,0,0,1-2.11-5.1l4.526-4.526a15.459,15.459,0,0,1,11-4.558h7.689a.861.861,0,0,1,0,1.722h-7.689a13.748,13.748,0,0,0-9.785,4.053l-4.526,4.526a1.262,1.262,0,0,0,1.457,2.021l5.52-2.76a.861.861,0,0,1,.385-.091H212a7.9,7.9,0,0,0,5.052-1.808.861.861,0,0,1,1.093,1.331,9.608,9.608,0,0,1-6.145,2.2h-2.171l-5.338,2.669a2.981,2.981,0,0,1-1.335.316Z" transform="translate(-181.21 -127.999)" fill="#ffd064"/>
          </g>
        </g>
      </g>
    </g>
  </g>
</svg>
