<svg width="60" height="60" viewBox="0 0 60 60" fill="none" xmlns="http://www.w3.org/2000/svg">
<path d="M13.7239 28.9603H6.57246C6.34804 28.9603 6.16617 29.1421 6.16617 29.3666V34.1252C6.16617 34.3496 6.34804 34.5315 6.57246 34.5315H13.7239C13.9483 34.5315 14.1302 34.3496 14.1302 34.1252V29.3666C14.1302 29.1421 13.9483 28.9603 13.7239 28.9603Z" fill="#55A2F0"/>
<path d="M13.7239 28.9603H10.1504V34.5315H13.7239C13.9483 34.5315 14.1302 34.3496 14.1302 34.1252V29.3666C14.1302 29.1421 13.9483 28.9603 13.7239 28.9603Z" fill="#4B9EE2"/>
<path d="M47.2389 6.83646C46.7467 6.83646 46.3478 7.23536 46.3478 7.72755V16.7035C46.3478 17.1957 46.7467 17.5946 47.2389 17.5946C47.7311 17.5946 48.13 17.1957 48.13 16.7035V7.72755C48.13 7.23548 47.7311 6.83646 47.2389 6.83646Z" fill="#2D5872"/>
<path d="M48.7384 20.0941H45.7394C45.222 20.0941 44.8026 19.6747 44.8026 19.1573V15.8801C44.8026 15.3627 45.222 14.9433 45.7394 14.9433H48.7384C49.2558 14.9433 49.6752 15.3627 49.6752 15.8801V19.1573C49.6752 19.6747 49.2558 20.0941 48.7384 20.0941Z" fill="#0CB4FE"/>
<path d="M52.9706 29.5952H41.5072C41.0143 29.5952 40.6147 29.1956 40.6147 28.7028V20.0504C40.6147 19.5575 41.0143 19.158 41.5072 19.158H52.9706C53.4635 19.158 53.863 19.5576 53.863 20.0504V28.7028C53.863 29.1956 53.4635 29.5952 52.9706 29.5952Z" fill="#0CB4FE"/>
<path d="M56.6422 59.9999H36.5265V23.4291H56.1483C56.4211 23.4291 56.6422 23.6503 56.6422 23.9231V59.9999V59.9999Z" fill="#53CAFF"/>
<path d="M56.1483 23.4291H50.6844C50.9573 23.4291 51.1784 23.6503 51.1784 23.9231V59.9999H56.6423V23.9231C56.6423 23.6503 56.4211 23.4291 56.1483 23.4291Z" fill="#0CB4FE"/>
<path d="M52.8803 32.1463H41.3535C40.9455 32.1463 40.6148 31.8155 40.6148 31.4076V29.6991C40.6148 29.291 40.9456 28.9603 41.3535 28.9603H52.8803C53.2883 28.9603 53.619 29.2911 53.619 29.6991V31.4076C53.619 31.8155 53.2883 32.1463 52.8803 32.1463Z" fill="#E1EFFB"/>
<path d="M52.8803 39.4508H41.3535C40.9455 39.4508 40.6148 39.12 40.6148 38.7121V37.0036C40.6148 36.5955 40.9456 36.2648 41.3535 36.2648H52.8803C53.2883 36.2648 53.619 36.5957 53.619 37.0036V38.7121C53.619 39.12 53.2883 39.4508 52.8803 39.4508Z" fill="#E1EFFB"/>
<path d="M52.8803 46.7553H41.3535C40.9455 46.7553 40.6148 46.4245 40.6148 46.0166V44.3081C40.6148 43.9 40.9456 43.5693 41.3535 43.5693H52.8803C53.2883 43.5693 53.619 43.9002 53.619 44.3081V46.0166C53.619 46.4245 53.2883 46.7553 52.8803 46.7553Z" fill="#E1EFFB"/>
<path d="M52.8803 54.0599H41.3535C40.9455 54.0599 40.6148 53.7291 40.6148 53.3211V51.6126C40.6148 51.2046 40.9456 50.8739 41.3535 50.8739H52.8803C53.2883 50.8739 53.619 51.2047 53.619 51.6126V53.3211C53.619 53.7292 53.2883 54.0599 52.8803 54.0599Z" fill="#E1EFFB"/>
<path d="M41.756 59.9999H18.5272C18.1557 59.9999 17.8546 59.6988 17.8546 59.3273V1.74844C17.8546 1.37695 18.1557 1.0759 18.5272 1.0759H41.756C42.1275 1.0759 42.4286 1.37695 42.4286 1.74844V59.3273C42.4286 59.6988 42.1275 59.9999 41.756 59.9999Z" fill="#0CB4FE"/>
<path d="M41.7562 1.0759H36.2923C36.6638 1.0759 36.9649 1.37695 36.9649 1.74844V59.3273C36.9649 59.6988 36.6638 59.9999 36.2923 59.9999H41.7562C42.1277 59.9999 42.4287 59.6988 42.4287 59.3273V1.74844C42.4287 1.37695 42.1275 1.0759 41.7562 1.0759Z" fill="#00A5EE"/>
<path d="M43.4845 0H16.5154C16.3311 0 16.1816 0.149414 16.1816 0.333867V2.59746C16.1816 2.78179 16.331 2.93132 16.5154 2.93132H43.4845C43.6688 2.93132 43.8183 2.78191 43.8183 2.59746V0.333867C43.8183 0.149414 43.6688 0 43.4845 0Z" fill="#00A5EE"/>
<path d="M24.5935 11.0039H21.3255C21.0953 11.0039 20.9087 10.8173 20.9087 10.5871V6.59683C20.9087 6.36667 21.0952 6.17999 21.3255 6.17999H24.5935C24.8237 6.17999 25.0103 6.36655 25.0103 6.59683V10.5872C25.0103 10.8173 24.8237 11.0039 24.5935 11.0039Z" fill="#E1EFFB"/>
<path d="M31.7757 11.0039H28.5077C28.2775 11.0039 28.0908 10.8173 28.0908 10.5871V6.59683C28.0908 6.36667 28.2774 6.17999 28.5077 6.17999H31.7757C32.0058 6.17999 32.1925 6.36655 32.1925 6.59683V10.5872C32.1924 10.8173 32.0058 11.0039 31.7757 11.0039Z" fill="#E1EFFB"/>
<path d="M38.9577 11.0039H35.6897C35.4596 11.0039 35.2729 10.8173 35.2729 10.5871V6.59683C35.2729 6.36667 35.4595 6.17999 35.6897 6.17999H38.9577C39.1879 6.17999 39.3746 6.36655 39.3746 6.59683V10.5872C39.3746 10.8173 39.188 11.0039 38.9577 11.0039Z" fill="#E1EFFB"/>
<path d="M24.5935 21.7679H21.3255C21.0953 21.7679 20.9087 21.5813 20.9087 21.351V17.3607C20.9087 17.1305 21.0952 16.9438 21.3255 16.9438H24.5935C24.8237 16.9438 25.0103 17.1304 25.0103 17.3607V21.351C25.0103 21.5813 24.8237 21.7679 24.5935 21.7679Z" fill="#E1EFFB"/>
<path d="M31.7757 21.7679H28.5077C28.2775 21.7679 28.0908 21.5813 28.0908 21.351V17.3607C28.0908 17.1305 28.2774 16.9438 28.5077 16.9438H31.7757C32.0058 16.9438 32.1925 17.1304 32.1925 17.3607V21.351C32.1924 21.5813 32.0058 21.7679 31.7757 21.7679Z" fill="#E1EFFB"/>
<path d="M38.9577 21.7679H35.6897C35.4596 21.7679 35.2729 21.5813 35.2729 21.351V17.3607C35.2729 17.1305 35.4595 16.9438 35.6897 16.9438H38.9577C39.1879 16.9438 39.3746 17.1304 39.3746 17.3607V21.351C39.3746 21.5813 39.188 21.7679 38.9577 21.7679Z" fill="#E1EFFB"/>
<path d="M24.5935 32.5319H21.3255C21.0953 32.5319 20.9087 32.3454 20.9087 32.1151V28.1247C20.9087 27.8946 21.0952 27.7079 21.3255 27.7079H24.5935C24.8237 27.7079 25.0103 27.8944 25.0103 28.1247V32.1151C25.0103 32.3454 24.8237 32.5319 24.5935 32.5319Z" fill="#E1EFFB"/>
<path d="M31.7757 32.5319H28.5077C28.2775 32.5319 28.0908 32.3454 28.0908 32.1151V28.1247C28.0908 27.8946 28.2774 27.7079 28.5077 27.7079H31.7757C32.0058 27.7079 32.1925 27.8944 32.1925 28.1247V32.1151C32.1924 32.3454 32.0058 32.5319 31.7757 32.5319Z" fill="#E1EFFB"/>
<path d="M38.9577 32.5319H35.6897C35.4596 32.5319 35.2729 32.3454 35.2729 32.1151V28.1247C35.2729 27.8946 35.4595 27.7079 35.6897 27.7079H38.9577C39.1879 27.7079 39.3746 27.8944 39.3746 28.1247V32.1151C39.3746 32.3454 39.188 32.5319 38.9577 32.5319Z" fill="#E1EFFB"/>
<path d="M31.7757 43.2959H28.5077C28.2775 43.2959 28.0908 43.1093 28.0908 42.879V38.8887C28.0908 38.6585 28.2774 38.4719 28.5077 38.4719H31.7757C32.0058 38.4719 32.1925 38.6584 32.1925 38.8887V42.879C32.1924 43.1093 32.0058 43.2959 31.7757 43.2959Z" fill="#E1EFFB"/>
<path d="M38.9577 43.2959H35.6897C35.4596 43.2959 35.2729 43.1093 35.2729 42.879V38.8887C35.2729 38.6585 35.4595 38.4719 35.6897 38.4719H38.9577C39.1879 38.4719 39.3746 38.6584 39.3746 38.8887V42.879C39.3746 43.1093 39.188 43.2959 38.9577 43.2959Z" fill="#E1EFFB"/>
<path d="M31.7757 54.0599H28.5077C28.2775 54.0599 28.0908 53.8734 28.0908 53.6431V49.6527C28.0908 49.4226 28.2774 49.2359 28.5077 49.2359H31.7757C32.0058 49.2359 32.1925 49.4225 32.1925 49.6527V53.6431C32.1924 53.8734 32.0058 54.0599 31.7757 54.0599Z" fill="#E1EFFB"/>
<path d="M38.9577 54.0599H35.6897C35.4596 54.0599 35.2729 53.8734 35.2729 53.6431V49.6527C35.2729 49.4226 35.4595 49.2359 35.6897 49.2359H38.9577C39.1879 49.2359 39.3746 49.4225 39.3746 49.6527V53.6431C39.3746 53.8734 39.188 54.0599 38.9577 54.0599Z" fill="#E1EFFB"/>
<path d="M28.5852 59.9999H3.87127C3.58756 59.9999 3.35764 59.7699 3.35764 59.4862V33.3027C3.35764 33.019 3.58756 32.7891 3.87127 32.7891H28.5852C28.869 32.7891 29.0989 33.019 29.0989 33.3027V59.4863C29.0989 59.7699 28.869 59.9999 28.5852 59.9999Z" fill="#61AFF6"/>
<path d="M28.5852 32.7891H23.0231C23.3068 32.7891 23.5367 33.019 23.5367 33.3027V59.4863C23.5367 59.7701 23.3068 60 23.0231 60H28.5852C28.8688 60 29.0989 59.7701 29.0989 59.4863V33.3027C29.0989 33.019 28.869 32.7891 28.5852 32.7891Z" fill="#55A2F0"/>
<path d="M10.1504 40.2156H6.91592C6.63116 40.2156 6.4003 39.9848 6.4003 39.7V37.64C6.4003 37.3552 6.63116 37.1243 6.91592 37.1243H10.1504C10.4352 37.1243 10.666 37.3552 10.666 37.64V39.7C10.666 39.9848 10.4352 40.2156 10.1504 40.2156Z" fill="#E1EFFB"/>
<path d="M17.6799 40.2156H14.4454C14.1607 40.2156 13.9298 39.9848 13.9298 39.7V37.64C13.9298 37.3552 14.1607 37.1243 14.4454 37.1243H17.6799C17.9647 37.1243 18.1955 37.3552 18.1955 37.64V39.7C18.1955 39.9848 17.9647 40.2156 17.6799 40.2156Z" fill="#E1EFFB"/>
<path d="M25.2094 40.2156H21.9749C21.6902 40.2156 21.4593 39.9848 21.4593 39.7V37.64C21.4593 37.3552 21.6902 37.1243 21.9749 37.1243H25.2094C25.4942 37.1243 25.7251 37.3552 25.7251 37.64V39.7C25.7251 39.9848 25.4942 40.2156 25.2094 40.2156Z" fill="#E1EFFB"/>
<path d="M10.1504 47.446H6.91592C6.63116 47.446 6.4003 47.2151 6.4003 46.9303V44.8703C6.4003 44.5855 6.63116 44.3547 6.91592 44.3547H10.1504C10.4352 44.3547 10.666 44.5855 10.666 44.8703V46.9303C10.666 47.2151 10.4352 47.446 10.1504 47.446Z" fill="#E1EFFB"/>
<path d="M17.6799 47.446H14.4454C14.1607 47.446 13.9298 47.2151 13.9298 46.9303V44.8703C13.9298 44.5855 14.1607 44.3547 14.4454 44.3547H17.6799C17.9647 44.3547 18.1955 44.5855 18.1955 44.8703V46.9303C18.1955 47.2151 17.9647 47.446 17.6799 47.446Z" fill="#E1EFFB"/>
<path d="M25.2094 47.446H21.9749C21.6902 47.446 21.4593 47.2151 21.4593 46.9303V44.8703C21.4593 44.5855 21.6902 44.3547 21.9749 44.3547H25.2094C25.4942 44.3547 25.7251 44.5855 25.7251 44.8703V46.9303C25.7251 47.2151 25.4942 47.446 25.2094 47.446Z" fill="#E1EFFB"/>
<path d="M10.1504 54.6763H6.91592C6.63116 54.6763 6.4003 54.4454 6.4003 54.1607V52.1006C6.4003 51.8159 6.63116 51.585 6.91592 51.585H10.1504C10.4352 51.585 10.666 51.8159 10.666 52.1006V54.1607C10.666 54.4454 10.4352 54.6763 10.1504 54.6763Z" fill="#E1EFFB"/>
<path d="M17.6799 54.6763H14.4454C14.1607 54.6763 13.9298 54.4454 13.9298 54.1607V52.1006C13.9298 51.8159 14.1607 51.585 14.4454 51.585H17.6799C17.9647 51.585 18.1955 51.8159 18.1955 52.1006V54.1607C18.1955 54.4454 17.9647 54.6763 17.6799 54.6763Z" fill="#E1EFFB"/>
<path d="M25.2094 54.6763H21.9749C21.6902 54.6763 21.4593 54.4454 21.4593 54.1607V52.1006C21.4593 51.8159 21.6902 51.585 21.9749 51.585H25.2094C25.4942 51.585 25.7251 51.8159 25.7251 52.1006V54.1607C25.7251 54.4454 25.4942 54.6763 25.2094 54.6763Z" fill="#E1EFFB"/>
<path d="M57.4629 57.2471H2.53698C1.77678 57.2471 1.16061 57.8633 1.16061 58.6235C1.16061 59.3837 1.77678 59.9999 2.53698 59.9999H57.463C58.2232 59.9999 58.8394 59.3837 58.8394 58.6235C58.8393 57.8634 58.2231 57.2471 57.4629 57.2471Z" fill="#2D5872"/>
<path d="M58.8306 58.4724C58.8295 58.4633 58.8277 58.4544 58.8265 58.4453C58.8211 58.4035 58.8142 58.3623 58.805 58.3217C58.8038 58.316 58.802 58.3104 58.8006 58.3046C58.79 58.2602 58.7774 58.2167 58.7626 58.174C58.762 58.1723 58.7615 58.1707 58.7609 58.169C58.7447 58.123 58.7262 58.0781 58.7054 58.0344V58.0343C58.4845 57.5693 58.0119 57.247 57.4629 57.247H53.3754V57.5975C53.3754 58.2735 52.8274 58.8215 52.1514 58.8215H2.53698C1.98796 58.8215 1.51534 58.4993 1.29444 58.0343C1.20948 58.2131 1.16061 58.4123 1.16061 58.6234C1.16061 59.3835 1.77678 59.9997 2.53698 59.9997H53.3754H57.4629C58.2231 59.9997 58.8393 59.3836 58.8393 58.6234C58.8393 58.5724 58.836 58.522 58.8306 58.4724Z" fill="#1D4859"/>
</svg>
