<svg xmlns="http://www.w3.org/2000/svg" width="60" height="60" viewBox="0 0 60 60">
  <g id="Group_29954" data-name="Group 29954" transform="translate(10949 9047)">
    <g id="Group_29953" data-name="Group 29953" transform="translate(-13124 -23255)">
      <rect id="Rectangle_4163" data-name="Rectangle 4163" width="60" height="60" transform="translate(2175 14208)" fill="none"/>
      <g id="Group_29310" data-name="Group 29310" transform="translate(-381 -234.644)">
        <path id="Subtraction_10" data-name="Subtraction 10" d="M14.391,28.608A16.308,16.308,0,0,1,0,19.993a21.87,21.87,0,0,0,2.725.171c11.085,0,20.926-8.48,23.4-20.164a56.6,56.6,0,0,1,3.294,6.774,23.428,23.428,0,0,1,.958,2.963,10.984,10.984,0,0,1,.345,2.542A16.327,16.327,0,0,1,14.391,28.608Zm11.85-17.657a1.908,1.908,0,0,0-1.921,1.843,9.852,9.852,0,0,1-5,8.091,1.913,1.913,0,0,0-.945,1.162,2.011,2.011,0,0,0,.21,1.559,1.863,1.863,0,0,0,1.667.986,2.077,2.077,0,0,0,.981-.251,13.918,13.918,0,0,0,4.928-4.781,14.532,14.532,0,0,0,2.06-6.546,1.91,1.91,0,0,0-1.839-2.059C26.335,10.952,26.288,10.951,26.242,10.951Z" transform="translate(2571.937 14473.023)" fill="#0cb4fe"/>
        <path id="Intersection_14" data-name="Intersection 14" d="M1.937,37.015A16.318,16.318,0,0,1,0,29.3C0,22.9,8.679,10.1,14.416,1.572c1.25-2.059,2.574-2.133,3.825,0,3.023,4.5,6.862,10.155,9.819,15.45-2.506,11.84-12.418,20.164-23.4,20.164A21.78,21.78,0,0,1,1.937,37.015Z" transform="translate(2570 14456.001)" fill="#40c0f9"/>
      </g>
    </g>
  </g>
</svg>
