<?xml version="1.0" encoding="UTF-8"?>
<svg version="1.1" xmlns="http://www.w3.org/2000/svg" width="512" height="512">
<path d="M0 0 C1.31525414 -0.01043099 2.63050827 -0.02086198 3.98561859 -0.03160906 C5.44887 -0.02296045 6.91211921 -0.01393381 8.37536621 -0.00457001 C9.92689856 -0.00917715 11.47842655 -0.01552881 13.02994537 -0.02347898 C17.3002955 -0.04022125 21.57028939 -0.03190387 25.84064102 -0.01953411 C30.44330545 -0.01050588 35.04590744 -0.02444225 39.64855957 -0.0354538 C48.66784918 -0.05326748 57.68700586 -0.04938637 66.70630074 -0.03780323 C74.03455829 -0.02878037 81.36277852 -0.02753993 88.69104004 -0.0318985 C89.73287901 -0.03251143 90.77471799 -0.03312436 91.84812784 -0.03375587 C93.96441079 -0.03503473 96.08069373 -0.03633158 98.19697666 -0.03764623 C118.05496885 -0.04906038 137.91288726 -0.03592525 157.77086735 -0.01444477 C174.82071122 0.00342696 191.87044618 0.00032309 208.92028809 -0.01811981 C228.70580592 -0.0395118 248.49125903 -0.04796166 268.2767868 -0.03567076 C270.38541157 -0.03439652 272.49403635 -0.03313904 274.60266113 -0.0318985 C276.15900512 -0.03097285 276.15900512 -0.03097285 277.74679041 -0.03002849 C285.06871751 -0.02657057 292.39060366 -0.03241344 299.71252441 -0.04181671 C308.63198175 -0.05301951 317.55129823 -0.05003292 326.47073936 -0.02869374 C331.02414073 -0.01816011 335.57730701 -0.01410069 340.13070679 -0.02729034 C344.29560675 -0.03917244 348.46005278 -0.03272138 352.62491131 -0.01138014 C354.13494255 -0.00689623 355.64501182 -0.00922025 357.15501881 -0.01888329 C359.2012202 -0.03097744 361.24752838 -0.01622774 363.29370117 0 C365.00146854 0.00097411 365.00146854 0.00097411 366.74373627 0.00196791 C370.33007556 0.6213643 371.51296764 1.59104423 373.64685059 4.50336456 C374.14364457 6.51339746 374.14364457 6.51339746 374.1390419 8.68125534 C374.14700609 9.51130089 374.15497029 10.34134644 374.16317582 11.19654489 C374.15152446 12.10315732 374.13987309 13.00976975 374.12786865 13.94385529 C374.13128635 14.91099134 374.13470405 15.8781274 374.13822532 16.87457061 C374.1448278 20.12385561 374.1227885 23.37231939 374.10095215 26.62152863 C374.09982419 28.94721202 374.10045653 31.27289684 374.10272217 33.59857941 C374.10387223 39.92057913 374.08031529 46.24227675 374.05242634 52.56420612 C374.02998971 58.4991579 374.02593592 64.43409777 374.02181885 70.36908624 C374.01306424 82.12451476 373.98644425 93.87983226 373.9486084 105.6352005 C373.91189255 117.05446568 373.88357872 128.47370071 373.86657715 139.893013 C373.86552625 140.59689306 373.86447536 141.30077313 373.86339262 142.02598289 C373.85817247 145.55714097 373.85311764 149.08829928 373.84814501 152.61945772 C373.80667785 181.91416493 373.73592761 211.20876356 373.64685059 240.50336456 C374.46669434 240.45695831 375.28653809 240.41055206 376.13122559 240.36273956 C377.20888184 240.32664581 378.28653809 240.29055206 379.39685059 240.25336456 C380.46419434 240.20695831 381.53153809 240.16055206 382.63122559 240.11273956 C386.31913755 240.59044837 387.40766627 241.60171563 389.64685059 244.50336456 C390.15478516 246.77973175 390.15478516 246.77973175 390.16442871 249.30023956 C390.17703735 250.24802277 390.189646 251.19580597 390.20263672 252.17230988 C390.19049133 253.69743195 390.19049133 253.69743195 390.17810059 255.25336456 C390.18192749 256.30362823 390.18575439 257.35389191 390.18969727 258.43598175 C390.19241754 260.65506703 390.18504835 262.87418431 390.16833496 265.09320831 C390.14692804 268.49107052 390.16813384 271.88681817 390.19372559 275.28461456 C390.19108233 277.44086923 390.18595741 279.59712259 390.17810059 281.75336456 C390.18619751 282.77011261 390.19429443 283.78686066 390.20263672 284.83441925 C390.18372375 286.25609406 390.18372375 286.25609406 390.16442871 287.70648956 C390.16124634 288.53825714 390.15806396 289.37002472 390.15478516 290.22699738 C389.45004456 293.3853734 388.14585993 294.48069431 385.64685059 296.50336456 C382.9489212 297.00476122 382.9489212 297.00476122 379.79345703 297.00672913 C378.58967155 297.01716012 377.38588608 297.0275911 376.14562225 297.03833818 C374.80813867 297.02968977 373.47065748 297.02066313 372.13317871 297.01129913 C370.71363942 297.01590676 369.29410489 297.02225874 367.87458038 297.03020811 C363.96906949 297.04694392 360.06394833 297.03863601 356.15843582 297.02626324 C351.94841081 297.01723234 347.73845396 297.0311727 343.52844238 297.04218292 C335.27917977 297.05999376 327.03006252 297.05611678 318.78079414 297.04453236 C312.07801238 297.03550838 305.37527144 297.03426954 298.67248535 297.03862762 C297.71945794 297.03924056 296.76643052 297.03985349 295.78452349 297.04048499 C293.84862454 297.04176386 291.9127256 297.04306071 289.97682667 297.04437536 C271.81275575 297.05578867 253.64876552 297.04265569 235.48470783 297.02117389 C219.8902775 297.00330223 204.29596627 297.00640613 188.70153809 297.02484894 C170.60362537 297.0462424 152.5057834 297.05468996 134.4078598 297.04239988 C132.47897849 297.04112565 130.55009716 297.03986817 128.62121582 297.03862762 C127.19754912 297.03770197 127.19754912 297.03770197 125.74512148 297.03675762 C119.04836616 297.03330014 112.35165562 297.03914162 105.65490723 297.04854584 C97.49667929 297.05975028 89.33860536 297.05675861 81.18039513 297.03542286 C77.01583757 297.02489141 72.85153701 297.02082604 68.6869812 297.03401947 C64.87734711 297.0459062 61.06820911 297.03944304 57.25862026 297.01810926 C55.87779451 297.0136273 54.49692716 297.01594512 53.11612797 297.02561241 C51.24419524 297.03771668 49.37214572 297.02294945 47.50024414 297.00672913 C45.93828938 297.00575501 45.93828938 297.00575501 44.34477997 297.00476122 C40.90950959 296.36633343 39.70252139 295.29414344 37.64685059 292.50336456 C37.64685059 291.18336456 37.64685059 289.86336456 37.64685059 288.50336456 C32.36685059 288.50336456 27.08685059 288.50336456 21.64685059 288.50336456 C21.64685059 301.70336456 21.64685059 314.90336456 21.64685059 328.50336456 C25.27685059 328.50336456 28.90685059 328.50336456 32.64685059 328.50336456 C42.17813785 330.52120782 50.08217596 334.38026001 57.64685059 340.50336456 C59.22466309 341.64805206 59.22466309 341.64805206 60.83435059 342.81586456 C70.47565272 352.02866438 77.43914491 365.44471704 78.08044434 378.87055206 C78.10346163 380.70634573 78.10432977 382.54253531 78.08435059 384.37836456 C78.07822754 385.34145538 78.07210449 386.3045462 78.0657959 387.29682159 C77.86205965 396.58562748 75.62994489 403.85046706 71.27185059 412.00336456 C69.28757619 415.21813432 69.28757619 415.21813432 70.34216309 417.52289581 C71.69267092 419.57291819 73.08601306 421.03908709 74.89685059 422.69086456 C78.8271138 426.4975346 81.98610508 430.71792118 84.64685059 435.50336456 C84.64685059 436.16336456 84.64685059 436.82336456 84.64685059 437.50336456 C85.30685059 437.50336456 85.96685059 437.50336456 86.64685059 437.50336456 C86.90981934 436.769888 87.17278809 436.03641144 87.44372559 435.28070831 C90.46459881 428.30719901 96.20307852 422.68158678 101.64685059 417.50336456 C99.97617283 412.29706645 97.92094447 407.32958946 95.76794434 402.30805206 C90.84874549 390.00148492 92.37603239 373.81800932 97.08825684 361.71039581 C99.44305543 356.86505836 102.26473057 352.68174127 105.64685059 348.50336456 C106.79153809 346.92555206 106.79153809 346.92555206 107.95935059 345.31586456 C117.15877562 335.6885593 130.51805011 328.78502035 143.90856934 328.03461456 C145.71687129 328.00049877 147.52577141 327.99066658 149.33435059 328.00336456 C150.29115723 328.00908478 151.24796387 328.01480499 152.23376465 328.02069855 C165.21594021 328.34427241 175.48612599 332.278929 185.64685059 340.50336456 C187.22466309 341.64805206 187.22466309 341.64805206 188.83435059 342.81586456 C198.47565272 352.02866438 205.43914491 365.44471704 206.08044434 378.87055206 C206.10346163 380.70634573 206.10432977 382.54253531 206.08435059 384.37836456 C206.07822754 385.34145538 206.07210449 386.3045462 206.0657959 387.29682159 C205.86205965 396.58562748 203.62994489 403.85046706 199.27185059 412.00336456 C197.28757619 415.21813432 197.28757619 415.21813432 198.34216309 417.52289581 C199.69267092 419.57291819 201.08601306 421.03908709 202.89685059 422.69086456 C206.8271138 426.4975346 209.98610508 430.71792118 212.64685059 435.50336456 C212.64685059 436.16336456 212.64685059 436.82336456 212.64685059 437.50336456 C213.30685059 437.50336456 213.96685059 437.50336456 214.64685059 437.50336456 C214.90981934 436.769888 215.17278809 436.03641144 215.44372559 435.28070831 C218.46459881 428.30719901 224.20307852 422.68158678 229.64685059 417.50336456 C227.97617283 412.29706645 225.92094447 407.32958946 223.76794434 402.30805206 C218.84874549 390.00148492 220.37603239 373.81800932 225.08825684 361.71039581 C227.44305543 356.86505836 230.26473057 352.68174127 233.64685059 348.50336456 C234.79153809 346.92555206 234.79153809 346.92555206 235.95935059 345.31586456 C245.15877562 335.6885593 258.51805011 328.78502035 271.90856934 328.03461456 C273.71687129 328.00049877 275.52577141 327.99066658 277.33435059 328.00336456 C278.29115723 328.00908478 279.24796387 328.01480499 280.23376465 328.02069855 C293.21594021 328.34427241 303.48612599 332.278929 313.64685059 340.50336456 C315.22466309 341.64805206 315.22466309 341.64805206 316.83435059 342.81586456 C326.47565272 352.02866438 333.43914491 365.44471704 334.08044434 378.87055206 C334.10346163 380.70634573 334.10432977 382.54253531 334.08435059 384.37836456 C334.07822754 385.34145538 334.07210449 386.3045462 334.0657959 387.29682159 C333.86205965 396.58562748 331.62994489 403.85046706 327.27185059 412.00336456 C325.28664234 415.21955565 325.28664234 415.21955565 326.34606934 417.53070831 C327.6795661 419.55297817 329.03296144 420.95409533 330.83435059 422.56586456 C344.2937759 435.6895038 349.80082658 453.76069306 350.08044434 472.03461456 C350.10300824 475.25565075 350.10563564 478.47563417 350.09289551 481.69672394 C350.08429853 485.02350799 350.11336205 488.34862068 350.14489746 491.67523956 C350.14650761 493.79503072 350.14593552 495.91482491 350.14294434 498.03461456 C350.15417831 499.02626617 350.16541229 500.01791779 350.17698669 501.03961945 C350.10748859 507.86990617 350.10748859 507.86990617 347.74084473 511.12445831 C344.38571037 513.33383209 341.5185928 513.29675436 337.64685059 512.50336456 C335.14685059 510.75336456 335.14685059 510.75336456 333.64685059 508.50336456 C333.64685059 507.18336456 333.64685059 505.86336456 333.64685059 504.50336456 C296.68685059 504.50336456 259.72685059 504.50336456 221.64685059 504.50336456 C221.31685059 506.48336456 220.98685059 508.46336456 220.64685059 510.50336456 C216.97001301 512.95458962 213.91967805 513.20833811 209.64685059 512.50336456 C207.14685059 510.75336456 207.14685059 510.75336456 205.64685059 508.50336456 C205.64685059 507.18336456 205.64685059 505.86336456 205.64685059 504.50336456 C168.68685059 504.50336456 131.72685059 504.50336456 93.64685059 504.50336456 C93.31685059 506.48336456 92.98685059 508.46336456 92.64685059 510.50336456 C88.97001301 512.95458962 85.91967805 513.20833811 81.64685059 512.50336456 C79.14685059 510.75336456 79.14685059 510.75336456 77.64685059 508.50336456 C77.64685059 507.18336456 77.64685059 505.86336456 77.64685059 504.50336456 C40.68685059 504.50336456 3.72685059 504.50336456 -34.35314941 504.50336456 C-34.68314941 506.48336456 -35.01314941 508.46336456 -35.35314941 510.50336456 C-39.02998699 512.95458962 -42.08032195 513.20833811 -46.35314941 512.50336456 C-48.85314941 510.75336456 -48.85314941 510.75336456 -50.35314941 508.50336456 C-50.35314941 507.18336456 -50.35314941 505.86336456 -50.35314941 504.50336456 C-58.27314941 504.50336456 -66.19314941 504.50336456 -74.35314941 504.50336456 C-74.68314941 506.48336456 -75.01314941 508.46336456 -75.35314941 510.50336456 C-78.5675147 512.64627476 -80.5274155 512.80362247 -84.31799316 512.96430206 C-87.35539096 512.27636936 -88.43337024 510.93111855 -90.35314941 508.50336456 C-90.8609581 505.3249855 -90.8609581 505.3249855 -90.87213135 501.49256134 C-90.88338323 500.43387828 -90.88338323 500.43387828 -90.89486241 499.35380769 C-90.91516148 496.98897338 -90.90703312 494.62509586 -90.89904785 492.2602005 C-90.90778171 490.5650411 -90.91826684 488.86988995 -90.93037415 487.17475128 C-90.95827787 482.57176379 -90.96163787 477.96904472 -90.96065426 473.36598492 C-90.96377961 468.55594277 -90.98938992 463.7460222 -91.01263428 458.93604279 C-91.0532268 449.82719084 -91.07354263 440.71841053 -91.08660817 431.60948205 C-91.10246721 421.23951014 -91.1408782 410.86966035 -91.18120146 400.4997592 C-91.26364491 379.16766791 -91.31770924 357.83558231 -91.35314941 336.50336456 C-92.31229248 336.52076691 -93.27143555 336.53816925 -94.25964355 336.55609894 C-96.1486438 336.57640167 -96.1486438 336.57640167 -98.07580566 336.59711456 C-99.32369873 336.61451691 -100.5715918 336.63191925 -101.8572998 336.64984894 C-108.80477916 336.35873311 -112.61634764 333.55490983 -117.22814941 328.56586456 C-122.22875686 322.71631678 -122.65129676 317.51920398 -122.64367676 310.09833527 C-122.65375259 308.68755959 -122.65375259 308.68755959 -122.66403198 307.24828339 C-122.68301397 304.14185027 -122.6869367 301.03563331 -122.68908691 297.92914581 C-122.69551612 295.76306317 -122.70224457 293.5969814 -122.70925903 291.43090057 C-122.72123333 286.88903543 -122.72493984 282.34724633 -122.72375488 277.80536652 C-122.72355202 272.00286091 -122.75082049 266.20084684 -122.7852993 260.39845753 C-122.80760866 255.92270954 -122.81159113 251.44707893 -122.81053543 246.97128105 C-122.8128866 244.83318327 -122.82168267 242.69508202 -122.83720016 240.55703926 C-122.8569357 237.5561388 -122.8509916 234.55628615 -122.83898926 231.55536652 C-122.85022827 230.68280212 -122.86146729 229.81023773 -122.87304688 228.91123199 C-122.76341574 218.04991857 -118.04387508 209.69148013 -110.83361816 201.85102081 C-102.05402218 193.45593269 -91.07889715 191.69416815 -79.35314941 191.50336456 C-80.11498535 190.72025909 -80.11498535 190.72025909 -80.89221191 189.92133331 C-95.6593454 174.13100893 -99.02816511 157.03886585 -98.47619629 136.19867706 C-97.79519255 121.2814524 -89.60340254 107.47195135 -79.20861816 97.09320831 C-66.3779577 85.45609766 -51.19335749 80.10139273 -34.10314941 80.12836456 C-32.58733276 80.12969391 -32.58733276 80.12969391 -31.04089355 80.13105011 C-20.53576659 80.29707578 -12.77598564 82.79194645 -3.35314941 87.50336456 C-3.02314941 82.55336456 -2.69314941 77.60336456 -2.35314941 72.50336456 C-4.33314941 72.17336456 -6.31314941 71.84336456 -8.35314941 71.50336456 C-10.69778044 67.98641802 -10.61528419 66.51587645 -10.64367676 62.35126495 C-10.65643646 61.08307419 -10.66919617 59.81488342 -10.68234253 58.50826263 C-10.68539984 57.12251691 -10.68762778 55.73676914 -10.68908691 54.35102081 C-10.69551394 52.92999384 -10.70224223 51.50896821 -10.70925903 50.08794403 C-10.72123331 47.10960573 -10.72493967 44.13138344 -10.72375488 41.15302277 C-10.72355158 37.33842333 -10.75086314 33.52456802 -10.7852993 29.710145 C-10.8075467 26.77529744 -10.81159312 23.84062966 -10.81053543 20.90570641 C-10.8128943 19.49948751 -10.82173406 18.09326388 -10.83720016 16.68712807 C-10.85681409 14.71980263 -10.84851141 12.75225887 -10.83898926 10.7848587 C-10.84183929 9.66583664 -10.84468933 8.54681458 -10.84762573 7.39388275 C-9.77133688 1.1023125 -5.84300633 0.00333286 0 0 Z " fill="#000000" transform="translate(122.3531494140625,-0.5033645629882813)"/>
<path d="M0 0 C116.16 0 232.32 0 352 0 C352 73.92 352 147.84 352 224 C344.08 224 336.16 224 328 224 C327.95101563 221.50824219 327.90203125 219.01648438 327.8515625 216.44921875 C327.79755548 214.03647851 327.74024696 211.62383774 327.68261719 209.21118164 C327.64433007 207.53417366 327.60947669 205.85708362 327.578125 204.17993164 C327.53246821 201.76939568 327.4744759 199.35942443 327.4140625 196.94921875 C327.39673569 195.82407112 327.39673569 195.82407112 327.37905884 194.67619324 C327.27304541 190.93872287 327.12380918 189.18571377 325 186 C322.26621127 185.08873709 320.6462035 184.8691516 317.83180237 184.85282898 C316.98362946 184.84567368 316.13545654 184.83851837 315.26158142 184.83114624 C313.87054955 184.82711288 313.87054955 184.82711288 312.45141602 184.82299805 C311.47229248 184.81642685 310.49316895 184.80985565 309.484375 184.80308533 C306.24088467 184.78335659 302.99744055 184.77169266 299.75390625 184.76171875 C298.64736128 184.75764322 297.54081631 184.7535677 296.40073967 184.74936867 C290.54767925 184.72851302 284.69464227 184.71420724 278.84155273 184.70483398 C272.78733118 184.69375088 266.73347528 184.65932743 260.67938328 184.61966228 C256.0306071 184.59356416 251.3819191 184.58514836 246.7330761 184.58155251 C244.5006964 184.5766715 242.26832102 184.56501477 240.03601265 184.54651451 C236.91636929 184.52226081 233.79768657 184.52306266 230.67797852 184.5300293 C229.75264816 184.51721924 228.82731781 184.50440918 227.87394714 184.49121094 C227.02295441 184.49815475 226.17196167 184.50509857 225.29518127 184.51225281 C224.55795617 184.50986445 223.82073107 184.5074761 223.06116581 184.50501537 C220.33307223 184.97033733 220.33307223 184.97033733 217 189 C216.67 200.55 216.34 212.1 216 224 C161.55 224 107.1 224 51 224 C53.17842145 220.36929758 54.37271587 218.39671847 57.25 215.6875 C59.72268758 213.30732563 62.03833835 210.86555253 64.2734375 208.26171875 C67.87259187 204.11667353 71.60280563 200.11227348 75.375 196.125 C80.23619178 190.96403572 85.04746458 185.76953779 89.76953125 180.48046875 C92.44560218 177.50445291 95.15812557 174.56372164 97.875 171.625 C98.37862061 171.0779541 98.88224121 170.5309082 99.40112305 169.96728516 C101.93508012 167.21761188 104.48438746 164.48606645 107.0703125 161.78515625 C113.98388716 154.51069571 120.15615279 147.48473175 120.10920715 136.90136719 C120.1079483 136.09389038 120.10668945 135.28641357 120.10539246 134.45446777 C120.0953997 133.13895935 120.0953997 133.13895935 120.08520508 131.796875 C120.08202271 130.86637329 120.07884033 129.93587158 120.07556152 128.97717285 C120.06297529 125.90138271 120.04209958 122.8257323 120.01953125 119.75 C120.01257421 118.69953491 120.00561718 117.64906982 119.99844933 116.56677246 C119.96107334 111.01190011 119.91706354 105.45712391 119.86791992 99.90234375 C119.81847714 94.15884233 119.79235642 88.41548005 119.77148914 82.67181396 C119.75114613 78.2588054 119.71328073 73.84607167 119.6706295 69.43322754 C119.65326573 67.31535202 119.64258915 65.19741086 119.63868141 63.07946777 C119.631619 60.12018323 119.5997498 57.16215172 119.56176758 54.203125 C119.5652269 53.32611938 119.56868622 52.44911377 119.57225037 51.54553223 C119.48544157 46.66335103 119.48544157 46.66335103 117.15238953 42.45605469 C114.1994604 40.45844866 112.49386554 40.41768908 109 41 C106.05559404 43.20515401 105.10206718 44.39769198 104.48101807 48.06256104 C104.4676944 49.86125641 104.4676944 49.86125641 104.45410156 51.69628906 C104.43859505 52.69202942 104.43859505 52.69202942 104.42277527 53.70788574 C104.39336354 55.8940469 104.39184857 58.07928161 104.390625 60.265625 C104.37564209 61.78450281 104.3589147 63.30336433 104.34051514 64.82220459 C104.2968411 68.81376903 104.27684266 72.80511371 104.26177979 76.796875 C104.2422087 80.87252803 104.20023877 84.94794371 104.16015625 89.0234375 C104.0848537 97.0155629 104.03456278 105.00759509 104 113 C102.44152344 112.89558594 102.44152344 112.89558594 100.8515625 112.7890625 C91.66816879 112.35097198 85.21504362 112.70907449 78 119 C74.14259143 122.56984034 70.52450121 126.35237374 66.93670654 130.19054794 C65.14830532 132.0964575 63.3406805 133.98205133 61.52587891 135.86282349 C56.37225927 141.20405862 51.22780911 146.55213796 46.16162109 151.9765625 C43.04502329 155.3105542 39.88482492 158.59749837 36.69277954 161.85925674 C35.49597024 163.098961 34.31560039 164.35478363 33.15365601 165.62722397 C23.63210043 176.03197347 23.63210043 176.03197347 16.12988281 176.75201416 C11.69874829 176.88440478 7.39522147 176.54905275 3 176 C3.38857178 175.48937012 3.77714355 174.97874023 4.17749023 174.45263672 C5.20082374 173.1022622 6.21443355 171.74450622 7.22265625 170.3828125 C8.37400549 168.83924539 9.54739353 167.31177816 10.74609375 165.8046875 C21.46016002 151.72607036 24.23469886 135.2857841 23 118 C20.61190163 102.94129051 12.26824503 89.14315144 1 79 C-0.69148695 78.09286182 -2.39913948 77.21490073 -4.125 76.375 C-6.34765625 75.078125 -6.34765625 75.078125 -8 73 C-9.12091984 67.41687438 -8.50741575 61.62542398 -8 56 C-7.030625 55.566875 -6.06125 55.13375 -5.0625 54.6875 C-1.72268235 53.2985139 -1.72268235 53.2985139 -1 50 C-0.67 33.5 -0.34 17 0 0 Z " fill="#B0D979" transform="translate(128,16)"/>
<path d="M0 0 C3.375 2 3.375 2 6 5 C6.84124632 8.54525236 7.05781134 9.68205624 6 13 C2.38398167 18.78200425 -2.43543072 23.59565163 -7.3125 28.3203125 C-8.98538204 29.98544971 -10.525411 31.70929132 -12.0625 33.5 C-15.5611193 37.55934609 -19.21013287 41.46651873 -22.875 45.375 C-27.5507359 50.36351257 -32.17710902 55.3869886 -36.734375 60.484375 C-39.42379295 63.47055631 -42.14636691 66.42468171 -44.875 69.375 C-45.38144043 69.92269043 -45.88788086 70.47038086 -46.40966797 71.03466797 C-47.43358715 72.14193319 -48.45751293 73.2491923 -49.48144531 74.35644531 C-51.44107812 76.47738551 -53.39887739 78.59993291 -55.34887695 80.72973633 C-56.27956566 81.73956358 -57.21820655 82.74212185 -58.16479492 83.73706055 C-60.26442055 85.96536446 -62.0480929 88.08054111 -63.62109375 90.71484375 C-65.58268837 93.81132602 -66.7484365 95.21399009 -70 97 C-75.15053651 97.80006471 -80.31710311 97.84785347 -85.52026367 97.75268555 C-87.06484253 97.73008667 -87.06484253 97.73008667 -88.640625 97.70703125 C-89.57422852 97.6706958 -90.50783203 97.63436035 -91.46972656 97.59692383 C-94.9579653 98.15260524 -95.88143573 99.18056083 -98 102 C-98.40278405 104.90721692 -98.56441834 107.4409518 -98.54589844 110.34863281 C-98.56140495 111.60771957 -98.56140495 111.60771957 -98.57722473 112.89224243 C-98.6066886 115.66273161 -98.60815265 118.43249136 -98.609375 121.203125 C-98.62435424 123.12556352 -98.64108085 125.04798916 -98.65948486 126.97039795 C-98.70319935 132.02726833 -98.72316657 137.08396511 -98.73822021 142.14099121 C-98.7577765 147.30243208 -98.79974818 152.46368505 -98.83984375 157.625 C-98.91519027 167.7499421 -98.96545487 177.87484224 -99 188 C-100.03583977 188.40715744 -100.03583977 188.40715744 -101.09260559 188.82254028 C-101.99637436 189.18032562 -102.90014313 189.53811096 -103.83129883 189.90673828 C-104.72810867 190.26067657 -105.62491852 190.61461487 -106.54890442 190.97927856 C-110.79742838 192.74851168 -114.32260428 195.27116616 -118 198 C-118.92619141 198.65935547 -118.92619141 198.65935547 -119.87109375 199.33203125 C-128.36405577 205.89563442 -132.10385026 215.25962566 -136 225 C-150.19 225 -164.38 225 -179 225 C-179.0093457 221.29491211 -179.01869141 217.58982422 -179.02832031 213.77246094 C-179.06204964 201.54674287 -179.11737404 189.32120316 -179.18390274 177.09562302 C-179.22371949 169.68142074 -179.25609849 162.26732502 -179.27099609 154.85302734 C-179.28399907 148.39103204 -179.31092868 141.9292709 -179.35461307 135.46740746 C-179.37725885 132.04554204 -179.39290885 128.62396575 -179.39188385 125.20201874 C-179.39423947 121.3826912 -179.42120794 117.56428646 -179.45410156 113.74511719 C-179.4490712 112.60935745 -179.44404083 111.47359772 -179.43885803 110.30342102 C-179.45277084 109.26298141 -179.46668365 108.22254181 -179.48101807 107.15057373 C-179.48470524 106.24721661 -179.48839241 105.34385948 -179.49219131 104.4131279 C-180.16537307 101.21414034 -181.46951714 100.00711168 -184 98 C-187 97.33333333 -187 97.33333333 -190 98 C-192.95541992 100.20893861 -193.90035676 101.39416431 -194.50552368 105.0736084 C-194.50979874 106.88085388 -194.50979874 106.88085388 -194.51416016 108.72460938 C-194.52128525 109.39176468 -194.52841034 110.05891998 -194.53575134 110.74629211 C-194.55500864 112.94574736 -194.546758 115.14423861 -194.5390625 117.34375 C-194.54897012 118.87546187 -194.56091162 120.40716181 -194.57479858 121.93884277 C-194.60716151 125.9683743 -194.61755266 129.99763402 -194.62164307 134.02728271 C-194.63039898 140.47688659 -194.66590987 146.92626715 -194.7138176 153.37568665 C-194.72639885 155.62696669 -194.72564506 157.87796439 -194.72354126 160.12927246 C-194.73012255 161.51131405 -194.737129 162.89335371 -194.74462891 164.27539062 C-194.74588776 165.48022095 -194.74714661 166.68505127 -194.7484436 167.9263916 C-194.99098758 170.88988299 -195.38658879 172.53918749 -197 175 C-199.65684561 177.06643547 -201.14302649 176.99749076 -204.5625 176.9375 C-208 176 -208 176 -209.68760681 173.98332214 C-211.40329496 170.08323298 -211.44283325 166.51400018 -211.43579102 162.3293457 C-211.45090477 161.03561287 -211.45090477 161.03561287 -211.46632385 159.71574402 C-211.49478065 156.8689572 -211.50067996 154.0227014 -211.50390625 151.17578125 C-211.51355151 149.18905929 -211.5236443 147.20233946 -211.53416443 145.21562195 C-211.55212195 141.05035467 -211.5576861 136.88527395 -211.5559082 132.7199707 C-211.55560397 127.40144337 -211.59649853 122.0841233 -211.64822483 116.76588154 C-211.68170967 112.66068615 -211.68766199 108.55577837 -211.68607903 104.45046043 C-211.68960301 102.49096721 -211.70278167 100.53146524 -211.72607613 98.57210732 C-211.94447954 78.29807044 -211.94447954 78.29807044 -205 71 C-197.86762217 65.28834214 -191.70101965 64.13640267 -182.74487305 64.2746582 C-180.96982643 64.26594193 -180.96982643 64.26594193 -179.15892029 64.25704956 C-175.276011 64.2443168 -171.39452927 64.27288884 -167.51171875 64.30078125 C-164.80269056 64.30077579 -162.09372698 64.29087483 -159.38471985 64.2808075 C-152.99828805 64.2619992 -146.61225544 64.27089374 -140.2258423 64.29212874 C-128.77913989 64.32994574 -117.33249101 64.33396029 -105.88575965 64.30727643 C-102.5293553 64.30052284 -99.17327171 64.30138455 -95.81690025 64.31899452 C-92.08055085 64.33760954 -88.34454096 64.33892013 -84.6081543 64.3371582 C-83.50105103 64.34801956 -82.39394775 64.35888092 -81.2532959 64.37007141 C-73.00237542 64.33875692 -69.4983117 62.72090651 -63.59243774 56.83016968 C-63.0525119 56.28148224 -62.51258606 55.7327948 -61.95629883 55.16748047 C-61.08220116 54.29141144 -61.08220116 54.29141144 -60.19044495 53.39764404 C-58.2746576 51.47539063 -56.36594673 49.54626307 -54.45703125 47.6171875 C-53.12426438 46.27814768 -51.79097936 44.93962342 -50.4571991 43.60159302 C-46.95370391 40.08481647 -43.45582633 36.56250987 -39.95953369 33.03857422 C-34.35394912 27.3898048 -28.74156653 21.74780886 -23.12598228 16.10898209 C-21.1636917 14.13644798 -19.20483656 12.16054849 -17.24629211 10.18429565 C-16.04948175 8.98066009 -14.85256286 7.77713241 -13.65551758 6.57373047 C-13.10951904 6.02099457 -12.56352051 5.46825867 -12.00097656 4.89877319 C-7.92381182 0.8092585 -5.89183103 -0.67982666 0 0 Z " fill="#A7ECFC" transform="translate(227,143)"/>
<path d="M0 0 C116.16 0 232.32 0 352 0 C352 7.92 352 15.84 352 24 C350.29780178 24.00146656 348.59560356 24.00293312 346.84182358 24.00444412 C306.46181302 24.04012339 266.08187493 24.09633162 225.70192985 24.17792095 C220.73504337 24.18793876 215.76815657 24.19778283 210.80126953 24.20751953 C209.81242528 24.2094609 208.82358104 24.21140228 207.80477181 24.21340248 C191.78019161 24.24444852 175.75562575 24.26141039 159.73102114 24.27319422 C143.29606048 24.28559231 126.86117522 24.31306327 110.42626214 24.35461307 C100.27983531 24.37978699 90.13353345 24.39311445 79.98707494 24.39142957 C73.03525908 24.39139989 66.08357079 24.40597195 59.13180462 24.43216428 C55.11715109 24.44685487 51.10275921 24.45497528 47.08808327 24.44580269 C43.41519947 24.43755271 39.74284275 24.44756754 36.07003739 24.47233662 C34.10657886 24.48076264 32.14306654 24.4694406 30.17962623 24.45750165 C29.0186581 24.46894924 27.85768997 24.48039683 26.66154099 24.49219131 C25.15557016 24.49446964 25.15557016 24.49446964 23.61917567 24.49679399 C20.26396848 25.14140918 19.0973454 26.35383626 17 29 C16.67 29.99 16.34 30.98 16 32 C10.72 32 5.44 32 0 32 C0 21.44 0 10.88 0 0 Z " fill="#A04838" transform="translate(144,256)"/>
<path d="M0 0 C0.67804688 0.38671875 1.35609375 0.7734375 2.0546875 1.171875 C17.10493198 9.59334144 32.20745352 14.33018024 49.35229492 9.51293945 C56.69131118 7.19829256 63.44540513 4.04107438 70 0 C81.63618236 9.02397816 87.47926274 20.91705097 91 35 C91 48.53 91 62.06 91 76 C54.04 76 17.08 76 -21 76 C-21 21.59624413 -21 21.59624413 -5.7109375 4.65625 C-3.915773 2.91846519 -2.02965791 1.45355414 0 0 Z " fill="#F4F4F4" transform="translate(365,428)"/>
<path d="M0 0 C0.67804688 0.38671875 1.35609375 0.7734375 2.0546875 1.171875 C17.10493198 9.59334144 32.20745352 14.33018024 49.35229492 9.51293945 C56.69131118 7.19829256 63.44540513 4.04107438 70 0 C81.63618236 9.02397816 87.47926274 20.91705097 91 35 C91 48.53 91 62.06 91 76 C54.04 76 17.08 76 -21 76 C-21 21.59624413 -21 21.59624413 -5.7109375 4.65625 C-3.915773 2.91846519 -2.02965791 1.45355414 0 0 Z " fill="#F4F4F4" transform="translate(237,428)"/>
<path d="M0 0 C0.67804688 0.38671875 1.35609375 0.7734375 2.0546875 1.171875 C17.10493198 9.59334144 32.20745352 14.33018024 49.35229492 9.51293945 C56.69131118 7.19829256 63.44540513 4.04107438 70 0 C81.63618236 9.02397816 87.47926274 20.91705097 91 35 C91 48.53 91 62.06 91 76 C54.04 76 17.08 76 -21 76 C-21 21.59624413 -21 21.59624413 -5.7109375 4.65625 C-3.915773 2.91846519 -2.02965791 1.45355414 0 0 Z " fill="#F4F4F4" transform="translate(109,428)"/>
<path d="M0 0 C10.83255288 7.05783835 18.87832389 17.21280529 22.1875 29.875 C24.51466005 44.07067632 22.0536194 58.44766803 13.75 70.3125 C6.3890443 79.54419582 -4.27829749 86.82825862 -16.07421875 89.1015625 C-31.44006565 90.59124963 -44.67757174 87.92279069 -56.91796875 78.19140625 C-67.19205827 68.72556583 -72.47567459 56.82120193 -73.49609375 42.97265625 C-74.00289991 28.82815708 -68.75254693 16.97837498 -59.1875 6.625 C-42.58975361 -9.21447371 -19.63143796 -10.8425942 0 0 Z " fill="#DFC2A9" transform="translate(113.25,102.6875)"/>
<path d="M0 0 C10.40922052 6.23183597 16.68268877 15.45293368 20 27 C21.30712957 39.01183278 19.12459789 49.50258687 12.125 59.4375 C4.64607186 68.4999767 -4.71389115 74.13210547 -16.54296875 75.37109375 C-28.89377462 75.59613523 -38.80983358 72.40714775 -48 64 C-56.11466416 55.99856371 -60.22899725 46.25562143 -60.4375 34.8125 C-60.26377153 23.0916192 -55.49244642 13.58432066 -47.34375 5.3203125 C-33.88780424 -6.97352885 -16.0058603 -8.26389526 0 0 Z " fill="#DFC2A9" transform="translate(420,349)"/>
<path d="M0 0 C10.40922052 6.23183597 16.68268877 15.45293368 20 27 C21.30712957 39.01183278 19.12459789 49.50258687 12.125 59.4375 C4.64607186 68.4999767 -4.71389115 74.13210547 -16.54296875 75.37109375 C-28.89377462 75.59613523 -38.80983358 72.40714775 -48 64 C-56.11466416 55.99856371 -60.22899725 46.25562143 -60.4375 34.8125 C-60.26377153 23.0916192 -55.49244642 13.58432066 -47.34375 5.3203125 C-33.88780424 -6.97352885 -16.0058603 -8.26389526 0 0 Z " fill="#DFC2A9" transform="translate(292,349)"/>
<path d="M0 0 C10.40922052 6.23183597 16.68268877 15.45293368 20 27 C21.30712957 39.01183278 19.12459789 49.50258687 12.125 59.4375 C4.64607186 68.4999767 -4.71389115 74.13210547 -16.54296875 75.37109375 C-28.89377462 75.59613523 -38.80983358 72.40714775 -48 64 C-56.11466416 55.99856371 -60.22899725 46.25562143 -60.4375 34.8125 C-60.26377153 23.0916192 -55.49244642 13.58432066 -47.34375 5.3203125 C-33.88780424 -6.97352885 -16.0058603 -8.26389526 0 0 Z " fill="#DFC2A9" transform="translate(164,349)"/>
<path d="M0 0 C13.2 0 26.4 0 40 0 C40.99 5.28 41.98 10.56 43 16 C44.58212567 20.12896213 46.15272075 24.01889983 48 28 C48.6765401 29.66268329 49.34633748 31.32819034 50 33 C49.05640625 33.85658203 49.05640625 33.85658203 48.09375 34.73046875 C33.97962107 48.10063004 25.29448211 65.22068314 24.56257629 84.74378967 C24.43583526 89.57892504 24.36770285 94.413595 24.3125 99.25 C24.27926785 101.26694846 24.24477291 103.28387653 24.20898438 105.30078125 C24.1224234 110.20053492 24.06178735 115.09962358 24 120 C16.08 120 8.16 120 0 120 C0 80.4 0 40.8 0 0 Z " fill="#585F5F" transform="translate(48,384)"/>
<path d="M0 0 C116.16 0 232.32 0 352 0 C352 2.64 352 5.28 352 8 C235.84 8 119.68 8 0 8 C0 5.36 0 2.72 0 0 Z " fill="#BC6857" transform="translate(144,256)"/>
<path d="M0 0 C36.96 0 73.92 0 112 0 C112 7.92 112 15.84 112 24 C75.04 24 38.08 24 0 24 C0 16.08 0 8.16 0 0 Z " fill="#DCDCDC" transform="translate(344,480)"/>
<path d="M0 0 C36.96 0 73.92 0 112 0 C112 7.92 112 15.84 112 24 C75.04 24 38.08 24 0 24 C0 16.08 0 8.16 0 0 Z " fill="#DCDCDC" transform="translate(216,480)"/>
<path d="M0 0 C36.96 0 73.92 0 112 0 C112 7.92 112 15.84 112 24 C75.04 24 38.08 24 0 24 C0 16.08 0 8.16 0 0 Z " fill="#DCDCDC" transform="translate(88,480)"/>
<path d="M0 0 C1.10983875 0.01198331 2.21967751 0.02396662 3.36314774 0.03631306 C5.27720161 0.03862431 5.27720161 0.03862431 7.22992325 0.04098225 C8.64162966 0.06811977 10.05332688 0.09573908 11.46501541 0.12379169 C12.95325644 0.13506559 14.44151565 0.14412529 15.92978287 0.15113544 C19.96913027 0.17644306 24.00752312 0.23275254 28.04645443 0.29458117 C32.26770607 0.35394494 36.48916298 0.3848669 40.71068192 0.41878986 C48.7042317 0.4873542 56.69726652 0.58154221 64.69043374 0.68490916 C73.79053605 0.8013453 82.89084369 0.88925858 91.99128103 0.97476137 C110.71112751 1.15128279 129.43038754 1.36468313 148.14958572 1.59962177 C148.14958572 6.87962177 148.14958572 12.15962177 148.14958572 17.59962177 C93.69958572 17.59962177 39.24958572 17.59962177 -16.85041428 17.59962177 C-14.6392449 13.91433947 -13.35226779 11.87531418 -10.41291428 9.09962177 C-8.34152925 7.13481808 -6.72188274 5.40740106 -5.12523651 3.01959419 C-2.85041428 0.59962177 -2.85041428 0.59962177 0 0 Z " fill="#95BE5A" transform="translate(195.85041427612305,222.4003782272339)"/>
<path d="M0 0 C26.4 0 52.8 0 80 0 C80 7.92 80 15.84 80 24 C53.6 24 27.2 24 0 24 C0 16.08 0 8.16 0 0 Z " fill="#DCDCDC" transform="translate(360,216)"/>
<path d="M0 0 C2.42900752 2.36153509 4.72164725 4.60824427 6.6875 7.375 C16.15680814 18.12394437 29.91332088 22.99352773 43.796875 24.25390625 C58.61158688 24.87452256 72.99101271 19.99978314 84.375 10.5625 C87.83568572 7.37240287 90.43083206 3.93403841 93 0 C94.92248368 5.39049345 92.22805311 10.04577919 90 15 C82.94902427 27.97878718 72.03209311 36.11295406 58 40.4375 C44.83913119 42.97385587 32.16797041 40.53131226 20.69921875 33.83984375 C10.64216262 26.98474471 3.25027502 17.27221754 0.3515625 5.328125 C0.0625 3.125 0.0625 3.125 0 0 Z " fill="#CDA17E" transform="translate(41,151)"/>
<path d="M0 0 C0.33 0 0.66 0 1 0 C1.80296898 12.901035 0.11972767 23.96174581 -8.40625 34.29296875 C-15.87532658 42.29293558 -24.49426409 47.21384243 -35.54296875 48.37109375 C-47.89377462 48.59613523 -57.80983358 45.40714775 -67 37 C-73.25803068 30.82929068 -77.17541013 23.62533394 -79 15 C-78.54296875 12.796875 -78.54296875 12.796875 -78 11 C-77.5875 11.50789063 -77.175 12.01578125 -76.75 12.5390625 C-67.80201471 23.20474139 -57.93815358 29.45343775 -44 31 C-30.22976687 32.12450328 -18.43083801 28.14619266 -7.34765625 20.06640625 C-2.30861886 15.72789855 -0.46906906 12.63672647 0.0625 5.9375 C0.08290383 3.95832886 0.07642196 1.9778004 0 0 Z " fill="#CCA07D" transform="translate(439,376)"/>
<path d="M0 0 C0.33 0 0.66 0 1 0 C1.80296898 12.901035 0.11972767 23.96174581 -8.40625 34.29296875 C-15.87532658 42.29293558 -24.49426409 47.21384243 -35.54296875 48.37109375 C-47.89377462 48.59613523 -57.80983358 45.40714775 -67 37 C-73.25803068 30.82929068 -77.17541013 23.62533394 -79 15 C-78.54296875 12.796875 -78.54296875 12.796875 -78 11 C-77.5875 11.50789063 -77.175 12.01578125 -76.75 12.5390625 C-67.80201471 23.20474139 -57.93815358 29.45343775 -44 31 C-30.22976687 32.12450328 -18.43083801 28.14619266 -7.34765625 20.06640625 C-2.30861886 15.72789855 -0.46906906 12.63672647 0.0625 5.9375 C0.08290383 3.95832886 0.07642196 1.9778004 0 0 Z " fill="#CCA07D" transform="translate(311,376)"/>
<path d="M0 0 C0.33 0 0.66 0 1 0 C1.80296898 12.901035 0.11972767 23.96174581 -8.40625 34.29296875 C-15.87532658 42.29293558 -24.49426409 47.21384243 -35.54296875 48.37109375 C-47.89377462 48.59613523 -57.80983358 45.40714775 -67 37 C-73.25803068 30.82929068 -77.17541013 23.62533394 -79 15 C-78.54296875 12.796875 -78.54296875 12.796875 -78 11 C-77.5875 11.50789063 -77.175 12.01578125 -76.75 12.5390625 C-67.80201471 23.20474139 -57.93815358 29.45343775 -44 31 C-30.22976687 32.12450328 -18.43083801 28.14619266 -7.34765625 20.06640625 C-2.30861886 15.72789855 -0.46906906 12.63672647 0.0625 5.9375 C0.08290383 3.95832886 0.07642196 1.9778004 0 0 Z " fill="#CCA07D" transform="translate(183,376)"/>
<path d="M0 0 C16.5 0 33 0 50 0 C48.02 3.96 46.04 7.92 44 12 C43.67 13.32 43.34 14.64 43 16 C28.81 16 14.62 16 0 16 C0 10.72 0 5.44 0 0 Z " fill="#8AD3DD" transform="translate(48,352)"/>
<path d="M0 0 C26.4 0 52.8 0 80 0 C80 2.64 80 5.28 80 8 C53.6 8 27.2 8 0 8 C0 5.36 0 2.72 0 0 Z " fill="#F6F6F6" transform="translate(360,216)"/>
<path d="M0 0 C7.92 0 15.84 0 24 0 C24 7.92 24 15.84 24 24 C16.08 24 8.16 24 0 24 C0 16.08 0 8.16 0 0 Z " fill="#4C5657" transform="translate(48,480)"/>
<path d="M0 0 C7.92 0 15.84 0 24 0 C24 5.28 24 10.56 24 16 C16.08 16 8.16 16 0 16 C0 10.72 0 5.44 0 0 Z " fill="#96BF5B" transform="translate(456,224)"/>
<path d="M0 0 C5.28 0 10.56 0 16 0 C16.27284982 10.36829334 16.27284982 10.36829334 14 14 C11.34315439 16.06643547 9.85697351 15.99749076 6.4375 15.9375 C3 15 3 15 1.0625 13.0625 C-0.48526634 8.60129114 -0.18845795 4.71144874 0 0 Z " fill="#89D1DB" transform="translate(16,304)"/>
</svg>
