<svg xmlns="http://www.w3.org/2000/svg" width="60" height="60" viewBox="0 0 60 60">
  <g id="Group_29959" data-name="Group 29959" transform="translate(10368 9050)">
    <g id="Group_29958" data-name="Group 29958" transform="translate(-6 -12)">
      <rect id="Rectangle_4273" data-name="Rectangle 4273" width="60" height="60" transform="translate(-10362 -9038)" fill="none"/>
      <g id="Group_29957" data-name="Group 29957" transform="translate(31.999 42.858)">
        <path id="Path_25600" data-name="Path 25600" d="M42.246,30.372a28.351,28.351,0,0,0-41.513,0,2.732,2.732,0,0,0,0,3.722l4.129,4.342a2.575,2.575,0,0,0,3.662,0,18.143,18.143,0,0,1,4.659-3.553,2.607,2.607,0,0,0,1.4-2.245l.623-4.706a18.582,18.582,0,0,1,12.566,0l.616,4.589a2.691,2.691,0,0,0,1.387,2.371,18.2,18.2,0,0,1,4.668,3.557,2.513,2.513,0,0,0,3.662,0l4.14-4.354A2.732,2.732,0,0,0,42.246,30.372Z" transform="translate(-10385 -9083.333)" fill="#ffd064"/>
        <path id="Path_25601" data-name="Path 25601" d="M72.224,194.37a4.47,4.47,0,0,0-3.95-2.37h-15.4a4.47,4.47,0,0,0-3.95,2.37l-5.731,10.745a4.5,4.5,0,0,0-.526,2.106v6.267a3.586,3.586,0,0,0,3.581,3.581H74.9a3.586,3.586,0,0,0,3.581-3.581v-6.268a4.5,4.5,0,0,0-.526-2.107ZM55.2,211.7a1.791,1.791,0,1,1,1.791-1.791A1.792,1.792,0,0,1,55.2,211.7Zm0-5.372a1.791,1.791,0,1,1,1.791-1.791A1.792,1.792,0,0,1,55.2,206.326Zm0-5.372a1.791,1.791,0,1,1,1.791-1.791A1.792,1.792,0,0,1,55.2,200.954ZM60.574,211.7a1.791,1.791,0,1,1,1.791-1.791A1.792,1.792,0,0,1,60.574,211.7Zm0-5.372a1.791,1.791,0,1,1,1.791-1.791A1.792,1.792,0,0,1,60.574,206.326Zm0-5.372a1.791,1.791,0,1,1,1.791-1.791A1.792,1.792,0,0,1,60.574,200.954Zm5.37,10.744a1.791,1.791,0,1,1,1.791-1.791A1.792,1.792,0,0,1,65.945,211.7Zm0-5.372a1.791,1.791,0,1,1,1.791-1.791A1.792,1.792,0,0,1,65.945,206.326Zm0-5.372a1.791,1.791,0,1,1,1.791-1.791A1.792,1.792,0,0,1,65.945,200.954Z" transform="translate(-10424.085 -9239.674)" fill="#0cb4fe"/>
      </g>
    </g>
  </g>
</svg>
