<?xml version="1.0" encoding="UTF-8"?>
<svg version="1.1" xmlns="http://www.w3.org/2000/svg" width="518" height="512">
<path d="M0 0 C170.94 0 341.88 0 518 0 C518 168.96 518 337.92 518 512 C347.06 512 176.12 512 0 512 C0 343.04 0 174.08 0 0 Z " fill="#FEFEFE" transform="translate(0,0)"/>
<path d="M0 0 C0.74765625 -0.02578125 1.4953125 -0.0515625 2.265625 -0.078125 C8.86782787 0.79386406 13.11991268 5.13558443 17.6875 9.5625 C19.01546239 10.8256918 20.34359221 12.08870762 21.671875 13.3515625 C22.34669922 13.99770508 23.02152344 14.64384766 23.71679688 15.30957031 C26.93249438 18.3785381 30.18500606 21.40763576 33.4375 24.4375 C34.06325928 25.02184814 34.68901855 25.60619629 35.33374023 26.20825195 C39.12084117 29.74258212 42.92699891 33.25453849 46.75 36.75 C53.80026776 43.19622875 60.77315223 49.72452272 67.75 56.25 C85.51728166 73.00738805 85.51728166 73.00738805 103.75 89.25 C108.80296851 87.77817058 111.54859563 84.76860366 115.0625 81.0625 C119.12780083 76.82925235 123.28870269 72.8409046 127.73461914 69.00708008 C131.00798904 66.15324081 134.15565065 63.16890238 137.3125 60.1875 C138.71601034 58.86704346 140.11965948 57.54673445 141.5234375 56.2265625 C142.57869629 55.23317871 142.57869629 55.23317871 143.65527344 54.21972656 C146.90918054 51.159992 150.17223671 48.11010741 153.4375 45.0625 C154.0569751 44.4842749 154.6764502 43.9060498 155.31469727 43.31030273 C159.80601156 39.12191992 164.31502957 34.95310731 168.83227539 30.79272461 C172.3817536 27.52099863 175.91485703 24.23230024 179.44018555 20.93457031 C181.95204603 18.58530723 184.46728197 16.23968723 186.98388672 13.89550781 C188.1295834 12.8280492 189.27448876 11.75974039 190.41845703 10.69042969 C191.92038917 9.28887306 193.42876146 7.89422709 194.9375 6.5 C195.77667969 5.72140625 196.61585938 4.9428125 197.48046875 4.140625 C201.81207593 0.53219492 204.96918006 -0.15044908 210.5078125 0.00390625 C215.39215739 0.53999288 218.45007628 2.68577265 221.5625 6.3125 C224.11242636 9.73668683 224.91489315 11.32976448 225 15.5 C225.02578125 16.24765625 225.0515625 16.9953125 225.078125 17.765625 C224.28327119 23.78380382 220.77908964 27.58985506 216.5625 31.6875 C215.21091797 33.01587891 215.21091797 33.01587891 213.83203125 34.37109375 C211.57303613 36.51610804 209.25011681 38.57441644 206.8984375 40.6171875 C202.68045748 44.28189158 198.61528617 48.09192111 194.5625 51.9375 C189.44148278 56.77742457 184.31100543 61.60471945 179.125 66.375 C174.48132138 70.64689388 169.85939436 74.941129 165.25 79.25 C160.48909262 83.6982763 155.72234434 88.13996959 150.9375 92.5625 C149.98230469 93.44550781 149.02710938 94.32851562 148.04296875 95.23828125 C143.63612091 99.26874351 139.18896197 103.25493422 134.75 107.25 C173.69 107.58 212.63 107.91 252.75 108.25 C250.82755874 113.05610316 248.6145042 117.59784974 246.28515625 122.21484375 C244.69737953 125.8624801 243.96265254 129.61610964 243.15405273 133.50219727 C242.88946762 134.76516129 242.62488251 136.02812531 242.35227966 137.32936096 C242.15352737 138.29317184 241.95477509 139.25698273 241.75 140.25 C240.74409996 140.25089563 240.74409996 140.25089563 239.7178787 140.25180936 C199.98601295 140.2876915 160.25422527 140.34431226 120.52243003 140.42792095 C115.75339767 140.43793859 110.98436497 140.44778269 106.21533203 140.45751953 C104.79116958 140.46043159 104.79116958 140.46043159 103.33823617 140.46340248 C87.95842662 140.49443639 72.578632 140.51140701 57.19879703 140.52319422 C41.42149228 140.53559858 25.64426596 140.56308379 9.86701071 140.60461307 C0.12902431 140.62976897 -9.60883204 140.64311575 -19.34685139 140.64142957 C-26.02162414 140.64139985 -32.69626427 140.6559987 -39.37098534 140.68216428 C-43.22386852 140.696834 -47.07647973 140.704993 -50.92938614 140.69580269 C-55.10517165 140.68601061 -59.28023552 140.70699162 -63.45596313 140.73101807 C-64.67580764 140.72325765 -65.89565215 140.71549723 -67.15246165 140.70750165 C-75.4419876 140.78449606 -75.4419876 140.78449606 -82.25 145.25 C-86.67818451 150.26730851 -86.82227071 154.39370898 -86.75793457 160.77000427 C-86.76417453 161.72165956 -86.7704145 162.67331485 -86.77684355 163.65380818 C-86.79278381 166.8390384 -86.78016488 170.02350448 -86.76757812 173.20874023 C-86.7729988 175.49380947 -86.78012115 177.77887521 -86.78881836 180.06393433 C-86.80706196 186.26848369 -86.79997944 192.47276715 -86.78730202 198.6773212 C-86.7771786 205.16965883 -86.78656599 211.66197361 -86.79284668 218.15431213 C-86.80059182 229.75697638 -86.78815577 241.35951923 -86.76780933 252.96216435 C-86.74994293 263.47589414 -86.75303938 273.98944724 -86.77148438 284.50317383 C-86.79290563 296.71905969 -86.80085013 308.93481975 -86.78903532 321.15072399 C-86.78279959 327.6147362 -86.78196698 334.07862676 -86.79518127 340.54263115 C-86.80673842 346.62070068 -86.79871599 352.69843667 -86.77560425 358.77647018 C-86.77031628 361.00692122 -86.7718324 363.23740034 -86.78065491 365.46784019 C-86.7915902 368.5132761 -86.77787024 371.55764416 -86.75793457 374.60301208 C-86.76685746 375.48512043 -86.77578034 376.36722877 -86.78497362 377.27606767 C-86.69452577 384.40254626 -84.97632136 388.45953931 -79.89913177 393.65617466 C-74.05496805 396.20872053 -68.15187405 395.79645023 -61.8638916 395.75120544 C-60.37393109 395.75509916 -58.8839743 395.76074017 -57.39402628 395.76797634 C-53.30306562 395.78273899 -49.21248956 395.77254509 -45.12154126 395.75823963 C-40.70838349 395.74713829 -36.29528003 395.75906966 -31.88212585 395.76808167 C-23.23808829 395.78202185 -14.59419672 395.7744522 -5.95016611 395.75940608 C4.11391185 395.74255433 14.17795335 395.7457552 24.24204105 395.74950016 C42.1976858 395.75538017 60.15326044 395.74120164 78.10888672 395.71655273 C95.53632231 395.69263156 112.96366423 395.6855483 130.39111328 395.69604492 C149.36362155 395.70745165 168.33608648 395.70938722 187.30859423 395.69494683 C189.33128388 395.69342097 191.35397354 395.69190061 193.37666321 395.69038582 C194.86950762 395.6892491 194.86950762 395.6892491 196.3925105 395.68808941 C203.40944124 395.68334469 210.42635264 395.68519936 217.44328308 395.68945122 C225.99334687 395.69437554 234.54332206 395.68840395 243.09336555 395.66855692 C247.45661726 395.65867849 251.819734 395.65358574 256.18299294 395.66144943 C260.17638295 395.66849933 264.16950045 395.66171792 268.16285449 395.6438458 C269.6082584 395.6397968 271.05368708 395.64080877 272.49908179 395.64736467 C274.46291323 395.65551039 276.42679744 395.64341124 278.39060211 395.63031673 C279.48170367 395.6292876 280.57280522 395.62825848 281.69697046 395.62719816 C286.53177456 395.02986388 289.77136236 393.30798663 293.0625 389.75 C295.92340361 385.51162429 295.88338903 382.18161489 295.90821838 377.16963196 C295.91562535 376.08160389 295.91562535 376.08160389 295.92318195 374.97159547 C295.93857132 372.5348583 295.94692146 370.0981475 295.95532227 367.66137695 C295.96489966 365.91711189 295.97490966 364.17284915 295.98532104 362.42858887 C296.01239121 357.68719706 296.03338935 352.94579529 296.05332303 348.20436883 C296.07516956 343.25155834 296.10256477 338.29877868 296.12937927 333.34599304 C296.1793242 323.96442006 296.22425636 314.58283 296.26740164 305.20122355 C296.31675863 294.52177214 296.37168246 283.84235165 296.42708123 273.16293013 C296.54092891 251.19198222 296.64776189 229.2210048 296.75 207.25 C298.48092896 207.16782227 298.48092896 207.16782227 300.24682617 207.08398438 C301.7830562 207.00421069 303.31926956 206.9241155 304.85546875 206.84375 C305.99236145 206.79105957 305.99236145 206.79105957 307.15222168 206.73730469 C313.31920499 206.40458371 318.87979652 205.16850345 324.75 203.25 C326.08177096 202.91047827 327.41490479 202.57620494 328.75 202.25 C328.84358929 226.14644567 328.91405066 250.04286373 328.95724869 273.93945599 C328.97784259 285.03595304 329.00590244 296.13233597 329.05175781 307.22875977 C329.09172279 316.90442494 329.11745585 326.58000744 329.12635398 336.25575286 C329.13155238 341.37536059 329.14370411 346.49473186 329.17292023 351.61426353 C329.20024216 356.44137405 329.20841133 361.2681526 329.20243073 366.0953331 C329.2035235 367.85886634 329.21137682 369.62241167 329.2268219 371.38587761 C329.36319757 387.77231964 326.6080017 402.11969173 315 414.5 C302.81451412 425.9253327 288.61820085 428.86722683 272.33470154 428.75793457 C270.81822633 428.76255363 269.30175562 428.76891324 267.78529412 428.77684355 C263.65333133 428.79342207 259.52174175 428.78534336 255.38977826 428.77289867 C250.92004474 428.76380315 246.45037289 428.77784006 241.98065186 428.78881836 C233.23864489 428.80655991 224.49677567 428.80278323 215.75476342 428.7911678 C208.64751802 428.7821171 201.54031111 428.78091654 194.4330616 428.78526306 C193.41973007 428.78587599 192.40639854 428.78648893 191.36235999 428.78712043 C189.3035097 428.78839939 187.24465941 428.78969624 185.18580914 428.7910108 C165.90218992 428.80240366 146.61864689 428.78932291 127.33504016 428.76780933 C110.80348148 428.74993683 94.27203517 428.75304624 77.74047852 428.77148438 C58.52211425 428.79290929 39.30381667 428.80130799 20.08544213 428.78903532 C18.03466897 428.78776118 15.98389581 428.7865037 13.93312263 428.78526306 C12.92421755 428.78464596 11.91531247 428.78402886 10.87583451 428.78339306 C3.77997865 428.77994522 -3.31583476 428.78575621 -10.41168404 428.79518127 C-19.06316604 428.80642053 -27.71450295 428.80332063 -36.36596841 428.7820583 C-40.77663193 428.77157421 -45.18705386 428.76738083 -49.59771538 428.78065491 C-53.64116717 428.79263949 -57.68415513 428.78591732 -61.72756528 428.7647447 C-63.1843073 428.7603042 -64.64108912 428.76248698 -66.09780521 428.77224785 C-81.23836987 428.86585713 -94.29601454 425.02495603 -105.5 414.5 C-111.7960761 407.82234353 -115.96249002 400.12027251 -118.25 391.25 C-118.50995317 390.24203212 -118.50995317 390.24203212 -118.77515793 389.21370125 C-119.44333717 385.04329644 -119.39450168 380.94255285 -119.39044189 376.72531128 C-119.39341302 375.76099847 -119.39638414 374.79668566 -119.3994453 373.80315125 C-119.40812274 370.56911679 -119.40963975 367.3351194 -119.41113281 364.10107422 C-119.4157617 361.78323793 -119.42078646 359.46540239 -119.42617798 357.14756775 C-119.43929815 350.84773967 -119.44574634 344.54792225 -119.45018864 338.24808264 C-119.45312031 334.3109876 -119.45722533 330.37389548 -119.46169281 326.43680191 C-119.47380096 315.52666545 -119.48418294 304.61653152 -119.4875679 293.70638847 C-119.48778747 293.00850739 -119.48800703 292.31062632 -119.48823325 291.59159733 C-119.48845153 290.89208521 -119.48866981 290.19257308 -119.4888947 289.47186363 C-119.48933816 288.0544846 -119.48978472 286.63710558 -119.49023438 285.21972656 C-119.4904558 284.51666378 -119.49067723 283.81360101 -119.49090537 283.08923329 C-119.49485039 271.70616641 -119.51229609 260.32316365 -119.5355939 248.94012152 C-119.55934463 237.24088918 -119.57177147 225.54168897 -119.57293582 213.84243214 C-119.57398306 207.27879648 -119.57987367 200.71525127 -119.59775543 194.15163803 C-119.61425718 187.97433058 -119.61638128 181.79718136 -119.60761642 175.6198597 C-119.60684715 173.35721602 -119.61117421 171.09456376 -119.62107468 168.8319416 C-119.63383402 165.73330452 -119.62789549 162.63522453 -119.61749268 159.53659058 C-119.62554908 158.64988768 -119.63360548 157.76318479 -119.64190602 156.84961212 C-119.53714653 143.42636423 -114.69374897 131.57681375 -105.4375 121.875 C-101.02334177 117.71119702 -96.74910103 114.75343857 -91.25 112.25 C-90.48846461 111.89910183 -89.72692923 111.54820366 -88.94231701 111.18667221 C-80.90454419 107.87130755 -73.36766678 107.67127434 -64.77270508 107.70410156 C-63.24399777 107.69534951 -61.7152996 107.68485808 -60.18661499 107.67277527 C-56.0695551 107.64509413 -51.95279675 107.64150659 -47.83565736 107.64249516 C-43.52079785 107.63935055 -39.2060711 107.61370035 -34.89128113 107.59051514 C-26.73535188 107.55006956 -18.57950235 107.52964144 -10.42348832 107.51654124 C-1.13192405 107.50063228 8.15950531 107.46220038 17.45099103 107.42194796 C36.55061794 107.33970574 55.65023189 107.28551586 74.75 107.25 C72.05515822 104.71043752 69.35966484 102.17156766 66.6640625 99.6328125 C65.90875244 98.9210083 65.15344238 98.2092041 64.37524414 97.47583008 C59.97912996 93.33621527 55.56849397 89.21372174 51.125 85.125 C50.30742218 84.37262054 50.30742218 84.37262054 49.47332764 83.6050415 C48.98455139 83.15529968 48.49577515 82.70555786 47.9921875 82.2421875 C44.39535753 78.92867706 40.82248517 75.58971444 37.25 72.25 C32.59743476 67.90119826 27.9340551 63.56486849 23.25 59.25 C17.93200556 54.35115783 12.64086128 49.42421805 7.36230469 44.48291016 C4.26208443 41.58340618 1.15199163 38.69634353 -1.984375 35.8359375 C-2.57669922 35.29453125 -3.16902344 34.753125 -3.77929688 34.1953125 C-4.8925295 33.17937717 -6.00825665 32.16616567 -7.12695312 31.15625 C-11.33547915 27.31155784 -14.80481976 24.08146927 -15.48828125 18.19921875 C-15.67001793 12.66103242 -14.99513006 9.60244845 -11.25 5.25 C-7.45888732 1.91021026 -5.0493405 0.10304777 0 0 Z " fill="#009788" transform="translate(151.25,41.75)"/>
<path d="M0 0 C3.70290331 1.31454978 6.94798492 3.17301757 10.3125 5.1875 C11.25689941 5.72777832 12.20129883 6.26805664 13.17431641 6.82470703 C16.13124277 8.52536841 19.0665699 10.25918077 22 12 C23.82375003 13.06720765 25.64795858 14.13363218 27.47265625 15.19921875 C31.11568224 17.33554692 34.74846532 19.48814728 38.375 21.65234375 C44.18638687 25.1186244 50.02763566 28.53235114 55.875 31.9375 C56.86314697 32.51363037 57.85129395 33.08976074 58.86938477 33.68334961 C64.06449559 36.71140763 69.2631147 39.73332573 74.46484375 42.75 C76.0593335 43.67631226 76.0593335 43.67631226 77.68603516 44.62133789 C79.6963154 45.78910883 81.70762557 46.95510955 83.72021484 48.11889648 C88.53040337 50.91498113 93.30433752 53.7642861 98.03125 56.69921875 C99.36446289 57.52619263 99.36446289 57.52619263 100.72460938 58.36987305 C104.78358951 61.27779261 106.47665339 64.16264045 107.3984375 69.16015625 C107.83667352 75.24328959 105.89386026 79.41058754 102 84 C98.92355357 86.41183319 95.61420627 88.25591493 92.1875 90.125 C90.19915093 91.25378679 88.2108721 92.38269732 86.22265625 93.51171875 C85.19543457 94.08583496 84.16821289 94.65995117 83.10986328 95.25146484 C78.07666257 98.08140545 73.10528725 101.0158078 68.125 103.9375 C66.10722456 105.11405972 64.08899274 106.28983711 62.0703125 107.46484375 C57.04269995 110.39236549 52.01670099 113.32263805 46.99169922 116.25463867 C45.00658349 117.41275785 43.02123407 118.57047657 41.03564453 119.7277832 C35.83171191 122.76134517 30.63182953 125.80158237 25.4375 128.8515625 C24.35984375 129.48320312 23.2821875 130.11484375 22.171875 130.765625 C20.11857611 131.96928297 18.0664157 133.17488604 16.015625 134.3828125 C-1.18753916 144.45759372 -1.18753916 144.45759372 -11 143 C-16.12038962 140.67255017 -19.01766948 137.21867178 -21 132 C-21.57163694 128.06106461 -21.54692011 124.16791393 -21.51757812 120.19311523 C-21.5245874 119.02154877 -21.53159668 117.8499823 -21.53881836 116.64291382 C-21.55638302 112.78123071 -21.54478082 108.92028395 -21.53125 105.05859375 C-21.53214139 102.37011627 -21.53782189 99.6816518 -21.54284668 96.99317932 C-21.55011059 91.36361754 -21.54056759 85.73426612 -21.52148438 80.10473633 C-21.49970719 73.60562437 -21.50677774 67.10701424 -21.52879 60.60791439 C-21.54696744 55.01617477 -21.54949128 49.42458582 -21.53903532 43.8328262 C-21.53281441 40.49812477 -21.53350712 37.16384781 -21.54518127 33.82913017 C-21.55534074 30.11157168 -21.53985251 26.39497695 -21.51757812 22.67749023 C-21.52567505 21.57861984 -21.53377197 20.47974945 -21.54211426 19.34757996 C-21.4519942 11.22792344 -19.8106523 8.15341478 -14.4375 2.125 C-10.15871707 -1.19944982 -5.14892587 -0.68115778 0 0 Z " fill="#019788" transform="translate(213,234)"/>
<path d="M0 0 C10.79916388 7.41364951 18.44295178 17.04280629 22.1875 29.75 C24.55125111 43.69613152 23.45454071 57.92510806 15.6875 70.1015625 C9.06545651 79.02292664 1.40282715 85.38649933 -8.8125 89.75 C-9.61171875 90.10320312 -10.4109375 90.45640625 -11.234375 90.8203125 C-23.92227089 95.39564465 -37.89898761 93.00768675 -49.875 87.625 C-62.81289927 80.74532341 -71.3855353 69.2737307 -75.9375 55.54296875 C-79.26452934 41.12089069 -76.45636835 27.28790825 -68.8125 14.75 C-52.25978789 -7.46798069 -24.12258091 -14.46031256 0 0 Z " fill="#FE5657" transform="translate(481.8125,144.25)"/>
<path d="M0 0 C3.57830956 1.43132383 6.6130559 2.80997342 9.921875 4.6875 C10.85741211 5.21682129 11.79294922 5.74614258 12.75683594 6.29150391 C13.74458008 6.85530762 14.73232422 7.41911133 15.75 8 C16.76610352 8.5779834 17.78220703 9.1559668 18.82910156 9.75146484 C21.88905277 11.49581969 24.94525937 13.24653868 28 15 C28.886875 15.50821289 29.77375 16.01642578 30.6875 16.54003906 C33.04560686 17.89502937 35.39895574 19.25779971 37.75 20.625 C38.44577148 21.02589844 39.14154297 21.42679687 39.85839844 21.83984375 C42.9430814 23.64869562 45.54603038 25.40683075 48 28 C39.00743085 33.34592453 30.00820217 38.680463 21 44 C19.97326172 44.60634277 18.94652344 45.21268555 17.88867188 45.83740234 C15.24144406 47.39708348 12.59048058 48.95012985 9.9375 50.5 C9.1539917 50.96188721 8.3704834 51.42377441 7.56323242 51.8996582 C2.23175287 55 2.23175287 55 0 55 C0 36.85 0 18.7 0 0 Z " fill="#FCFDFD" transform="translate(224,278)"/>
</svg>
